<svg width="419" height="1" viewBox="0 0 419 1" fill="none" xmlns="http://www.w3.org/2000/svg">
<rect y="0.978516" width="0.978972" height="23.4953" transform="rotate(-90 0 0.978516)" fill="#1FC7FF" fill-opacity="0.24"/>
<rect x="56.7812" y="0.978516" width="0.978972" height="23.4953" transform="rotate(-90 56.7812 0.978516)" fill="#1FC7FF" fill-opacity="0.24"/>
<rect width="0.978972" height="23.4953" transform="matrix(0 -1 -1 0 419 0.978516)" fill="#1FC7FF" fill-opacity="0.24"/>
<rect x="31.3262" y="0.978516" width="0.978972" height="23.4953" transform="rotate(-90 31.3262 0.978516)" fill="#1FC7FF" fill-opacity="0.24"/>
<rect x="25.4531" y="0.978516" width="0.978972" height="3.91589" transform="rotate(-90 25.4531 0.978516)" fill="#1FC7FF" fill-opacity="0.72"/>
<rect x="82.2344" y="0.978516" width="0.978972" height="3.91589" transform="rotate(-90 82.2344 0.978516)" fill="#1FC7FF" fill-opacity="0.72"/>
<rect x="88.1074" y="0.978516" width="0.978972" height="3.91589" transform="rotate(-90 88.1074 0.978516)" fill="#1FC7FF" fill-opacity="0.72"/>
<rect x="93.9805" y="0.978516" width="0.978972" height="3.91589" transform="rotate(-90 93.9805 0.978516)" fill="#1FC7FF" fill-opacity="0.72"/>
<rect width="0.978972" height="23.4953" transform="matrix(0 -1 -1 0 362.219 0.978516)" fill="#1FC7FF" fill-opacity="0.24"/>
<rect x="99.8555" y="0.978516" width="0.978972" height="219.29" transform="rotate(-90 99.8555 0.978516)" fill="#1FC7FF" fill-opacity="0.24"/>
<rect width="0.978972" height="23.4953" transform="matrix(0 -1 -1 0 387.674 0.978516)" fill="#1FC7FF" fill-opacity="0.24"/>
<rect width="0.978972" height="3.91589" transform="matrix(0 -1 -1 0 393.547 0.978516)" fill="#1FC7FF" fill-opacity="0.72"/>
<rect width="0.978972" height="3.91589" transform="matrix(0 -1 -1 0 336.766 0.978516)" fill="#1FC7FF" fill-opacity="0.72"/>
<rect width="0.978972" height="3.91589" transform="matrix(0 -1 -1 0 330.893 0.978516)" fill="#1FC7FF" fill-opacity="0.72"/>
<rect width="0.978972" height="3.91589" transform="matrix(0 -1 -1 0 325.02 0.978516)" fill="#1FC7FF" fill-opacity="0.72"/>
</svg>
