<svg width="447" height="870" viewBox="0 0 447 870" fill="none" xmlns="http://www.w3.org/2000/svg">
<g clip-path="url(#clip0_166_934)">
<rect x="0.5" y="0.5" width="446" height="868.985" fill="url(#paint0_linear_166_934)" fill-opacity="0.15"/>
<rect x="0.5" y="0.5" width="446" height="868.985" fill="url(#paint1_radial_166_934)" fill-opacity="0.1"/>
<rect x="0.5" y="0.5" width="446" height="868.985" stroke="url(#paint2_linear_166_934)"/>
<mask id="mask0_166_934" style="mask-type:alpha" maskUnits="userSpaceOnUse" x="1" y="684" width="446" height="196">
<line x1="2.5" y1="685.611" x2="445.5" y2="685.611" stroke="white" stroke-width="3" stroke-linecap="round" stroke-dasharray="0.1 6"/>
<line x1="2.5" y1="785.167" x2="445.5" y2="785.167" stroke="white" stroke-width="3" stroke-linecap="round" stroke-dasharray="0.1 6"/>
<line x1="2.5" y1="691.833" x2="445.5" y2="691.833" stroke="white" stroke-width="3" stroke-linecap="round" stroke-dasharray="0.1 6"/>
<line x1="2.5" y1="791.389" x2="445.5" y2="791.389" stroke="white" stroke-width="3" stroke-linecap="round" stroke-dasharray="0.1 6"/>
<line x1="2.5" y1="698.056" x2="445.5" y2="698.056" stroke="white" stroke-width="3" stroke-linecap="round" stroke-dasharray="0.1 6"/>
<line x1="2.5" y1="797.611" x2="445.5" y2="797.611" stroke="white" stroke-width="3" stroke-linecap="round" stroke-dasharray="0.1 6"/>
<line x1="2.5" y1="704.277" x2="445.5" y2="704.277" stroke="white" stroke-width="3" stroke-linecap="round" stroke-dasharray="0.1 6"/>
<line x1="2.5" y1="803.833" x2="445.5" y2="803.833" stroke="white" stroke-width="3" stroke-linecap="round" stroke-dasharray="0.1 6"/>
<line x1="2.5" y1="710.5" x2="445.5" y2="710.5" stroke="white" stroke-width="3" stroke-linecap="round" stroke-dasharray="0.1 6"/>
<line x1="2.5" y1="810.056" x2="445.5" y2="810.056" stroke="white" stroke-width="3" stroke-linecap="round" stroke-dasharray="0.1 6"/>
<line x1="2.5" y1="716.723" x2="445.5" y2="716.723" stroke="white" stroke-width="3" stroke-linecap="round" stroke-dasharray="0.1 6"/>
<line x1="2.5" y1="816.277" x2="445.5" y2="816.277" stroke="white" stroke-width="3" stroke-linecap="round" stroke-dasharray="0.1 6"/>
<line x1="2.5" y1="722.944" x2="445.5" y2="722.944" stroke="white" stroke-width="3" stroke-linecap="round" stroke-dasharray="0.1 6"/>
<line x1="2.5" y1="822.5" x2="445.5" y2="822.5" stroke="white" stroke-width="3" stroke-linecap="round" stroke-dasharray="0.1 6"/>
<line x1="2.5" y1="729.167" x2="445.5" y2="729.167" stroke="white" stroke-width="3" stroke-linecap="round" stroke-dasharray="0.1 6"/>
<line x1="2.5" y1="828.723" x2="445.5" y2="828.723" stroke="white" stroke-width="3" stroke-linecap="round" stroke-dasharray="0.1 6"/>
<line x1="2.5" y1="735.389" x2="445.5" y2="735.389" stroke="white" stroke-width="3" stroke-linecap="round" stroke-dasharray="0.1 6"/>
<line x1="2.5" y1="834.944" x2="445.5" y2="834.944" stroke="white" stroke-width="3" stroke-linecap="round" stroke-dasharray="0.1 6"/>
<line x1="2.5" y1="741.611" x2="445.5" y2="741.611" stroke="white" stroke-width="3" stroke-linecap="round" stroke-dasharray="0.1 6"/>
<line x1="2.5" y1="841.167" x2="445.5" y2="841.167" stroke="white" stroke-width="3" stroke-linecap="round" stroke-dasharray="0.1 6"/>
<line x1="2.5" y1="747.833" x2="445.5" y2="747.833" stroke="white" stroke-width="3" stroke-linecap="round" stroke-dasharray="0.1 6"/>
<line x1="2.5" y1="847.389" x2="445.5" y2="847.389" stroke="white" stroke-width="3" stroke-linecap="round" stroke-dasharray="0.1 6"/>
<line x1="2.5" y1="754.056" x2="445.5" y2="754.056" stroke="white" stroke-width="3" stroke-linecap="round" stroke-dasharray="0.1 6"/>
<line x1="2.5" y1="853.611" x2="445.5" y2="853.611" stroke="white" stroke-width="3" stroke-linecap="round" stroke-dasharray="0.1 6"/>
<line x1="2.5" y1="760.277" x2="445.5" y2="760.277" stroke="white" stroke-width="3" stroke-linecap="round" stroke-dasharray="0.1 6"/>
<line x1="2.5" y1="859.833" x2="445.5" y2="859.833" stroke="white" stroke-width="3" stroke-linecap="round" stroke-dasharray="0.1 6"/>
<line x1="2.5" y1="766.5" x2="445.5" y2="766.5" stroke="white" stroke-width="3" stroke-linecap="round" stroke-dasharray="0.1 6"/>
<line x1="2.5" y1="866.056" x2="445.5" y2="866.056" stroke="white" stroke-width="3" stroke-linecap="round" stroke-dasharray="0.1 6"/>
<line x1="2.5" y1="772.723" x2="445.5" y2="772.723" stroke="white" stroke-width="3" stroke-linecap="round" stroke-dasharray="0.1 6"/>
<line x1="2.5" y1="778.944" x2="445.5" y2="778.944" stroke="white" stroke-width="3" stroke-linecap="round" stroke-dasharray="0.1 6"/>
</mask>
<g mask="url(#mask0_166_934)">
<rect x="0.5" y="714.579" width="446.5" height="155.421" fill="url(#paint3_linear_166_934)" fill-opacity="0.1"/>
</g>
<rect y="868" width="6" height="1.99536" fill="#00F2FF"/>
<rect x="441" y="868" width="6" height="1.99536" fill="#00F2FF"/>
</g>
<defs>
<linearGradient id="paint0_linear_166_934" x1="223.5" y1="0" x2="223.5" y2="869.985" gradientUnits="userSpaceOnUse">
<stop stop-color="#006A70" stop-opacity="0"/>
<stop offset="1" stop-color="#0C8F96"/>
</linearGradient>
<radialGradient id="paint1_radial_166_934" cx="0" cy="0" r="1" gradientUnits="userSpaceOnUse" gradientTransform="translate(223.5 869.985) rotate(-90) scale(869.985 674.005)">
<stop stop-color="#D6FDFF"/>
<stop offset="0.203125" stop-color="#85F9FF" stop-opacity="0.5"/>
<stop offset="0.416667" stop-color="#3BBAC0" stop-opacity="0.3"/>
<stop offset="0.625" stop-color="#036C72" stop-opacity="0.402674"/>
<stop offset="0.807292" stop-color="#023E41" stop-opacity="0.229301"/>
<stop offset="1" stop-opacity="0"/>
</radialGradient>
<linearGradient id="paint2_linear_166_934" x1="223.5" y1="0" x2="223.5" y2="869.985" gradientUnits="userSpaceOnUse">
<stop stop-color="#00F2FF" stop-opacity="0"/>
<stop offset="1" stop-color="#00F2FF"/>
</linearGradient>
<linearGradient id="paint3_linear_166_934" x1="223.75" y1="714.579" x2="223.75" y2="870" gradientUnits="userSpaceOnUse">
<stop stop-color="white" stop-opacity="0"/>
<stop offset="1" stop-color="white" stop-opacity="0.5"/>
</linearGradient>
<clipPath id="clip0_166_934">
<rect width="447" height="870" fill="white"/>
</clipPath>
</defs>
</svg>
