<svg width="1920" height="115" viewBox="0 0 1920 115" fill="none" xmlns="http://www.w3.org/2000/svg">
<g clip-path="url(#clip0_123_1538)">
<path d="M908.024 30.1571C909.459 27.5956 912.181 26.0254 915.116 26.0662L1954.92 40.5194C1957.2 40.5512 1958.61 43.0212 1957.48 45.0051L1924.44 102.963C1923.01 105.459 1920.36 107 1917.49 107H870.118C867.826 107 866.381 104.534 867.5 102.534L908.024 30.1571Z" fill="url(#paint0_linear_123_1538)" fill-opacity="0.16"/>
<line x1="862" y1="107.5" x2="1920" y2="107.5" stroke="#56CCD2"/>
<path d="M946 0H999L915 108H862L946 0Z" fill="url(#paint1_linear_123_1538)" fill-opacity="0.18"/>
<path d="M944.015 24.6316H961L896.985 108H880L944.015 24.6316Z" fill="url(#paint2_linear_123_1538)" fill-opacity="0.18"/>
<path d="M1029 0H1082L998 108H945L1029 0Z" fill="url(#paint3_linear_123_1538)" fill-opacity="0.18"/>
<path d="M1027.02 24.6316H1044L979.985 108H963L1027.02 24.6316Z" fill="url(#paint4_linear_123_1538)" fill-opacity="0.18"/>
<path d="M1112 0H1165L1081 108H1028L1112 0Z" fill="url(#paint5_linear_123_1538)" fill-opacity="0.18"/>
<path d="M1110.02 24.6316H1127L1062.98 108H1046L1110.02 24.6316Z" fill="url(#paint6_linear_123_1538)" fill-opacity="0.18"/>
<path d="M1195 0H1248L1164 108H1111L1195 0Z" fill="url(#paint7_linear_123_1538)" fill-opacity="0.18"/>
<path d="M1193.02 24.6316H1210L1145.98 108H1129L1193.02 24.6316Z" fill="url(#paint8_linear_123_1538)" fill-opacity="0.18"/>
<path d="M1278 0H1331L1247 108H1194L1278 0Z" fill="url(#paint9_linear_123_1538)" fill-opacity="0.18"/>
<path d="M1276.02 24.6316H1293L1228.98 108H1212L1276.02 24.6316Z" fill="url(#paint10_linear_123_1538)" fill-opacity="0.18"/>
<path d="M1361 0H1414L1330 108H1277L1361 0Z" fill="url(#paint11_linear_123_1538)" fill-opacity="0.18"/>
<path d="M1359.02 24.6316H1376L1311.98 108H1295L1359.02 24.6316Z" fill="url(#paint12_linear_123_1538)" fill-opacity="0.18"/>
<path d="M1444 0H1497L1413 108H1360L1444 0Z" fill="url(#paint13_linear_123_1538)" fill-opacity="0.18"/>
<path d="M1442.02 24.6316H1459L1394.98 108H1378L1442.02 24.6316Z" fill="url(#paint14_linear_123_1538)" fill-opacity="0.18"/>
<path d="M1527 0H1580L1496 108H1443L1527 0Z" fill="url(#paint15_linear_123_1538)" fill-opacity="0.18"/>
<path d="M1525.02 24.6316H1542L1477.98 108H1461L1525.02 24.6316Z" fill="url(#paint16_linear_123_1538)" fill-opacity="0.18"/>
<path d="M1610 0H1663L1579 108H1526L1610 0Z" fill="url(#paint17_linear_123_1538)" fill-opacity="0.18"/>
<path d="M1608.02 24.6316H1625L1560.98 108H1544L1608.02 24.6316Z" fill="url(#paint18_linear_123_1538)" fill-opacity="0.18"/>
<path d="M1693 0H1746L1662 108H1609L1693 0Z" fill="url(#paint19_linear_123_1538)" fill-opacity="0.18"/>
<path d="M1691.02 24.6316H1708L1643.98 108H1627L1691.02 24.6316Z" fill="url(#paint20_linear_123_1538)" fill-opacity="0.18"/>
<path d="M1776 0H1829L1745 108H1692L1776 0Z" fill="url(#paint21_linear_123_1538)" fill-opacity="0.18"/>
<path d="M1774.02 24.6316H1791L1726.98 108H1710L1774.02 24.6316Z" fill="url(#paint22_linear_123_1538)" fill-opacity="0.18"/>
<path d="M1859 0H1912L1828 108H1775L1859 0Z" fill="url(#paint23_linear_123_1538)" fill-opacity="0.18"/>
<path d="M1857.02 24.6316H1874L1809.98 108H1793L1857.02 24.6316Z" fill="url(#paint24_linear_123_1538)" fill-opacity="0.18"/>
<path d="M1942 0H1995L1911 108H1858L1942 0Z" fill="url(#paint25_linear_123_1538)" fill-opacity="0.18"/>
<path d="M1940.02 24.6316H1957L1892.98 108H1876L1940.02 24.6316Z" fill="url(#paint26_linear_123_1538)" fill-opacity="0.18"/>
</g>
<g clip-path="url(#clip1_123_1538)">
<path d="M-0.373983 12.4947C0.795832 9.22072 3.94627 7.07709 7.42109 7.19075L898.724 36.3438C900.935 36.4161 902.31 38.774 901.284 40.7334L871.082 98.4328C870.367 99.7982 869.396 101.013 868.222 102.011L860.92 108.218C860.308 108.738 859.646 109.195 858.942 109.583L850.919 114.006C849.737 114.658 848.408 115 847.057 115H-32.7423C-34.8171 115 -36.2655 112.944 -35.5674 110.991L-0.373983 12.4947Z" fill="url(#paint27_linear_123_1538)" fill-opacity="0.16"/>
<path d="M59 0H112L28 114H-25L59 0Z" fill="url(#paint28_linear_123_1538)" fill-opacity="0.4"/>
<path d="M57.0154 26H74L9.98462 114H-7L57.0154 26Z" fill="url(#paint29_linear_123_1538)" fill-opacity="0.5"/>
<path d="M157 0H210L126 114H73L157 0Z" fill="url(#paint30_linear_123_1538)" fill-opacity="0.4"/>
<path d="M155.015 26H172L107.985 114H91L155.015 26Z" fill="url(#paint31_linear_123_1538)" fill-opacity="0.5"/>
<path d="M255 0H308L224 114H171L255 0Z" fill="url(#paint32_linear_123_1538)" fill-opacity="0.4"/>
<path d="M253.015 26H270L205.985 114H189L253.015 26Z" fill="url(#paint33_linear_123_1538)" fill-opacity="0.5"/>
<path d="M353 0H406L322 114H269L353 0Z" fill="url(#paint34_linear_123_1538)" fill-opacity="0.4"/>
<path d="M351.015 26H368L303.985 114H287L351.015 26Z" fill="url(#paint35_linear_123_1538)" fill-opacity="0.5"/>
<path d="M451 0H504L420 114H367L451 0Z" fill="url(#paint36_linear_123_1538)" fill-opacity="0.4"/>
<path d="M449.015 26H466L401.985 114H385L449.015 26Z" fill="url(#paint37_linear_123_1538)" fill-opacity="0.5"/>
<path d="M549 0H602L518 114H465L549 0Z" fill="url(#paint38_linear_123_1538)" fill-opacity="0.4"/>
<path d="M547.015 26H564L499.985 114H483L547.015 26Z" fill="url(#paint39_linear_123_1538)" fill-opacity="0.5"/>
<path d="M647 0H700L616 114H563L647 0Z" fill="url(#paint40_linear_123_1538)" fill-opacity="0.4"/>
<path d="M645.015 26H662L597.985 114H581L645.015 26Z" fill="url(#paint41_linear_123_1538)" fill-opacity="0.5"/>
<path d="M745 0H798L714 114H661L745 0Z" fill="url(#paint42_linear_123_1538)" fill-opacity="0.4"/>
<path d="M743.015 26H760L695.985 114H679L743.015 26Z" fill="url(#paint43_linear_123_1538)" fill-opacity="0.5"/>
<path d="M837.194 114H-1V22H911C907.396 29.4595 896.145 52.1362 879.973 83.1675C863.903 114.004 846.812 114.001 837.372 114L837.194 114Z" stroke="#50A9AE" stroke-width="2"/>
</g>
<defs>
<linearGradient id="paint0_linear_123_1538" x1="1444.5" y1="107" x2="1444.5" y2="61.7205" gradientUnits="userSpaceOnUse">
<stop stop-color="#55F5FD"/>
<stop offset="1" stop-color="#55F5FD" stop-opacity="0"/>
</linearGradient>
<linearGradient id="paint1_linear_123_1538" x1="930.5" y1="0" x2="930.5" y2="108" gradientUnits="userSpaceOnUse">
<stop stop-color="#174D50" stop-opacity="0"/>
<stop offset="1" stop-color="#174D50"/>
</linearGradient>
<linearGradient id="paint2_linear_123_1538" x1="952.671" y1="24.6316" x2="892.785" y2="111.087" gradientUnits="userSpaceOnUse">
<stop offset="0.0626286" stop-color="#15484B" stop-opacity="0"/>
<stop offset="1" stop-color="#1A5A5D"/>
</linearGradient>
<linearGradient id="paint3_linear_123_1538" x1="1013.5" y1="0" x2="1013.5" y2="108" gradientUnits="userSpaceOnUse">
<stop stop-color="#174D50" stop-opacity="0"/>
<stop offset="1" stop-color="#174D50"/>
</linearGradient>
<linearGradient id="paint4_linear_123_1538" x1="1035.67" y1="24.6316" x2="975.785" y2="111.087" gradientUnits="userSpaceOnUse">
<stop offset="0.0626286" stop-color="#15484B" stop-opacity="0"/>
<stop offset="1" stop-color="#1A5A5D"/>
</linearGradient>
<linearGradient id="paint5_linear_123_1538" x1="1096.5" y1="0" x2="1096.5" y2="108" gradientUnits="userSpaceOnUse">
<stop stop-color="#174D50" stop-opacity="0"/>
<stop offset="1" stop-color="#174D50"/>
</linearGradient>
<linearGradient id="paint6_linear_123_1538" x1="1118.67" y1="24.6316" x2="1058.79" y2="111.087" gradientUnits="userSpaceOnUse">
<stop offset="0.0626286" stop-color="#15484B" stop-opacity="0"/>
<stop offset="1" stop-color="#1A5A5D"/>
</linearGradient>
<linearGradient id="paint7_linear_123_1538" x1="1179.5" y1="0" x2="1179.5" y2="108" gradientUnits="userSpaceOnUse">
<stop stop-color="#174D50" stop-opacity="0"/>
<stop offset="1" stop-color="#174D50"/>
</linearGradient>
<linearGradient id="paint8_linear_123_1538" x1="1201.67" y1="24.6316" x2="1141.79" y2="111.087" gradientUnits="userSpaceOnUse">
<stop offset="0.0626286" stop-color="#15484B" stop-opacity="0"/>
<stop offset="1" stop-color="#1A5A5D"/>
</linearGradient>
<linearGradient id="paint9_linear_123_1538" x1="1262.5" y1="0" x2="1262.5" y2="108" gradientUnits="userSpaceOnUse">
<stop stop-color="#174D50" stop-opacity="0"/>
<stop offset="1" stop-color="#174D50"/>
</linearGradient>
<linearGradient id="paint10_linear_123_1538" x1="1284.67" y1="24.6316" x2="1224.79" y2="111.087" gradientUnits="userSpaceOnUse">
<stop offset="0.0626286" stop-color="#15484B" stop-opacity="0"/>
<stop offset="1" stop-color="#1A5A5D"/>
</linearGradient>
<linearGradient id="paint11_linear_123_1538" x1="1345.5" y1="0" x2="1345.5" y2="108" gradientUnits="userSpaceOnUse">
<stop stop-color="#174D50" stop-opacity="0"/>
<stop offset="1" stop-color="#174D50"/>
</linearGradient>
<linearGradient id="paint12_linear_123_1538" x1="1367.67" y1="24.6316" x2="1307.79" y2="111.087" gradientUnits="userSpaceOnUse">
<stop offset="0.0626286" stop-color="#15484B" stop-opacity="0"/>
<stop offset="1" stop-color="#1A5A5D"/>
</linearGradient>
<linearGradient id="paint13_linear_123_1538" x1="1428.5" y1="0" x2="1428.5" y2="108" gradientUnits="userSpaceOnUse">
<stop stop-color="#174D50" stop-opacity="0"/>
<stop offset="1" stop-color="#174D50"/>
</linearGradient>
<linearGradient id="paint14_linear_123_1538" x1="1450.67" y1="24.6316" x2="1390.79" y2="111.087" gradientUnits="userSpaceOnUse">
<stop offset="0.0626286" stop-color="#15484B" stop-opacity="0"/>
<stop offset="1" stop-color="#1A5A5D"/>
</linearGradient>
<linearGradient id="paint15_linear_123_1538" x1="1511.5" y1="0" x2="1511.5" y2="108" gradientUnits="userSpaceOnUse">
<stop stop-color="#174D50" stop-opacity="0"/>
<stop offset="1" stop-color="#174D50"/>
</linearGradient>
<linearGradient id="paint16_linear_123_1538" x1="1533.67" y1="24.6316" x2="1473.79" y2="111.087" gradientUnits="userSpaceOnUse">
<stop offset="0.0626286" stop-color="#15484B" stop-opacity="0"/>
<stop offset="1" stop-color="#1A5A5D"/>
</linearGradient>
<linearGradient id="paint17_linear_123_1538" x1="1594.5" y1="0" x2="1594.5" y2="108" gradientUnits="userSpaceOnUse">
<stop stop-color="#174D50" stop-opacity="0"/>
<stop offset="1" stop-color="#174D50"/>
</linearGradient>
<linearGradient id="paint18_linear_123_1538" x1="1616.67" y1="24.6316" x2="1556.79" y2="111.087" gradientUnits="userSpaceOnUse">
<stop offset="0.0626286" stop-color="#15484B" stop-opacity="0"/>
<stop offset="1" stop-color="#1A5A5D"/>
</linearGradient>
<linearGradient id="paint19_linear_123_1538" x1="1677.5" y1="0" x2="1677.5" y2="108" gradientUnits="userSpaceOnUse">
<stop stop-color="#174D50" stop-opacity="0"/>
<stop offset="1" stop-color="#174D50"/>
</linearGradient>
<linearGradient id="paint20_linear_123_1538" x1="1699.67" y1="24.6316" x2="1639.79" y2="111.087" gradientUnits="userSpaceOnUse">
<stop offset="0.0626286" stop-color="#15484B" stop-opacity="0"/>
<stop offset="1" stop-color="#1A5A5D"/>
</linearGradient>
<linearGradient id="paint21_linear_123_1538" x1="1760.5" y1="0" x2="1760.5" y2="108" gradientUnits="userSpaceOnUse">
<stop stop-color="#174D50" stop-opacity="0"/>
<stop offset="1" stop-color="#174D50"/>
</linearGradient>
<linearGradient id="paint22_linear_123_1538" x1="1782.67" y1="24.6316" x2="1722.79" y2="111.087" gradientUnits="userSpaceOnUse">
<stop offset="0.0626286" stop-color="#15484B" stop-opacity="0"/>
<stop offset="1" stop-color="#1A5A5D"/>
</linearGradient>
<linearGradient id="paint23_linear_123_1538" x1="1843.5" y1="0" x2="1843.5" y2="108" gradientUnits="userSpaceOnUse">
<stop stop-color="#174D50" stop-opacity="0"/>
<stop offset="1" stop-color="#174D50"/>
</linearGradient>
<linearGradient id="paint24_linear_123_1538" x1="1865.67" y1="24.6316" x2="1805.79" y2="111.087" gradientUnits="userSpaceOnUse">
<stop offset="0.0626286" stop-color="#15484B" stop-opacity="0"/>
<stop offset="1" stop-color="#1A5A5D"/>
</linearGradient>
<linearGradient id="paint25_linear_123_1538" x1="1926.5" y1="0" x2="1926.5" y2="108" gradientUnits="userSpaceOnUse">
<stop stop-color="#174D50" stop-opacity="0"/>
<stop offset="1" stop-color="#174D50"/>
</linearGradient>
<linearGradient id="paint26_linear_123_1538" x1="1948.67" y1="24.6316" x2="1888.79" y2="111.087" gradientUnits="userSpaceOnUse">
<stop offset="0.0626286" stop-color="#15484B" stop-opacity="0"/>
<stop offset="1" stop-color="#1A5A5D"/>
</linearGradient>
<linearGradient id="paint27_linear_123_1538" x1="456.086" y1="115" x2="456.086" y2="54.6274" gradientUnits="userSpaceOnUse">
<stop stop-color="#55F5FD"/>
<stop offset="1" stop-color="#55F5FD" stop-opacity="0"/>
</linearGradient>
<linearGradient id="paint28_linear_123_1538" x1="43.5" y1="0" x2="43.5" y2="114" gradientUnits="userSpaceOnUse">
<stop stop-color="#174D50" stop-opacity="0"/>
<stop offset="1" stop-color="#174D50"/>
</linearGradient>
<linearGradient id="paint29_linear_123_1538" x1="65.6714" y1="26" x2="1.32857" y2="114" gradientUnits="userSpaceOnUse">
<stop offset="0.0626286" stop-color="#15484B" stop-opacity="0"/>
<stop offset="1" stop-color="#1A5A5D"/>
</linearGradient>
<linearGradient id="paint30_linear_123_1538" x1="141.5" y1="0" x2="141.5" y2="114" gradientUnits="userSpaceOnUse">
<stop stop-color="#174D50" stop-opacity="0"/>
<stop offset="1" stop-color="#174D50"/>
</linearGradient>
<linearGradient id="paint31_linear_123_1538" x1="163.671" y1="26" x2="99.3286" y2="114" gradientUnits="userSpaceOnUse">
<stop offset="0.0626286" stop-color="#15484B" stop-opacity="0"/>
<stop offset="1" stop-color="#1A5A5D"/>
</linearGradient>
<linearGradient id="paint32_linear_123_1538" x1="239.5" y1="0" x2="239.5" y2="114" gradientUnits="userSpaceOnUse">
<stop stop-color="#174D50" stop-opacity="0"/>
<stop offset="1" stop-color="#174D50"/>
</linearGradient>
<linearGradient id="paint33_linear_123_1538" x1="261.671" y1="26" x2="197.329" y2="114" gradientUnits="userSpaceOnUse">
<stop offset="0.0626286" stop-color="#15484B" stop-opacity="0"/>
<stop offset="1" stop-color="#1A5A5D"/>
</linearGradient>
<linearGradient id="paint34_linear_123_1538" x1="337.5" y1="0" x2="337.5" y2="114" gradientUnits="userSpaceOnUse">
<stop stop-color="#174D50" stop-opacity="0"/>
<stop offset="1" stop-color="#174D50"/>
</linearGradient>
<linearGradient id="paint35_linear_123_1538" x1="359.671" y1="26" x2="295.329" y2="114" gradientUnits="userSpaceOnUse">
<stop offset="0.0626286" stop-color="#15484B" stop-opacity="0"/>
<stop offset="1" stop-color="#1A5A5D"/>
</linearGradient>
<linearGradient id="paint36_linear_123_1538" x1="435.5" y1="0" x2="435.5" y2="114" gradientUnits="userSpaceOnUse">
<stop stop-color="#174D50" stop-opacity="0"/>
<stop offset="1" stop-color="#174D50"/>
</linearGradient>
<linearGradient id="paint37_linear_123_1538" x1="457.671" y1="26" x2="393.329" y2="114" gradientUnits="userSpaceOnUse">
<stop offset="0.0626286" stop-color="#15484B" stop-opacity="0"/>
<stop offset="1" stop-color="#1A5A5D"/>
</linearGradient>
<linearGradient id="paint38_linear_123_1538" x1="533.5" y1="0" x2="533.5" y2="114" gradientUnits="userSpaceOnUse">
<stop stop-color="#174D50" stop-opacity="0"/>
<stop offset="1" stop-color="#174D50"/>
</linearGradient>
<linearGradient id="paint39_linear_123_1538" x1="555.671" y1="26" x2="491.329" y2="114" gradientUnits="userSpaceOnUse">
<stop offset="0.0626286" stop-color="#15484B" stop-opacity="0"/>
<stop offset="1" stop-color="#1A5A5D"/>
</linearGradient>
<linearGradient id="paint40_linear_123_1538" x1="631.5" y1="0" x2="631.5" y2="114" gradientUnits="userSpaceOnUse">
<stop stop-color="#174D50" stop-opacity="0"/>
<stop offset="1" stop-color="#174D50"/>
</linearGradient>
<linearGradient id="paint41_linear_123_1538" x1="653.671" y1="26" x2="589.329" y2="114" gradientUnits="userSpaceOnUse">
<stop offset="0.0626286" stop-color="#15484B" stop-opacity="0"/>
<stop offset="1" stop-color="#1A5A5D"/>
</linearGradient>
<linearGradient id="paint42_linear_123_1538" x1="729.5" y1="0" x2="729.5" y2="114" gradientUnits="userSpaceOnUse">
<stop stop-color="#174D50" stop-opacity="0"/>
<stop offset="1" stop-color="#174D50"/>
</linearGradient>
<linearGradient id="paint43_linear_123_1538" x1="751.671" y1="26" x2="687.329" y2="114" gradientUnits="userSpaceOnUse">
<stop offset="0.0626286" stop-color="#15484B" stop-opacity="0"/>
<stop offset="1" stop-color="#1A5A5D"/>
</linearGradient>
<clipPath id="clip0_123_1538">
<rect width="1058" height="108" fill="white" transform="translate(862)"/>
</clipPath>
<clipPath id="clip1_123_1538">
<rect width="911" height="92" fill="white" transform="translate(0 23)"/>
</clipPath>
</defs>
</svg>
