<svg width="183" height="402" viewBox="0 0 183 402" fill="none" xmlns="http://www.w3.org/2000/svg">
<g filter="url(#filter0_b_122_752)">
<path d="M177.628 392.688V46.3714L168.884 6.10205H5.3719V352.419L14.1159 392.688H177.628Z" fill="black" fill-opacity="0.5"/>
<path d="M177.628 392.688V46.3714L168.884 6.10205H5.3719V352.419L14.1159 392.688H177.628Z" stroke="url(#paint0_linear_122_752)" stroke-width="2"/>
</g>
<path d="M38.4758 400.87H9.88154L1 362.999V212.46" stroke="url(#paint1_linear_122_752)" stroke-width="2"/>
<path d="M144.524 1H173.118L182 38.267V186.403" stroke="url(#paint2_linear_122_752)" stroke-width="2"/>
<path fill-rule="evenodd" clip-rule="evenodd" d="M165.824 401.893H177.646V397.866H165.824V401.893Z" fill="#4FF5E7"/>
<path d="M67.0812 18.3333H22.4106L22.4104 17H21.7677L20.4822 19L21.7677 21H22.4104V19.6667H67.0812V18.3333Z" fill="url(#paint3_linear_122_752)"/>
<path d="M162.107 18.3333H32.272L32.2719 17H31.9968L31.4467 19L31.9968 21H32.2719V19.6667H162.107V18.3333Z" fill="url(#paint4_linear_122_752)"/>
<path d="M117 55H16.01L16.0099 54H15.6733L15 55.5L15.6733 57H16.0099V56H117V55Z" fill="url(#paint5_linear_122_752)"/>
<path d="M61.599 21.3333H16.9284L16.9282 20H16.2855L15 22L16.2855 24H16.9282V22.6667H61.599V21.3333Z" fill="url(#paint6_linear_122_752)"/>
<g filter="url(#filter1_b_122_752)">
<rect width="149" height="33" transform="translate(17 22)" fill="url(#paint7_linear_122_752)"/>
<g filter="url(#filter2_d_122_752)">
<path fill-rule="evenodd" clip-rule="evenodd" d="M34 35L38 38.5L34 42L30 38.5L34 35Z" fill="url(#paint8_linear_122_752)" shape-rendering="crispEdges"/>
<path d="M30.7593 38.5L34 35.6644L37.2407 38.5L34 41.3356L30.7593 38.5Z" stroke="url(#paint9_linear_122_752)" stroke-miterlimit="10" shape-rendering="crispEdges"/>
</g>
<path d="M34.6757 38.4951L38.9998 33.7431L43.3243 38.5L39.0002 43.2565L34.6757 38.4951Z" fill="url(#paint10_linear_122_752)" stroke="url(#paint11_linear_122_752)" stroke-miterlimit="10"/>
<path d="M148.324 38.4951L144 33.7431L139.676 38.5L144 43.2565L148.324 38.4951Z" fill="url(#paint12_linear_122_752)" stroke="url(#paint13_linear_122_752)" stroke-miterlimit="10"/>
<g filter="url(#filter3_d_122_752)">
<path fill-rule="evenodd" clip-rule="evenodd" d="M149 35L145 38.5L149 42L153 38.5L149 35Z" fill="url(#paint14_linear_122_752)" shape-rendering="crispEdges"/>
<path d="M152.241 38.5L149 35.6644L145.759 38.5L149 41.3356L152.241 38.5Z" stroke="url(#paint15_linear_122_752)" stroke-miterlimit="10" shape-rendering="crispEdges"/>
</g>
</g>
<path d="M121 55H167.014L167.014 54H167.676L169 55.5L167.676 57H167.014V56H121V55Z" fill="url(#paint16_linear_122_752)"/>
<defs>
<filter id="filter0_b_122_752" x="2.37195" y="3.10205" width="178.256" height="392.586" filterUnits="userSpaceOnUse" color-interpolation-filters="sRGB">
<feFlood flood-opacity="0" result="BackgroundImageFix"/>
<feGaussianBlur in="BackgroundImageFix" stdDeviation="1"/>
<feComposite in2="SourceAlpha" operator="in" result="effect1_backgroundBlur_122_752"/>
<feBlend mode="normal" in="SourceGraphic" in2="effect1_backgroundBlur_122_752" result="shape"/>
</filter>
<filter id="filter1_b_122_752" x="13" y="18" width="157" height="41" filterUnits="userSpaceOnUse" color-interpolation-filters="sRGB">
<feFlood flood-opacity="0" result="BackgroundImageFix"/>
<feGaussianBlur in="BackgroundImageFix" stdDeviation="2"/>
<feComposite in2="SourceAlpha" operator="in" result="effect1_backgroundBlur_122_752"/>
<feBlend mode="normal" in="SourceGraphic" in2="effect1_backgroundBlur_122_752" result="shape"/>
</filter>
<filter id="filter2_d_122_752" x="15" y="20" width="38" height="37" filterUnits="userSpaceOnUse" color-interpolation-filters="sRGB">
<feFlood flood-opacity="0" result="BackgroundImageFix"/>
<feColorMatrix in="SourceAlpha" type="matrix" values="0 0 0 0 0 0 0 0 0 0 0 0 0 0 0 0 0 0 127 0" result="hardAlpha"/>
<feOffset/>
<feGaussianBlur stdDeviation="7.5"/>
<feComposite in2="hardAlpha" operator="out"/>
<feColorMatrix type="matrix" values="0 0 0 0 0 0 0 0 0 1 0 0 0 0 0.983333 0 0 0 0.32 0"/>
<feBlend mode="normal" in2="BackgroundImageFix" result="effect1_dropShadow_122_752"/>
<feBlend mode="normal" in="SourceGraphic" in2="effect1_dropShadow_122_752" result="shape"/>
</filter>
<filter id="filter3_d_122_752" x="130" y="20" width="38" height="37" filterUnits="userSpaceOnUse" color-interpolation-filters="sRGB">
<feFlood flood-opacity="0" result="BackgroundImageFix"/>
<feColorMatrix in="SourceAlpha" type="matrix" values="0 0 0 0 0 0 0 0 0 0 0 0 0 0 0 0 0 0 127 0" result="hardAlpha"/>
<feOffset/>
<feGaussianBlur stdDeviation="7.5"/>
<feComposite in2="hardAlpha" operator="out"/>
<feColorMatrix type="matrix" values="0 0 0 0 0 0 0 0 0 1 0 0 0 0 0.983333 0 0 0 0.32 0"/>
<feBlend mode="normal" in2="BackgroundImageFix" result="effect1_dropShadow_122_752"/>
<feBlend mode="normal" in="SourceGraphic" in2="effect1_dropShadow_122_752" result="shape"/>
</filter>
<linearGradient id="paint0_linear_122_752" x1="177.628" y1="6.10205" x2="-30.2513" y2="27.2391" gradientUnits="userSpaceOnUse">
<stop stop-color="#4FF5E7" stop-opacity="0"/>
<stop offset="0.506863" stop-color="#4FF5E7"/>
<stop offset="1" stop-color="#4FF5E7" stop-opacity="0"/>
</linearGradient>
<linearGradient id="paint1_linear_122_752" x1="38.6924" y1="400.87" x2="-38.6917" y2="381.638" gradientUnits="userSpaceOnUse">
<stop stop-color="#4FF5E7" stop-opacity="0"/>
<stop offset="0.493144" stop-color="#4FF5E7"/>
<stop offset="1" stop-color="#4FF5E7" stop-opacity="0"/>
</linearGradient>
<linearGradient id="paint2_linear_122_752" x1="144.308" y1="0.999992" x2="221.545" y2="20.5065" gradientUnits="userSpaceOnUse">
<stop stop-color="#4FF5E7" stop-opacity="0"/>
<stop offset="0.493144" stop-color="#4FF5E7"/>
<stop offset="1" stop-color="#4FF5E7" stop-opacity="0"/>
</linearGradient>
<linearGradient id="paint3_linear_122_752" x1="22.3003" y1="18.3333" x2="65.4743" y2="18.3333" gradientUnits="userSpaceOnUse">
<stop stop-color="#00FFD1"/>
<stop offset="0.255291" stop-color="#00F0FF" stop-opacity="0.5"/>
<stop offset="0.810574" stop-color="#0085FF" stop-opacity="0"/>
</linearGradient>
<linearGradient id="paint4_linear_122_752" x1="32.2248" y1="18.3333" x2="162.107" y2="18.3333" gradientUnits="userSpaceOnUse">
<stop stop-color="#00FFD1"/>
<stop offset="0.547016" stop-color="#00F0FF" stop-opacity="0.5"/>
<stop offset="1" stop-color="#0085FF" stop-opacity="0"/>
</linearGradient>
<linearGradient id="paint5_linear_122_752" x1="15.9522" y1="55" x2="117" y2="55" gradientUnits="userSpaceOnUse">
<stop stop-color="#00FFD1"/>
<stop offset="0.255291" stop-color="#00F0FF" stop-opacity="0.5"/>
<stop offset="0.810574" stop-color="#0085FF" stop-opacity="0"/>
</linearGradient>
<linearGradient id="paint6_linear_122_752" x1="16.8181" y1="21.3333" x2="59.9921" y2="21.3333" gradientUnits="userSpaceOnUse">
<stop stop-color="#00FFD1"/>
<stop offset="0.255291" stop-color="#00F0FF" stop-opacity="0.5"/>
<stop offset="0.810574" stop-color="#0085FF" stop-opacity="0"/>
</linearGradient>
<linearGradient id="paint7_linear_122_752" x1="0" y1="16.5" x2="197.5" y2="16.5" gradientUnits="userSpaceOnUse">
<stop stop-color="#043945"/>
<stop offset="1" stop-color="#001B19" stop-opacity="0"/>
</linearGradient>
<linearGradient id="paint8_linear_122_752" x1="37.8775" y1="38.5885" x2="29.8881" y2="38.5885" gradientUnits="userSpaceOnUse">
<stop offset="0.32296" stop-color="#1BFFFB"/>
<stop offset="1" stop-color="#1BFFFB" stop-opacity="0"/>
</linearGradient>
<linearGradient id="paint9_linear_122_752" x1="37.6112" y1="38.5885" x2="30.1544" y2="38.5885" gradientUnits="userSpaceOnUse">
<stop offset="0.321336" stop-color="#00FFFB"/>
<stop offset="1" stop-color="#00FFFB" stop-opacity="0"/>
</linearGradient>
<linearGradient id="paint10_linear_122_752" x1="44.0801" y1="39.1117" x2="34.1838" y2="39.1117" gradientUnits="userSpaceOnUse">
<stop stop-color="#28ECE9"/>
<stop offset="1" stop-color="#28ECE9" stop-opacity="0"/>
</linearGradient>
<linearGradient id="paint11_linear_122_752" x1="44.0801" y1="38.3341" x2="34.1838" y2="38.3341" gradientUnits="userSpaceOnUse">
<stop stop-color="#00FFFB"/>
<stop offset="1" stop-color="#00FFFB" stop-opacity="0"/>
</linearGradient>
<linearGradient id="paint12_linear_122_752" x1="138.92" y1="39.1117" x2="148.816" y2="39.1117" gradientUnits="userSpaceOnUse">
<stop stop-color="#28ECE9"/>
<stop offset="1" stop-color="#28ECE9" stop-opacity="0"/>
</linearGradient>
<linearGradient id="paint13_linear_122_752" x1="138.92" y1="38.3341" x2="148.816" y2="38.3341" gradientUnits="userSpaceOnUse">
<stop stop-color="#00FFFB"/>
<stop offset="1" stop-color="#00FFFB" stop-opacity="0"/>
</linearGradient>
<linearGradient id="paint14_linear_122_752" x1="145.123" y1="38.5885" x2="153.112" y2="38.5885" gradientUnits="userSpaceOnUse">
<stop offset="0.32296" stop-color="#1BFFFB"/>
<stop offset="1" stop-color="#1BFFFB" stop-opacity="0"/>
</linearGradient>
<linearGradient id="paint15_linear_122_752" x1="145.389" y1="38.5885" x2="152.846" y2="38.5885" gradientUnits="userSpaceOnUse">
<stop offset="0.321336" stop-color="#00FFFB"/>
<stop offset="1" stop-color="#00FFFB" stop-opacity="0"/>
</linearGradient>
<linearGradient id="paint16_linear_122_752" x1="167.127" y1="55" x2="122.655" y2="55" gradientUnits="userSpaceOnUse">
<stop stop-color="#00FFD1"/>
<stop offset="0.255291" stop-color="#00F0FF" stop-opacity="0.5"/>
<stop offset="0.810574" stop-color="#0085FF" stop-opacity="0"/>
</linearGradient>
</defs>
</svg>
