<svg width="447" height="888" viewBox="0 0 447 888" fill="none" xmlns="http://www.w3.org/2000/svg">
<g clip-path="url(#clip0_14_9746)">
<rect x="0.5" y="0.5" width="446" height="886.985" fill="url(#paint0_linear_14_9746)" fill-opacity="0.15"/>
<rect x="0.5" y="0.5" width="446" height="886.985" fill="url(#paint1_radial_14_9746)" fill-opacity="0.1"/>
<rect x="0.5" y="0.5" width="446" height="886.985" stroke="url(#paint2_linear_14_9746)"/>
<mask id="mask0_14_9746" style="mask-type:alpha" maskUnits="userSpaceOnUse" x="1" y="702" width="446" height="196">
<line x1="2.5" y1="703.611" x2="445.5" y2="703.611" stroke="white" stroke-width="3" stroke-linecap="round" stroke-dasharray="0.1 6"/>
<line x1="2.5" y1="803.167" x2="445.5" y2="803.167" stroke="white" stroke-width="3" stroke-linecap="round" stroke-dasharray="0.1 6"/>
<line x1="2.5" y1="709.833" x2="445.5" y2="709.833" stroke="white" stroke-width="3" stroke-linecap="round" stroke-dasharray="0.1 6"/>
<line x1="2.5" y1="809.389" x2="445.5" y2="809.389" stroke="white" stroke-width="3" stroke-linecap="round" stroke-dasharray="0.1 6"/>
<line x1="2.5" y1="716.056" x2="445.5" y2="716.056" stroke="white" stroke-width="3" stroke-linecap="round" stroke-dasharray="0.1 6"/>
<line x1="2.5" y1="815.611" x2="445.5" y2="815.611" stroke="white" stroke-width="3" stroke-linecap="round" stroke-dasharray="0.1 6"/>
<line x1="2.5" y1="722.278" x2="445.5" y2="722.278" stroke="white" stroke-width="3" stroke-linecap="round" stroke-dasharray="0.1 6"/>
<line x1="2.5" y1="821.833" x2="445.5" y2="821.833" stroke="white" stroke-width="3" stroke-linecap="round" stroke-dasharray="0.1 6"/>
<line x1="2.5" y1="728.5" x2="445.5" y2="728.5" stroke="white" stroke-width="3" stroke-linecap="round" stroke-dasharray="0.1 6"/>
<line x1="2.5" y1="828.056" x2="445.5" y2="828.056" stroke="white" stroke-width="3" stroke-linecap="round" stroke-dasharray="0.1 6"/>
<line x1="2.5" y1="734.722" x2="445.5" y2="734.722" stroke="white" stroke-width="3" stroke-linecap="round" stroke-dasharray="0.1 6"/>
<line x1="2.5" y1="834.278" x2="445.5" y2="834.278" stroke="white" stroke-width="3" stroke-linecap="round" stroke-dasharray="0.1 6"/>
<line x1="2.5" y1="740.944" x2="445.5" y2="740.944" stroke="white" stroke-width="3" stroke-linecap="round" stroke-dasharray="0.1 6"/>
<line x1="2.5" y1="840.5" x2="445.5" y2="840.5" stroke="white" stroke-width="3" stroke-linecap="round" stroke-dasharray="0.1 6"/>
<line x1="2.5" y1="747.167" x2="445.5" y2="747.167" stroke="white" stroke-width="3" stroke-linecap="round" stroke-dasharray="0.1 6"/>
<line x1="2.5" y1="846.722" x2="445.5" y2="846.722" stroke="white" stroke-width="3" stroke-linecap="round" stroke-dasharray="0.1 6"/>
<line x1="2.5" y1="753.389" x2="445.5" y2="753.389" stroke="white" stroke-width="3" stroke-linecap="round" stroke-dasharray="0.1 6"/>
<line x1="2.5" y1="852.944" x2="445.5" y2="852.944" stroke="white" stroke-width="3" stroke-linecap="round" stroke-dasharray="0.1 6"/>
<line x1="2.5" y1="759.611" x2="445.5" y2="759.611" stroke="white" stroke-width="3" stroke-linecap="round" stroke-dasharray="0.1 6"/>
<line x1="2.5" y1="859.167" x2="445.5" y2="859.167" stroke="white" stroke-width="3" stroke-linecap="round" stroke-dasharray="0.1 6"/>
<line x1="2.5" y1="765.833" x2="445.5" y2="765.833" stroke="white" stroke-width="3" stroke-linecap="round" stroke-dasharray="0.1 6"/>
<line x1="2.5" y1="865.389" x2="445.5" y2="865.389" stroke="white" stroke-width="3" stroke-linecap="round" stroke-dasharray="0.1 6"/>
<line x1="2.5" y1="772.056" x2="445.5" y2="772.056" stroke="white" stroke-width="3" stroke-linecap="round" stroke-dasharray="0.1 6"/>
<line x1="2.5" y1="871.611" x2="445.5" y2="871.611" stroke="white" stroke-width="3" stroke-linecap="round" stroke-dasharray="0.1 6"/>
<line x1="2.5" y1="778.278" x2="445.5" y2="778.278" stroke="white" stroke-width="3" stroke-linecap="round" stroke-dasharray="0.1 6"/>
<line x1="2.5" y1="877.833" x2="445.5" y2="877.833" stroke="white" stroke-width="3" stroke-linecap="round" stroke-dasharray="0.1 6"/>
<line x1="2.5" y1="784.5" x2="445.5" y2="784.5" stroke="white" stroke-width="3" stroke-linecap="round" stroke-dasharray="0.1 6"/>
<line x1="2.5" y1="884.056" x2="445.5" y2="884.056" stroke="white" stroke-width="3" stroke-linecap="round" stroke-dasharray="0.1 6"/>
<line x1="2.5" y1="790.722" x2="445.5" y2="790.722" stroke="white" stroke-width="3" stroke-linecap="round" stroke-dasharray="0.1 6"/>
<line x1="2.5" y1="796.944" x2="445.5" y2="796.944" stroke="white" stroke-width="3" stroke-linecap="round" stroke-dasharray="0.1 6"/>
</mask>
<g mask="url(#mask0_14_9746)">
<rect x="0.5" y="732.579" width="446.5" height="155.421" fill="url(#paint3_linear_14_9746)" fill-opacity="0.1"/>
</g>
<rect y="886" width="6" height="1.99536" fill="#00F2FF"/>
<rect x="441" y="886" width="6" height="1.99536" fill="#00F2FF"/>
</g>
<defs>
<linearGradient id="paint0_linear_14_9746" x1="223.5" y1="0" x2="223.5" y2="887.985" gradientUnits="userSpaceOnUse">
<stop stop-color="#006A70" stop-opacity="0"/>
<stop offset="1" stop-color="#0C8F96"/>
</linearGradient>
<radialGradient id="paint1_radial_14_9746" cx="0" cy="0" r="1" gradientUnits="userSpaceOnUse" gradientTransform="translate(223.5 887.984) rotate(-90) scale(887.984 674.005)">
<stop stop-color="#D6FDFF"/>
<stop offset="0.203125" stop-color="#85F9FF" stop-opacity="0.5"/>
<stop offset="0.416667" stop-color="#3BBAC0" stop-opacity="0.3"/>
<stop offset="0.625" stop-color="#036C72" stop-opacity="0.402674"/>
<stop offset="0.807292" stop-color="#023E41" stop-opacity="0.229301"/>
<stop offset="1" stop-opacity="0"/>
</radialGradient>
<linearGradient id="paint2_linear_14_9746" x1="223.5" y1="0" x2="223.5" y2="887.985" gradientUnits="userSpaceOnUse">
<stop stop-color="#00F2FF" stop-opacity="0"/>
<stop offset="1" stop-color="#00F2FF"/>
</linearGradient>
<linearGradient id="paint3_linear_14_9746" x1="223.75" y1="732.579" x2="223.75" y2="888" gradientUnits="userSpaceOnUse">
<stop stop-color="white" stop-opacity="0"/>
<stop offset="1" stop-color="white" stop-opacity="0.5"/>
</linearGradient>
<clipPath id="clip0_14_9746">
<rect width="447" height="888" fill="white"/>
</clipPath>
</defs>
</svg>
