<svg width="447" height="760" viewBox="0 0 447 760" fill="none" xmlns="http://www.w3.org/2000/svg">
<g clip-path="url(#clip0_130_376)">
<rect x="0.5" y="0.5" width="446" height="758.987" fill="url(#paint0_linear_130_376)" fill-opacity="0.15"/>
<rect x="0.5" y="0.5" width="446" height="758.987" fill="url(#paint1_radial_130_376)" fill-opacity="0.1"/>
<rect x="0.5" y="0.5" width="446" height="758.987" stroke="url(#paint2_linear_130_376)"/>
<mask id="mask0_130_376" style="mask-type:alpha" maskUnits="userSpaceOnUse" x="1" y="574" width="446" height="196">
<line x1="2.5" y1="575.611" x2="445.5" y2="575.611" stroke="white" stroke-width="3" stroke-linecap="round" stroke-dasharray="0.1 6"/>
<line x1="2.5" y1="675.167" x2="445.5" y2="675.167" stroke="white" stroke-width="3" stroke-linecap="round" stroke-dasharray="0.1 6"/>
<line x1="2.5" y1="581.833" x2="445.5" y2="581.833" stroke="white" stroke-width="3" stroke-linecap="round" stroke-dasharray="0.1 6"/>
<line x1="2.5" y1="681.389" x2="445.5" y2="681.389" stroke="white" stroke-width="3" stroke-linecap="round" stroke-dasharray="0.1 6"/>
<line x1="2.5" y1="588.056" x2="445.5" y2="588.056" stroke="white" stroke-width="3" stroke-linecap="round" stroke-dasharray="0.1 6"/>
<line x1="2.5" y1="687.611" x2="445.5" y2="687.611" stroke="white" stroke-width="3" stroke-linecap="round" stroke-dasharray="0.1 6"/>
<line x1="2.5" y1="594.278" x2="445.5" y2="594.278" stroke="white" stroke-width="3" stroke-linecap="round" stroke-dasharray="0.1 6"/>
<line x1="2.5" y1="693.833" x2="445.5" y2="693.833" stroke="white" stroke-width="3" stroke-linecap="round" stroke-dasharray="0.1 6"/>
<line x1="2.5" y1="600.5" x2="445.5" y2="600.5" stroke="white" stroke-width="3" stroke-linecap="round" stroke-dasharray="0.1 6"/>
<line x1="2.5" y1="700.056" x2="445.5" y2="700.056" stroke="white" stroke-width="3" stroke-linecap="round" stroke-dasharray="0.1 6"/>
<line x1="2.5" y1="606.722" x2="445.5" y2="606.722" stroke="white" stroke-width="3" stroke-linecap="round" stroke-dasharray="0.1 6"/>
<line x1="2.5" y1="706.278" x2="445.5" y2="706.278" stroke="white" stroke-width="3" stroke-linecap="round" stroke-dasharray="0.1 6"/>
<line x1="2.5" y1="612.944" x2="445.5" y2="612.944" stroke="white" stroke-width="3" stroke-linecap="round" stroke-dasharray="0.1 6"/>
<line x1="2.5" y1="712.5" x2="445.5" y2="712.5" stroke="white" stroke-width="3" stroke-linecap="round" stroke-dasharray="0.1 6"/>
<line x1="2.5" y1="619.167" x2="445.5" y2="619.167" stroke="white" stroke-width="3" stroke-linecap="round" stroke-dasharray="0.1 6"/>
<line x1="2.5" y1="718.722" x2="445.5" y2="718.722" stroke="white" stroke-width="3" stroke-linecap="round" stroke-dasharray="0.1 6"/>
<line x1="2.5" y1="625.389" x2="445.5" y2="625.389" stroke="white" stroke-width="3" stroke-linecap="round" stroke-dasharray="0.1 6"/>
<line x1="2.5" y1="724.944" x2="445.5" y2="724.944" stroke="white" stroke-width="3" stroke-linecap="round" stroke-dasharray="0.1 6"/>
<line x1="2.5" y1="631.611" x2="445.5" y2="631.611" stroke="white" stroke-width="3" stroke-linecap="round" stroke-dasharray="0.1 6"/>
<line x1="2.5" y1="731.167" x2="445.5" y2="731.167" stroke="white" stroke-width="3" stroke-linecap="round" stroke-dasharray="0.1 6"/>
<line x1="2.5" y1="637.833" x2="445.5" y2="637.833" stroke="white" stroke-width="3" stroke-linecap="round" stroke-dasharray="0.1 6"/>
<line x1="2.5" y1="737.389" x2="445.5" y2="737.389" stroke="white" stroke-width="3" stroke-linecap="round" stroke-dasharray="0.1 6"/>
<line x1="2.5" y1="644.056" x2="445.5" y2="644.056" stroke="white" stroke-width="3" stroke-linecap="round" stroke-dasharray="0.1 6"/>
<line x1="2.5" y1="743.611" x2="445.5" y2="743.611" stroke="white" stroke-width="3" stroke-linecap="round" stroke-dasharray="0.1 6"/>
<line x1="2.5" y1="650.278" x2="445.5" y2="650.278" stroke="white" stroke-width="3" stroke-linecap="round" stroke-dasharray="0.1 6"/>
<line x1="2.5" y1="749.833" x2="445.5" y2="749.833" stroke="white" stroke-width="3" stroke-linecap="round" stroke-dasharray="0.1 6"/>
<line x1="2.5" y1="656.5" x2="445.5" y2="656.5" stroke="white" stroke-width="3" stroke-linecap="round" stroke-dasharray="0.1 6"/>
<line x1="2.5" y1="756.056" x2="445.5" y2="756.056" stroke="white" stroke-width="3" stroke-linecap="round" stroke-dasharray="0.1 6"/>
<line x1="2.5" y1="662.722" x2="445.5" y2="662.722" stroke="white" stroke-width="3" stroke-linecap="round" stroke-dasharray="0.1 6"/>
<line x1="2.5" y1="668.944" x2="445.5" y2="668.944" stroke="white" stroke-width="3" stroke-linecap="round" stroke-dasharray="0.1 6"/>
</mask>
<g mask="url(#mask0_130_376)">
<rect x="0.5" y="604.579" width="446.5" height="155.421" fill="url(#paint3_linear_130_376)" fill-opacity="0.1"/>
</g>
<rect y="758" width="6" height="1.99536" fill="#00F2FF"/>
<rect x="441" y="758" width="6" height="1.99536" fill="#00F2FF"/>
</g>
<defs>
<linearGradient id="paint0_linear_130_376" x1="223.5" y1="0" x2="223.5" y2="759.987" gradientUnits="userSpaceOnUse">
<stop stop-color="#006A70" stop-opacity="0"/>
<stop offset="1" stop-color="#0C8F96"/>
</linearGradient>
<radialGradient id="paint1_radial_130_376" cx="0" cy="0" r="1" gradientUnits="userSpaceOnUse" gradientTransform="translate(223.5 759.987) rotate(-90) scale(759.987 674.005)">
<stop stop-color="#D6FDFF"/>
<stop offset="0.203125" stop-color="#85F9FF" stop-opacity="0.5"/>
<stop offset="0.416667" stop-color="#3BBAC0" stop-opacity="0.3"/>
<stop offset="0.625" stop-color="#036C72" stop-opacity="0.402674"/>
<stop offset="0.807292" stop-color="#023E41" stop-opacity="0.229301"/>
<stop offset="1" stop-opacity="0"/>
</radialGradient>
<linearGradient id="paint2_linear_130_376" x1="223.5" y1="0" x2="223.5" y2="759.987" gradientUnits="userSpaceOnUse">
<stop stop-color="#00F2FF" stop-opacity="0"/>
<stop offset="1" stop-color="#00F2FF"/>
</linearGradient>
<linearGradient id="paint3_linear_130_376" x1="223.75" y1="604.579" x2="223.75" y2="760" gradientUnits="userSpaceOnUse">
<stop stop-color="white" stop-opacity="0"/>
<stop offset="1" stop-color="white" stop-opacity="0.5"/>
</linearGradient>
<clipPath id="clip0_130_376">
<rect width="447" height="760" fill="white"/>
</clipPath>
</defs>
</svg>
