<svg width="447" height="426" viewBox="0 0 447 426" fill="none" xmlns="http://www.w3.org/2000/svg">
<g clip-path="url(#clip0_14_9896)">
<rect x="0.5" y="0.5" width="446" height="424.993" fill="url(#paint0_linear_14_9896)" fill-opacity="0.15"/>
<rect x="0.5" y="0.5" width="446" height="424.993" fill="url(#paint1_radial_14_9896)" fill-opacity="0.1"/>
<rect x="0.5" y="0.5" width="446" height="424.993" stroke="url(#paint2_linear_14_9896)"/>
<mask id="mask0_14_9896" style="mask-type:alpha" maskUnits="userSpaceOnUse" x="1" y="240" width="446" height="196">
<line x1="2.5" y1="241.611" x2="445.5" y2="241.611" stroke="white" stroke-width="3" stroke-linecap="round" stroke-dasharray="0.1 6"/>
<line x1="2.5" y1="341.167" x2="445.5" y2="341.167" stroke="white" stroke-width="3" stroke-linecap="round" stroke-dasharray="0.1 6"/>
<line x1="2.5" y1="247.833" x2="445.5" y2="247.833" stroke="white" stroke-width="3" stroke-linecap="round" stroke-dasharray="0.1 6"/>
<line x1="2.5" y1="347.389" x2="445.5" y2="347.389" stroke="white" stroke-width="3" stroke-linecap="round" stroke-dasharray="0.1 6"/>
<line x1="2.5" y1="254.056" x2="445.5" y2="254.056" stroke="white" stroke-width="3" stroke-linecap="round" stroke-dasharray="0.1 6"/>
<line x1="2.5" y1="353.611" x2="445.5" y2="353.611" stroke="white" stroke-width="3" stroke-linecap="round" stroke-dasharray="0.1 6"/>
<line x1="2.5" y1="260.278" x2="445.5" y2="260.278" stroke="white" stroke-width="3" stroke-linecap="round" stroke-dasharray="0.1 6"/>
<line x1="2.5" y1="359.833" x2="445.5" y2="359.833" stroke="white" stroke-width="3" stroke-linecap="round" stroke-dasharray="0.1 6"/>
<line x1="2.5" y1="266.5" x2="445.5" y2="266.5" stroke="white" stroke-width="3" stroke-linecap="round" stroke-dasharray="0.1 6"/>
<line x1="2.5" y1="366.056" x2="445.5" y2="366.056" stroke="white" stroke-width="3" stroke-linecap="round" stroke-dasharray="0.1 6"/>
<line x1="2.5" y1="272.722" x2="445.5" y2="272.722" stroke="white" stroke-width="3" stroke-linecap="round" stroke-dasharray="0.1 6"/>
<line x1="2.5" y1="372.278" x2="445.5" y2="372.278" stroke="white" stroke-width="3" stroke-linecap="round" stroke-dasharray="0.1 6"/>
<line x1="2.5" y1="278.944" x2="445.5" y2="278.944" stroke="white" stroke-width="3" stroke-linecap="round" stroke-dasharray="0.1 6"/>
<line x1="2.5" y1="378.5" x2="445.5" y2="378.5" stroke="white" stroke-width="3" stroke-linecap="round" stroke-dasharray="0.1 6"/>
<line x1="2.5" y1="285.167" x2="445.5" y2="285.167" stroke="white" stroke-width="3" stroke-linecap="round" stroke-dasharray="0.1 6"/>
<line x1="2.5" y1="384.722" x2="445.5" y2="384.722" stroke="white" stroke-width="3" stroke-linecap="round" stroke-dasharray="0.1 6"/>
<line x1="2.5" y1="291.389" x2="445.5" y2="291.389" stroke="white" stroke-width="3" stroke-linecap="round" stroke-dasharray="0.1 6"/>
<line x1="2.5" y1="390.944" x2="445.5" y2="390.944" stroke="white" stroke-width="3" stroke-linecap="round" stroke-dasharray="0.1 6"/>
<line x1="2.5" y1="297.611" x2="445.5" y2="297.611" stroke="white" stroke-width="3" stroke-linecap="round" stroke-dasharray="0.1 6"/>
<line x1="2.5" y1="397.167" x2="445.5" y2="397.167" stroke="white" stroke-width="3" stroke-linecap="round" stroke-dasharray="0.1 6"/>
<line x1="2.5" y1="303.833" x2="445.5" y2="303.833" stroke="white" stroke-width="3" stroke-linecap="round" stroke-dasharray="0.1 6"/>
<line x1="2.5" y1="403.389" x2="445.5" y2="403.389" stroke="white" stroke-width="3" stroke-linecap="round" stroke-dasharray="0.1 6"/>
<line x1="2.5" y1="310.056" x2="445.5" y2="310.056" stroke="white" stroke-width="3" stroke-linecap="round" stroke-dasharray="0.1 6"/>
<line x1="2.5" y1="409.611" x2="445.5" y2="409.611" stroke="white" stroke-width="3" stroke-linecap="round" stroke-dasharray="0.1 6"/>
<line x1="2.5" y1="316.278" x2="445.5" y2="316.278" stroke="white" stroke-width="3" stroke-linecap="round" stroke-dasharray="0.1 6"/>
<line x1="2.5" y1="415.833" x2="445.5" y2="415.833" stroke="white" stroke-width="3" stroke-linecap="round" stroke-dasharray="0.1 6"/>
<line x1="2.5" y1="322.5" x2="445.5" y2="322.5" stroke="white" stroke-width="3" stroke-linecap="round" stroke-dasharray="0.1 6"/>
<line x1="2.5" y1="422.056" x2="445.5" y2="422.056" stroke="white" stroke-width="3" stroke-linecap="round" stroke-dasharray="0.1 6"/>
<line x1="2.5" y1="328.722" x2="445.5" y2="328.722" stroke="white" stroke-width="3" stroke-linecap="round" stroke-dasharray="0.1 6"/>
<line x1="2.5" y1="334.944" x2="445.5" y2="334.944" stroke="white" stroke-width="3" stroke-linecap="round" stroke-dasharray="0.1 6"/>
</mask>
<g mask="url(#mask0_14_9896)">
<rect x="0.5" y="270.579" width="446.5" height="155.421" fill="url(#paint3_linear_14_9896)" fill-opacity="0.1"/>
</g>
<rect y="424" width="6" height="1.99536" fill="#00F2FF"/>
<rect x="441" y="424" width="6" height="1.99536" fill="#00F2FF"/>
</g>
<defs>
<linearGradient id="paint0_linear_14_9896" x1="223.5" y1="0" x2="223.5" y2="425.993" gradientUnits="userSpaceOnUse">
<stop stop-color="#006A70" stop-opacity="0"/>
<stop offset="1" stop-color="#0C8F96"/>
</linearGradient>
<radialGradient id="paint1_radial_14_9896" cx="0" cy="0" r="1" gradientUnits="userSpaceOnUse" gradientTransform="translate(223.5 425.992) rotate(-90) scale(425.992 674.005)">
<stop stop-color="#D6FDFF"/>
<stop offset="0.203125" stop-color="#85F9FF" stop-opacity="0.5"/>
<stop offset="0.416667" stop-color="#3BBAC0" stop-opacity="0.3"/>
<stop offset="0.625" stop-color="#036C72" stop-opacity="0.402674"/>
<stop offset="0.807292" stop-color="#023E41" stop-opacity="0.229301"/>
<stop offset="1" stop-opacity="0"/>
</radialGradient>
<linearGradient id="paint2_linear_14_9896" x1="223.5" y1="0" x2="223.5" y2="425.993" gradientUnits="userSpaceOnUse">
<stop stop-color="#00F2FF" stop-opacity="0"/>
<stop offset="1" stop-color="#00F2FF"/>
</linearGradient>
<linearGradient id="paint3_linear_14_9896" x1="223.75" y1="270.579" x2="223.75" y2="426" gradientUnits="userSpaceOnUse">
<stop stop-color="white" stop-opacity="0"/>
<stop offset="1" stop-color="white" stop-opacity="0.5"/>
</linearGradient>
<clipPath id="clip0_14_9896">
<rect width="447" height="426" fill="white"/>
</clipPath>
</defs>
</svg>
