<svg width="447" height="380" viewBox="0 0 447 380" fill="none" xmlns="http://www.w3.org/2000/svg">
<g clip-path="url(#clip0_139_414)">
<rect x="0.5" y="0.5" width="446" height="378.994" fill="url(#paint0_linear_139_414)" fill-opacity="0.15"/>
<rect x="0.5" y="0.5" width="446" height="378.994" fill="url(#paint1_radial_139_414)" fill-opacity="0.1"/>
<rect x="0.5" y="0.5" width="446" height="378.994" stroke="url(#paint2_linear_139_414)"/>
<mask id="mask0_139_414" style="mask-type:alpha" maskUnits="userSpaceOnUse" x="1" y="194" width="446" height="196">
<line x1="2.5" y1="195.611" x2="445.5" y2="195.611" stroke="white" stroke-width="3" stroke-linecap="round" stroke-dasharray="0.1 6"/>
<line x1="2.5" y1="295.167" x2="445.5" y2="295.167" stroke="white" stroke-width="3" stroke-linecap="round" stroke-dasharray="0.1 6"/>
<line x1="2.5" y1="201.833" x2="445.5" y2="201.833" stroke="white" stroke-width="3" stroke-linecap="round" stroke-dasharray="0.1 6"/>
<line x1="2.5" y1="301.389" x2="445.5" y2="301.389" stroke="white" stroke-width="3" stroke-linecap="round" stroke-dasharray="0.1 6"/>
<line x1="2.5" y1="208.056" x2="445.5" y2="208.056" stroke="white" stroke-width="3" stroke-linecap="round" stroke-dasharray="0.1 6"/>
<line x1="2.5" y1="307.611" x2="445.5" y2="307.611" stroke="white" stroke-width="3" stroke-linecap="round" stroke-dasharray="0.1 6"/>
<line x1="2.5" y1="214.278" x2="445.5" y2="214.278" stroke="white" stroke-width="3" stroke-linecap="round" stroke-dasharray="0.1 6"/>
<line x1="2.5" y1="313.833" x2="445.5" y2="313.833" stroke="white" stroke-width="3" stroke-linecap="round" stroke-dasharray="0.1 6"/>
<line x1="2.5" y1="220.5" x2="445.5" y2="220.5" stroke="white" stroke-width="3" stroke-linecap="round" stroke-dasharray="0.1 6"/>
<line x1="2.5" y1="320.056" x2="445.5" y2="320.056" stroke="white" stroke-width="3" stroke-linecap="round" stroke-dasharray="0.1 6"/>
<line x1="2.5" y1="226.722" x2="445.5" y2="226.722" stroke="white" stroke-width="3" stroke-linecap="round" stroke-dasharray="0.1 6"/>
<line x1="2.5" y1="326.278" x2="445.5" y2="326.278" stroke="white" stroke-width="3" stroke-linecap="round" stroke-dasharray="0.1 6"/>
<line x1="2.5" y1="232.944" x2="445.5" y2="232.944" stroke="white" stroke-width="3" stroke-linecap="round" stroke-dasharray="0.1 6"/>
<line x1="2.5" y1="332.5" x2="445.5" y2="332.5" stroke="white" stroke-width="3" stroke-linecap="round" stroke-dasharray="0.1 6"/>
<line x1="2.5" y1="239.167" x2="445.5" y2="239.167" stroke="white" stroke-width="3" stroke-linecap="round" stroke-dasharray="0.1 6"/>
<line x1="2.5" y1="338.722" x2="445.5" y2="338.722" stroke="white" stroke-width="3" stroke-linecap="round" stroke-dasharray="0.1 6"/>
<line x1="2.5" y1="245.389" x2="445.5" y2="245.389" stroke="white" stroke-width="3" stroke-linecap="round" stroke-dasharray="0.1 6"/>
<line x1="2.5" y1="344.944" x2="445.5" y2="344.944" stroke="white" stroke-width="3" stroke-linecap="round" stroke-dasharray="0.1 6"/>
<line x1="2.5" y1="251.611" x2="445.5" y2="251.611" stroke="white" stroke-width="3" stroke-linecap="round" stroke-dasharray="0.1 6"/>
<line x1="2.5" y1="351.167" x2="445.5" y2="351.167" stroke="white" stroke-width="3" stroke-linecap="round" stroke-dasharray="0.1 6"/>
<line x1="2.5" y1="257.833" x2="445.5" y2="257.833" stroke="white" stroke-width="3" stroke-linecap="round" stroke-dasharray="0.1 6"/>
<line x1="2.5" y1="357.389" x2="445.5" y2="357.389" stroke="white" stroke-width="3" stroke-linecap="round" stroke-dasharray="0.1 6"/>
<line x1="2.5" y1="264.056" x2="445.5" y2="264.056" stroke="white" stroke-width="3" stroke-linecap="round" stroke-dasharray="0.1 6"/>
<line x1="2.5" y1="363.611" x2="445.5" y2="363.611" stroke="white" stroke-width="3" stroke-linecap="round" stroke-dasharray="0.1 6"/>
<line x1="2.5" y1="270.278" x2="445.5" y2="270.278" stroke="white" stroke-width="3" stroke-linecap="round" stroke-dasharray="0.1 6"/>
<line x1="2.5" y1="369.833" x2="445.5" y2="369.833" stroke="white" stroke-width="3" stroke-linecap="round" stroke-dasharray="0.1 6"/>
<line x1="2.5" y1="276.5" x2="445.5" y2="276.5" stroke="white" stroke-width="3" stroke-linecap="round" stroke-dasharray="0.1 6"/>
<line x1="2.5" y1="376.056" x2="445.5" y2="376.056" stroke="white" stroke-width="3" stroke-linecap="round" stroke-dasharray="0.1 6"/>
<line x1="2.5" y1="282.722" x2="445.5" y2="282.722" stroke="white" stroke-width="3" stroke-linecap="round" stroke-dasharray="0.1 6"/>
<line x1="2.5" y1="288.944" x2="445.5" y2="288.944" stroke="white" stroke-width="3" stroke-linecap="round" stroke-dasharray="0.1 6"/>
</mask>
<g mask="url(#mask0_139_414)">
<rect x="0.5" y="224.579" width="446.5" height="155.421" fill="url(#paint3_linear_139_414)" fill-opacity="0.1"/>
</g>
<rect y="378" width="6" height="1.99536" fill="#00F2FF"/>
<rect x="441" y="378" width="6" height="1.99536" fill="#00F2FF"/>
</g>
<defs>
<linearGradient id="paint0_linear_139_414" x1="223.5" y1="0" x2="223.5" y2="379.994" gradientUnits="userSpaceOnUse">
<stop stop-color="#006A70" stop-opacity="0"/>
<stop offset="1" stop-color="#0C8F96"/>
</linearGradient>
<radialGradient id="paint1_radial_139_414" cx="0" cy="0" r="1" gradientUnits="userSpaceOnUse" gradientTransform="translate(223.5 379.993) rotate(-90) scale(379.993 674.005)">
<stop stop-color="#D6FDFF"/>
<stop offset="0.203125" stop-color="#85F9FF" stop-opacity="0.5"/>
<stop offset="0.416667" stop-color="#3BBAC0" stop-opacity="0.3"/>
<stop offset="0.625" stop-color="#036C72" stop-opacity="0.402674"/>
<stop offset="0.807292" stop-color="#023E41" stop-opacity="0.229301"/>
<stop offset="1" stop-opacity="0"/>
</radialGradient>
<linearGradient id="paint2_linear_139_414" x1="223.5" y1="0" x2="223.5" y2="379.994" gradientUnits="userSpaceOnUse">
<stop stop-color="#00F2FF" stop-opacity="0"/>
<stop offset="1" stop-color="#00F2FF"/>
</linearGradient>
<linearGradient id="paint3_linear_139_414" x1="223.75" y1="224.579" x2="223.75" y2="380" gradientUnits="userSpaceOnUse">
<stop stop-color="white" stop-opacity="0"/>
<stop offset="1" stop-color="white" stop-opacity="0.5"/>
</linearGradient>
<clipPath id="clip0_139_414">
<rect width="447" height="380" fill="white"/>
</clipPath>
</defs>
</svg>
