<svg width="63" height="80" viewBox="0 0 63 80" fill="none" xmlns="http://www.w3.org/2000/svg">
<rect y="0.166748" width="63" height="79.0833" fill="#045EA3" fill-opacity="0.5"/>
<line x1="0.8125" y1="4.70312" x2="0.8125" y2="0.166667" stroke="#1F9EFF"/>
<line y1="-0.5" x2="4.53646" y2="-0.5" transform="matrix(0 -1 -1 0 61.6875 4.70312)" stroke="#1F9EFF"/>
<line x1="62.1875" y1="74.7136" x2="62.1875" y2="79.2501" stroke="#1F9EFF"/>
<line y1="-0.5" x2="4.53646" y2="-0.5" transform="matrix(0 1 1 0 1.3125 74.7136)" stroke="#1F9EFF"/>
<line y1="0.75" x2="3.9375" y2="0.75" stroke="#1F9EFF"/>
<line y1="-0.5" x2="3.9375" y2="-0.5" transform="matrix(-1 0 0 1 63 1.25)" stroke="#1F9EFF"/>
<line x1="63" y1="78.6667" x2="59.0625" y2="78.6667" stroke="#1F9EFF"/>
<line y1="-0.5" x2="3.9375" y2="-0.5" transform="matrix(1 0 0 -1 0 78.1667)" stroke="#1F9EFF"/>
<path d="M15.564 59.6307L16.39 60.5547C13.52 61.0727 9.208 61.4087 5.582 61.5347C5.554 61.2407 5.428 60.8207 5.316 60.5547C8.9 60.4287 13.156 60.1067 15.564 59.6307ZM13.968 65.3847L13.142 64.9927C13.828 64.0827 14.682 62.5987 15.186 61.5487L16.222 61.9547C15.55 63.1167 14.682 64.4887 13.968 65.3847ZM11.658 64.2087L10.664 64.5307C10.566 63.8447 10.202 62.7807 9.796 61.9547L10.734 61.6747C11.168 62.4727 11.56 63.5227 11.658 64.2087ZM8.326 64.6707L7.374 65.0627C7.192 64.3627 6.646 63.2847 6.044 62.4867L6.94 62.1227C7.528 62.9067 8.116 63.9567 8.326 64.6707ZM17.132 66.9527H12.288C13.59 68.5207 15.634 70.0327 17.468 70.7747C17.23 70.9987 16.88 71.4047 16.698 71.6987C14.878 70.8307 12.876 69.2207 11.504 67.4847V72.2167H10.426V67.5407C9.068 69.2907 7.108 70.8447 5.302 71.7127C5.134 71.4327 4.784 71.0267 4.546 70.8027C6.38 70.0467 8.382 68.5487 9.642 66.9527H4.882V65.9447H10.426V64.6707H11.504V65.9447H17.132V66.9527ZM26.33 61.7027L25.364 62.1087C25.168 61.5067 24.664 60.5547 24.174 59.8547L25.084 59.5187C25.588 60.2047 26.12 61.1007 26.33 61.7027ZM23.236 66.2107L22.592 66.9667C22.396 66.5047 21.962 65.6787 21.584 64.9787V72.2307H20.59V65.8187C20.156 67.2187 19.596 68.5487 19.036 69.4027C18.924 69.1087 18.672 68.6467 18.49 68.4087C19.344 67.2327 20.17 65.0207 20.59 63.1167H18.826V62.1367H20.59V59.4487H21.584V62.1367H23.068V63.1167H21.584V63.6767C21.948 64.1807 22.998 65.8047 23.236 66.2107ZM31.216 67.9327V68.8987H27.758V72.2307H26.736V68.8987H23.068V67.9327H26.736V65.9587H24.034V64.9927H26.736V63.0887H23.586V62.1227H28.164C28.64 61.3527 29.172 60.2467 29.48 59.4207L30.516 59.7707C30.152 60.5547 29.69 61.4227 29.27 62.1227H30.922V63.0887H27.758V64.9927H30.488V65.9587H27.758V67.9327H31.216ZM40.708 59.3507L41.618 59.6867C41.534 59.8547 41.436 60.0227 41.338 60.2047C42.318 61.5487 44.04 63.0887 45.468 63.9427C45.272 64.1807 45.048 64.6007 44.936 64.8807C43.522 63.9287 41.926 62.4307 40.848 61.0307C39.812 62.6267 38.426 64.0267 36.998 65.0067C36.872 64.8107 36.578 64.3627 36.382 64.1807C38.118 63.0887 39.784 61.3247 40.708 59.3507ZM43.27 63.7747V64.6707H38.566V63.7747H43.27ZM41.674 68.9967L40.82 69.1507C40.75 68.2547 40.512 66.8687 40.26 65.8047L41.086 65.6927C41.338 66.7567 41.604 68.1147 41.674 68.9967ZM37.558 66.1967L38.384 65.9867C38.804 67.0367 39.196 68.4087 39.322 69.3187L38.468 69.5567C38.342 68.6327 37.978 67.2607 37.558 66.1967ZM37.068 66.1687L36.438 66.9107C36.27 66.4767 35.864 65.6787 35.5 65.0067V72.2307H34.534V65.5387C34.128 66.9807 33.582 68.3387 33.036 69.2067C32.924 68.9127 32.686 68.4507 32.504 68.2127C33.288 67.0647 34.072 64.9087 34.436 63.0607H32.742V62.0947H34.534V59.4487H35.5V62.0947H36.956V63.0607H35.5V63.6627C35.864 64.1807 36.844 65.7627 37.068 66.1687ZM43.746 65.6927L44.67 65.9447C44.068 67.4427 43.242 69.3327 42.514 70.6487H45.09V71.5727H36.816V70.6487H41.646C42.374 69.3187 43.27 67.1907 43.746 65.6927ZM52.804 69.8507L53.448 69.4587C54.148 70.1307 55.002 71.0687 55.38 71.6707L54.722 72.1327C54.33 71.5307 53.518 70.5507 52.804 69.8507ZM50.396 60.2747H55.072V68.9407H54.218V61.0727H51.222V68.9827H50.396V60.2747ZM58.096 59.6307H58.95V71.0267C58.95 71.6147 58.81 71.8667 58.474 72.0207C58.11 72.1747 57.508 72.2027 56.542 72.1887C56.5 71.9507 56.36 71.5727 56.234 71.3207C56.976 71.3347 57.62 71.3347 57.816 71.3207C58.012 71.3207 58.096 71.2507 58.096 71.0407V59.6307ZM56.192 60.7087H57.018V69.0247H56.192V60.7087ZM52.244 62.0667H53.042V66.9807C53.042 68.8427 52.65 70.9567 50.144 72.2167C50.06 72.0347 49.808 71.7127 49.654 71.5727C51.992 70.3827 52.244 68.6467 52.244 66.9807V62.0667ZM47.19 60.3447L47.806 59.6027C48.562 60.0087 49.57 60.6247 50.06 61.0587L49.43 61.8847C48.954 61.4367 47.974 60.7787 47.19 60.3447ZM46.588 64.0967L47.176 63.3687C47.946 63.7467 48.954 64.3347 49.472 64.7407L48.87 65.5667C48.366 65.1467 47.344 64.5307 46.588 64.0967ZM46.868 71.5167C47.414 70.4247 48.198 68.6327 48.744 67.0647L49.584 67.6107C49.08 69.0667 48.394 70.7887 47.806 72.0627L46.868 71.5167Z" fill="white"/>
<g filter="url(#filter0_b_277_370)">
<path d="M33.2602 4.50696C32.4746 4.05335 31.5065 4.05335 30.7209 4.50696L11.2696 15.7373C10.4841 16.1909 10 17.0292 10 17.9364V40.3971C10 41.3043 10.4841 42.1426 11.2696 42.5962L30.7209 53.8265C31.5065 54.2801 32.4746 54.2801 33.2602 53.8265L52.7115 42.5962C53.4971 42.1426 53.9811 41.3043 53.9811 40.3971V17.9364C53.9811 17.0292 53.4971 16.1909 52.7115 15.7373L33.2602 4.50696Z" fill="url(#paint0_linear_277_370)" fill-opacity="0.2"/>
<path d="M33.0102 4.93996L33.0102 4.93997L52.4615 16.1703C53.0924 16.5346 53.4811 17.2079 53.4811 17.9364V40.3971C53.4811 41.1256 53.0924 41.7989 52.4615 42.1632L33.0102 53.3935L33.2602 53.8265L33.0102 53.3935C32.3793 53.7578 31.6018 53.7578 30.971 53.3935L30.7209 53.8265L30.9709 53.3935L11.5197 42.1632C10.8887 41.7989 10.5 41.1256 10.5 40.3971V17.9364C10.5 17.2079 10.8887 16.5346 11.5196 16.1703C11.5196 16.1703 11.5197 16.1703 11.5197 16.1703L30.9709 4.93997L30.971 4.93996C31.6018 4.57568 32.3793 4.57568 33.0102 4.93996Z" stroke="url(#paint1_linear_277_370)" stroke-opacity="0.6"/>
</g>
<path d="M32.6727 8.44486L32.6727 8.44488L49.2936 18.0266C49.8103 18.3245 50.1282 18.8747 50.1282 19.4697V38.6331C50.1282 39.2281 49.8103 39.7783 49.2936 40.0762L32.6727 49.6579L32.9224 50.0911L32.6727 49.6579C32.156 49.9558 31.5191 49.9558 31.0024 49.6579L30.7527 50.0911L31.0024 49.6579L14.3815 40.0762C13.8648 39.7783 13.5469 39.2281 13.5469 38.6331V19.4697C13.5469 18.8747 13.8648 18.3245 14.3815 18.0266L31.0024 8.44488L31.0024 8.44486C31.5191 8.14696 32.156 8.14696 32.6727 8.44486Z" fill="url(#paint2_linear_277_370)" fill-opacity="0.4" stroke="url(#paint3_linear_277_370)"/>
<g filter="url(#filter1_d_277_370)">
<path fill-rule="evenodd" clip-rule="evenodd" d="M31.8398 18.1101C25.6225 18.1101 20.5898 23.1468 20.5898 29.3601C20.5898 35.5694 25.6225 40.6101 31.8398 40.6101C38.0491 40.6101 43.0858 35.5694 43.0858 29.3601C43.0858 23.1468 38.0491 18.1101 31.8398 18.1101ZM22.1734 30.6414C22.117 30.2224 22.0888 29.7953 22.0888 29.3601C22.0888 23.9769 26.4526 19.6131 31.8358 19.6131C37.2191 19.6131 41.5829 23.9769 41.5829 29.3601C41.5829 29.7953 41.5547 30.2224 41.4982 30.6414L38.3876 27.5308C38.2385 27.3817 38.0531 27.3092 37.8355 27.3132C37.626 27.3172 37.4447 27.3978 37.3037 27.5549L36.3326 28.6106L32.3677 24.6457C32.0776 24.3556 31.6021 24.3556 31.308 24.6457L27.339 28.6106L26.368 27.5549C26.2269 27.3978 26.0456 27.3172 25.8361 27.3132C25.6225 27.3092 25.4412 27.3817 25.2881 27.5308L22.1734 30.6414Z" fill="url(#paint4_radial_277_370)"/>
</g>
<defs>
<filter id="filter0_b_277_370" x="4" y="-1.83325" width="55.981" height="62" filterUnits="userSpaceOnUse" color-interpolation-filters="sRGB">
<feFlood flood-opacity="0" result="BackgroundImageFix"/>
<feGaussianBlur in="BackgroundImageFix" stdDeviation="3"/>
<feComposite in2="SourceAlpha" operator="in" result="effect1_backgroundBlur_277_370"/>
<feBlend mode="normal" in="SourceGraphic" in2="effect1_backgroundBlur_277_370" result="shape"/>
</filter>
<filter id="filter1_d_277_370" x="18.5898" y="18.1101" width="24.4961" height="24" filterUnits="userSpaceOnUse" color-interpolation-filters="sRGB">
<feFlood flood-opacity="0" result="BackgroundImageFix"/>
<feColorMatrix in="SourceAlpha" type="matrix" values="0 0 0 0 0 0 0 0 0 0 0 0 0 0 0 0 0 0 127 0" result="hardAlpha"/>
<feOffset dx="-2" dy="1.5"/>
<feComposite in2="hardAlpha" operator="out"/>
<feColorMatrix type="matrix" values="0 0 0 0 0 0 0 0 0 0.328194 0 0 0 0 0.579167 0 0 0 0.51 0"/>
<feBlend mode="normal" in2="BackgroundImageFix" result="effect1_dropShadow_277_370"/>
<feBlend mode="normal" in="SourceGraphic" in2="effect1_dropShadow_277_370" result="shape"/>
</filter>
<linearGradient id="paint0_linear_277_370" x1="10" y1="29.1667" x2="53.9811" y2="29.1667" gradientUnits="userSpaceOnUse">
<stop stop-color="#0091FF" stop-opacity="0.1"/>
<stop offset="1" stop-color="#0091FF"/>
</linearGradient>
<linearGradient id="paint1_linear_277_370" x1="10" y1="29.1667" x2="53.9811" y2="29.1667" gradientUnits="userSpaceOnUse">
<stop stop-color="#92D0FF"/>
<stop offset="1" stop-color="#0091FF" stop-opacity="0.3"/>
</linearGradient>
<linearGradient id="paint2_linear_277_370" x1="14.3187" y1="17.4814" x2="49.6186" y2="40.3642" gradientUnits="userSpaceOnUse">
<stop offset="0.208333" stop-color="#00518E"/>
<stop offset="0.494792" stop-color="#B8E0FF"/>
<stop offset="0.817708" stop-color="#003F70"/>
</linearGradient>
<linearGradient id="paint3_linear_277_370" x1="14.1413" y1="17.8361" x2="50.6282" y2="38.9452" gradientUnits="userSpaceOnUse">
<stop stop-color="#AEDCFF"/>
<stop offset="1" stop-color="#3798E1"/>
</linearGradient>
<radialGradient id="paint4_radial_277_370" cx="0" cy="0" r="1" gradientUnits="userSpaceOnUse" gradientTransform="translate(34.9858 23.2237) rotate(126.533) scale(12.0917 8.65039)">
<stop stop-color="#C9E8FF"/>
<stop offset="1" stop-color="#0091FF"/>
</radialGradient>
</defs>
</svg>
