<svg width="63" height="80" viewBox="0 0 63 80" fill="none" xmlns="http://www.w3.org/2000/svg">
<rect y="0.25" width="63" height="79.0833" fill="#A38604" fill-opacity="0.4"/>
<line x1="0.8125" y1="4.78638" x2="0.8125" y2="0.249918" stroke="#FFD61F"/>
<line y1="-0.5" x2="4.53646" y2="-0.5" transform="matrix(0 -1 -1 0 61.6875 4.78638)" stroke="#FFD61F"/>
<line x1="62.1875" y1="74.7969" x2="62.1875" y2="79.3333" stroke="#FFD61F"/>
<line y1="-0.5" x2="4.53646" y2="-0.5" transform="matrix(0 1 1 0 1.3125 74.7969)" stroke="#FFD61F"/>
<line y1="0.833252" x2="3.9375" y2="0.833252" stroke="#FFD61F"/>
<line y1="-0.5" x2="3.9375" y2="-0.5" transform="matrix(-1 0 0 1 63 1.33325)" stroke="#FFD61F"/>
<line x1="63" y1="78.75" x2="59.0625" y2="78.75" stroke="#FFD61F"/>
<line y1="-0.5" x2="3.9375" y2="-0.5" transform="matrix(1 0 0 -1 0 78.25)" stroke="#FFD61F"/>
<path d="M14.528 64.782H9.432C10.006 66.336 10.832 67.652 11.952 68.702C13.072 67.68 13.982 66.378 14.528 64.782ZM15.172 63.732L15.886 64.04C15.284 66.322 14.178 68.058 12.764 69.388C13.954 70.27 15.368 70.9 17.076 71.292C16.838 71.488 16.558 71.922 16.418 72.188C14.654 71.74 13.184 71.04 11.966 70.074C10.678 71.082 9.18 71.782 7.612 72.258C7.486 71.978 7.22 71.544 7.024 71.32C8.508 70.928 9.936 70.284 11.168 69.36C9.936 68.156 9.04 66.63 8.41 64.782H7.472C7.444 67.078 7.178 70.228 5.722 72.37C5.526 72.174 5.078 71.866 4.826 71.754C6.282 69.626 6.422 66.616 6.422 64.432V60.722C9.53 60.568 13.226 60.232 15.228 59.658L16.068 60.484C13.842 61.114 10.482 61.464 7.472 61.604V63.774H14.976L15.172 63.732ZM23.306 61.744V63.116H22.34V60.876H26.064C25.924 60.498 25.7 60.036 25.518 59.686L26.526 59.476C26.806 59.896 27.058 60.47 27.212 60.876H30.978V63.116H29.97V61.744H23.306ZM29.452 65.706H27.058V66.896H29.452V65.706ZM29.452 68.856V67.666H27.058V68.856H29.452ZM23.754 67.666V68.856H26.064V67.666H23.754ZM23.754 65.706V66.896H26.064V65.706H23.754ZM22.816 64.894H26.064V63.858H23.334V63.004H29.858V63.858H27.058V64.894H30.418V69.668H22.816V64.894ZM22.144 60.96L21.528 61.786C21.052 61.408 20.1 60.848 19.372 60.484L19.974 59.742C20.674 60.078 21.64 60.596 22.144 60.96ZM21.276 64.628L20.688 65.468C20.212 65.132 19.26 64.6 18.56 64.236L19.12 63.48C19.82 63.788 20.786 64.278 21.276 64.628ZM21.066 66.91L21.878 67.54C21.304 68.996 20.534 70.704 19.876 71.992L18.952 71.348C19.554 70.27 20.436 68.478 21.066 66.91ZM24.818 69.892L25.784 70.27C24.93 71.012 23.558 71.782 22.438 72.244C22.284 72.048 21.892 71.656 21.654 71.488C22.788 71.096 24.062 70.508 24.818 69.892ZM27.408 70.34L28.15 69.78C29.158 70.284 30.474 71.054 31.174 71.586L30.376 72.23C29.718 71.712 28.416 70.886 27.408 70.34ZM38.216 59.798L39.084 60.19C38.678 60.82 38.23 61.52 37.838 61.982L37.166 61.66C37.516 61.156 37.978 60.358 38.216 59.798ZM34.94 61.688L34.142 62.024C34.016 61.534 33.652 60.764 33.274 60.19L34.03 59.882C34.422 60.428 34.8 61.17 34.94 61.688ZM35.626 65.608V63.914C34.926 64.74 34.016 65.51 33.162 65.958C33.05 65.72 32.798 65.37 32.602 65.174C33.582 64.754 34.618 63.9 35.304 62.99H32.742V62.122H35.626V59.532H36.592V62.122H39.448V62.99H36.816C37.516 63.396 38.72 64.18 39.042 64.418L38.468 65.174C38.132 64.852 37.264 64.166 36.592 63.69V65.608H35.626ZM37.754 67.61H35.486C35.276 68.002 35.066 68.394 34.87 68.716C35.388 68.94 35.948 69.206 36.452 69.458C36.998 68.954 37.446 68.338 37.754 67.61ZM38.44 70.62L37.796 71.306C37.474 71.068 37.054 70.788 36.578 70.522C35.584 71.32 34.394 71.866 33.12 72.202C33.022 71.978 32.812 71.6 32.63 71.404C33.764 71.152 34.828 70.704 35.738 70.06C35.038 69.696 34.282 69.346 33.596 69.094C33.89 68.674 34.198 68.156 34.492 67.61H33.036V66.728H34.926C35.066 66.42 35.192 66.126 35.29 65.832L36.214 66C36.116 66.238 36.032 66.476 35.92 66.728H38.202L38.356 66.686L38.944 66.924C38.58 68.128 38.006 69.108 37.264 69.892C37.712 70.144 38.132 70.396 38.44 70.62ZM43.298 63.2H41.058C41.324 64.712 41.716 66.14 42.248 67.386C42.752 66.21 43.088 64.81 43.298 63.2ZM45.216 63.2H44.292C43.97 65.286 43.508 67.022 42.766 68.464C43.48 69.738 44.39 70.774 45.552 71.39C45.314 71.586 45.02 71.936 44.866 72.202C43.788 71.544 42.906 70.592 42.22 69.402C41.394 70.62 40.33 71.6 38.902 72.37C38.804 72.146 38.51 71.726 38.328 71.53C39.84 70.788 40.932 69.766 41.716 68.436C41.184 67.344 40.792 66.084 40.484 64.698C40.204 65.384 39.882 66 39.532 66.532C39.364 66.364 38.972 66.042 38.748 65.902C39.812 64.432 40.442 62.094 40.792 59.672L41.744 59.812C41.632 60.638 41.464 61.45 41.268 62.234H45.216V63.2ZM50.942 66.574L49.346 67.092V71.026C49.346 71.6 49.22 71.866 48.87 72.034C48.548 72.202 48.016 72.244 47.134 72.23C47.092 71.978 46.966 71.558 46.826 71.264C47.428 71.278 47.988 71.278 48.142 71.278C48.31 71.278 48.38 71.222 48.38 71.012V67.414C47.792 67.61 47.232 67.778 46.728 67.932L46.476 66.938C46.994 66.784 47.652 66.588 48.38 66.378V63.312H46.644V62.346H48.38V59.546H49.346V62.346H50.928V63.312H49.346V66.084L50.802 65.622L50.942 66.574ZM52.538 65.286H55.254V63.746H52.552V64.348C52.552 64.656 52.552 64.95 52.538 65.286ZM57.886 61.058H52.552V62.836H57.886V61.058ZM57.984 70.9V68.786H53.686V70.9H57.984ZM59.356 66.182H56.248V67.904H58.936V72.286H57.984V71.768H53.686V72.342H52.776V67.904H55.254V66.182H52.496C52.37 68.254 51.992 70.606 50.816 72.328C50.648 72.132 50.214 71.838 49.976 71.74C51.418 69.598 51.544 66.56 51.544 64.348V60.148H58.88V63.746H56.248V65.286H59.356V66.182Z" fill="white"/>
<g filter="url(#filter0_b_277_388)">
<path d="M33.2602 5.59021C32.4746 5.1366 31.5065 5.1366 30.7209 5.59021L11.2696 16.8206C10.4841 17.2742 10 18.1125 10 19.0196V41.4804C10 42.3875 10.4841 43.2258 11.2696 43.6794L30.7209 54.9098C31.5065 55.3634 32.4746 55.3634 33.2602 54.9098L52.7115 43.6794C53.4971 43.2258 53.9811 42.3875 53.9811 41.4804V19.0196C53.9811 18.1125 53.4971 17.2742 52.7115 16.8206L33.2602 5.59021Z" fill="url(#paint0_linear_277_388)" fill-opacity="0.2"/>
<path d="M33.0102 6.02321L33.0102 6.02322L52.4615 17.2536C53.0924 17.6179 53.4811 18.2911 53.4811 19.0196V41.4804C53.4811 42.2089 53.0924 42.8821 52.4615 43.2464L33.0102 54.4768L33.2602 54.9098L33.0102 54.4768C32.3793 54.8411 31.6018 54.8411 30.971 54.4768L30.7209 54.9098L30.9709 54.4768L11.5197 43.2464C10.8887 42.8821 10.5 42.2089 10.5 41.4804V19.0196C10.5 18.2911 10.8887 17.6179 11.5196 17.2536C11.5196 17.2536 11.5197 17.2536 11.5197 17.2536L30.9709 6.02322L30.971 6.02321C31.6018 5.65893 32.3793 5.65893 33.0102 6.02321Z" stroke="url(#paint1_linear_277_388)" stroke-opacity="0.6"/>
</g>
<path d="M32.6727 9.52812L32.6727 9.52813L49.2936 19.1098C49.8103 19.4077 50.1282 19.958 50.1282 20.5529V39.7164C50.1282 40.3113 49.8103 40.8616 49.2936 41.1594L32.6727 50.7412L32.9224 51.1743L32.6727 50.7412C32.156 51.0391 31.5191 51.0391 31.0024 50.7412L30.7527 51.1743L31.0024 50.7412L14.3815 41.1595C13.8648 40.8616 13.5469 40.3113 13.5469 39.7164V20.5529C13.5469 19.958 13.8648 19.4077 14.3815 19.1098L31.0024 9.52813L31.0024 9.52812C31.5191 9.23021 32.156 9.23021 32.6727 9.52812Z" fill="url(#paint2_linear_277_388)" fill-opacity="0.3" stroke="url(#paint3_linear_277_388)"/>
<g filter="url(#filter1_d_277_388)">
<path d="M33.075 27.1306L27.2746 30.7649V21.8018C27.2746 21.1335 26.7278 20.5869 26.0595 20.5869H21.1211C20.4528 20.5869 19.9062 21.1335 19.9062 21.8018V39.9485C19.9062 40.6167 20.4528 41.1633 21.1211 41.1633H42.1289C42.7972 41.1633 43.3438 40.6167 43.3438 39.9485V27.72C43.3438 27.3671 43.1912 27.0482 42.949 26.8257C42.3032 26.2518 41.7569 26.7381 41.1302 27.1306L35.3092 30.7771H35.2895V27.72C35.2895 27.6751 35.2867 27.6327 35.2816 27.5929C35.25 27.2911 35.1063 27.0211 34.8938 26.8257C34.2479 26.2518 33.7016 26.7381 33.075 27.1306Z" fill="url(#paint4_linear_277_388)"/>
</g>
<defs>
<filter id="filter0_b_277_388" x="4" y="-0.75" width="55.981" height="62" filterUnits="userSpaceOnUse" color-interpolation-filters="sRGB">
<feFlood flood-opacity="0" result="BackgroundImageFix"/>
<feGaussianBlur in="BackgroundImageFix" stdDeviation="3"/>
<feComposite in2="SourceAlpha" operator="in" result="effect1_backgroundBlur_277_388"/>
<feBlend mode="normal" in="SourceGraphic" in2="effect1_backgroundBlur_277_388" result="shape"/>
</filter>
<filter id="filter1_d_277_388" x="19.9062" y="17.5869" width="23.4375" height="23.5764" filterUnits="userSpaceOnUse" color-interpolation-filters="sRGB">
<feFlood flood-opacity="0" result="BackgroundImageFix"/>
<feColorMatrix in="SourceAlpha" type="matrix" values="0 0 0 0 0 0 0 0 0 0 0 0 0 0 0 0 0 0 127 0" result="hardAlpha"/>
<feOffset dy="-3"/>
<feComposite in2="hardAlpha" operator="out"/>
<feColorMatrix type="matrix" values="0 0 0 0 1 0 0 0 0 0.816667 0 0 0 0 0 0 0 0 0.3 0"/>
<feBlend mode="normal" in2="BackgroundImageFix" result="effect1_dropShadow_277_388"/>
<feBlend mode="normal" in="SourceGraphic" in2="effect1_dropShadow_277_388" result="shape"/>
</filter>
<linearGradient id="paint0_linear_277_388" x1="10" y1="30.25" x2="53.9811" y2="30.25" gradientUnits="userSpaceOnUse">
<stop stop-color="#FFD000" stop-opacity="0.1"/>
<stop offset="1" stop-color="#FFD000"/>
</linearGradient>
<linearGradient id="paint1_linear_277_388" x1="10" y1="30.25" x2="53.9811" y2="30.25" gradientUnits="userSpaceOnUse">
<stop stop-color="#FFEB92"/>
<stop offset="1" stop-color="#FFD000" stop-opacity="0.3"/>
</linearGradient>
<linearGradient id="paint2_linear_277_388" x1="14.3187" y1="18.5646" x2="49.6186" y2="41.4475" gradientUnits="userSpaceOnUse">
<stop offset="0.208333" stop-color="#8E7400"/>
<stop offset="0.494792" stop-color="#FFF2B8"/>
<stop offset="0.817708" stop-color="#705B00"/>
</linearGradient>
<linearGradient id="paint3_linear_277_388" x1="14.1413" y1="18.9194" x2="50.6282" y2="40.0284" gradientUnits="userSpaceOnUse">
<stop stop-color="#FFF0AE"/>
<stop offset="1" stop-color="#E1C237"/>
</linearGradient>
<linearGradient id="paint4_linear_277_388" x1="31.625" y1="20.5869" x2="31.625" y2="41.1634" gradientUnits="userSpaceOnUse">
<stop stop-color="#FFF2B7"/>
<stop offset="1" stop-color="#FFD000"/>
</linearGradient>
</defs>
</svg>
