<svg width="63" height="80" viewBox="0 0 63 80" fill="none" xmlns="http://www.w3.org/2000/svg">
<rect width="63" height="79.0833" fill="#046EA3" fill-opacity="0.4"/>
<line x1="0.812475" y1="4.53638" x2="0.812475" y2="-8.15392e-05" stroke="#1FC6FF"/>
<line y1="-0.5" x2="4.53646" y2="-0.5" transform="matrix(0 -1 -1 0 61.6875 4.53638)" stroke="#1FC6FF"/>
<line x1="62.1875" y1="74.5469" x2="62.1875" y2="79.0833" stroke="#1FC6FF"/>
<line y1="-0.5" x2="4.53646" y2="-0.5" transform="matrix(0 1 1 0 1.3125 74.5469)" stroke="#1FC6FF"/>
<line y1="0.583313" x2="3.9375" y2="0.583313" stroke="#1FC6FF"/>
<line y1="-0.5" x2="3.9375" y2="-0.5" transform="matrix(-1 0 0 1 63 1.08325)" stroke="#1FC6FF"/>
<line x1="63" y1="78.5" x2="59.0625" y2="78.5" stroke="#1FC6FF"/>
<line y1="-0.5" x2="3.9375" y2="-0.5" transform="matrix(1 0 0 -1 0 77.9999)" stroke="#1FC6FF"/>
<path d="M11.49 69.334V70.804H16.32V71.686H5.764V70.804H10.454V69.334H7.598V68.48H10.454V67.304H11.49V68.48H14.416V69.334H11.49ZM8.48 64.98V65.974H13.562V64.98H8.48ZM13.562 61.508H8.48V62.446H13.562V61.508ZM8.48 63.23V64.196H13.562V63.23H8.48ZM17.314 66.856H14.346C15.13 67.78 16.32 68.592 17.496 69.012C17.258 69.208 16.964 69.572 16.81 69.81C15.452 69.25 14.094 68.088 13.254 66.856H8.872C7.99 68.158 6.576 69.362 5.218 69.992C5.064 69.74 4.784 69.39 4.546 69.194C5.708 68.732 6.912 67.85 7.71 66.856H4.686V65.974H7.458V61.508H5.33V60.64H7.458V59.296H8.48V60.64H13.562V59.296H14.612V60.64H16.712V61.508H14.612V65.974H17.314V66.856ZM22.284 69.376V65.246H20.548V69.376H22.284ZM18.756 60.99V60.024H23.516V60.99H21.444C21.234 62.152 20.94 63.286 20.576 64.322H23.18V70.314H20.548V71.434H19.666V66.394C19.442 66.8 19.204 67.178 18.938 67.514C18.868 67.276 18.63 66.688 18.462 66.408C19.442 65.092 20.086 63.118 20.464 60.99H18.756ZM29.984 66.114L30.992 66.1V71.924H29.984V71.196H23.936V66.1H24.972V70.188H26.946V65.12H24.244V60.598H25.196V64.182H26.946V59.38H27.968V64.182H29.62V60.598H30.614V65.12H27.968V70.188H29.984V66.114ZM35.402 63.622V67.668C35.92 67.444 36.452 67.206 36.998 66.996L37.208 67.92C35.724 68.62 34.142 69.306 32.91 69.852L32.504 68.816C33.022 68.634 33.694 68.368 34.422 68.06V63.622H32.63V62.628H34.422V59.45H35.402V62.628H37.04V63.622H35.402ZM40.092 70.818H43.466C44.278 70.818 44.418 70.44 44.516 68.83C44.768 69.012 45.16 69.18 45.454 69.236C45.286 71.14 44.964 71.756 43.494 71.756H40.064C38.482 71.756 38.006 71.378 38.006 69.88V65.47L36.9 65.932L36.494 65.036L38.006 64.392V60.584H39V63.972L40.876 63.174V59.282H41.87V62.768L43.718 61.984L43.942 61.788L44.138 61.634L44.866 61.914L44.81 62.11C44.81 64.728 44.782 66.814 44.67 67.346C44.6 67.92 44.32 68.172 43.928 68.27C43.536 68.368 43.004 68.368 42.612 68.368C42.57 68.088 42.486 67.696 42.36 67.472C42.696 67.486 43.144 67.486 43.298 67.486C43.508 67.486 43.648 67.43 43.718 67.122C43.788 66.786 43.816 65.232 43.816 63.006L41.87 63.832V68.97H40.876V64.252L39 65.05V69.894C39 70.636 39.182 70.818 40.092 70.818ZM50.942 68.186L51.124 69.18C49.626 69.684 48.03 70.23 46.784 70.636L46.546 69.586C47.064 69.432 47.708 69.236 48.422 68.998V65.232H46.826V64.252H48.422V61.214H46.686V60.234H51.026V61.214H49.416V64.252H50.83V65.232H49.416V68.69L50.942 68.186ZM52.664 63.454V65.246H54.792V63.454H52.664ZM52.664 60.836V62.6H54.792V60.836H52.664ZM57.83 62.6V60.836H55.688V62.6H57.83ZM57.83 65.246V63.454H55.688V65.246H57.83ZM55.772 70.664H59.482V71.616H50.466V70.664H54.722V68.746H51.544V67.794H54.722V66.156H51.712V59.926H58.824V66.156H55.772V67.794H59.034V68.746H55.772V70.664Z" fill="white"/>
<g filter="url(#filter0_b_101_4215)">
<path d="M33.2602 5.34021C32.4746 4.8866 31.5065 4.8866 30.7209 5.34021L11.2696 16.5706C10.4841 17.0242 10 17.8625 10 18.7696V41.2304C10 42.1375 10.4841 42.9758 11.2696 43.4294L30.7209 54.6598C31.5065 55.1134 32.4746 55.1134 33.2602 54.6598L52.7115 43.4294C53.4971 42.9758 53.9811 42.1375 53.9811 41.2304V18.7696C53.9811 17.8625 53.4971 17.0242 52.7115 16.5706L33.2602 5.34021Z" fill="url(#paint0_linear_101_4215)" fill-opacity="0.2"/>
<path d="M33.0102 5.77321L33.0102 5.77322L52.4615 17.0036C53.0924 17.3679 53.4811 18.0411 53.4811 18.7696V41.2304C53.4811 41.9589 53.0924 42.6321 52.4615 42.9964L33.0102 54.2268L33.2602 54.6598L33.0102 54.2268C32.3793 54.5911 31.6018 54.5911 30.971 54.2268L30.7209 54.6598L30.9709 54.2268L11.5197 42.9964C10.8887 42.6321 10.5 41.9589 10.5 41.2304V18.7696C10.5 18.0411 10.8887 17.3679 11.5196 17.0036C11.5196 17.0036 11.5197 17.0036 11.5197 17.0036L30.9709 5.77322L30.971 5.77321C31.6018 5.40893 32.3793 5.40893 33.0102 5.77321Z" stroke="url(#paint1_linear_101_4215)" stroke-opacity="0.6"/>
</g>
<path d="M32.673 9.27812L32.673 9.27813L49.2938 18.8598C49.8105 19.1577 50.1285 19.708 50.1285 20.3029V39.4664C50.1285 40.0613 49.8105 40.6116 49.2939 40.9094L32.673 50.4912L32.9227 50.9243L32.673 50.4912C32.1562 50.7891 31.5194 50.7891 31.0026 50.4912L30.7529 50.9243L31.0026 50.4912L14.3817 40.9095C13.8651 40.6116 13.5471 40.0613 13.5471 39.4664V20.3029C13.5471 19.708 13.8651 19.1577 14.3817 18.8598L31.0026 9.27813L31.0026 9.27812C31.5194 8.98021 32.1562 8.98021 32.673 9.27812Z" fill="url(#paint2_linear_101_4215)" fill-opacity="0.3" stroke="url(#paint3_linear_101_4215)"/>
<g filter="url(#filter1_d_101_4215)">
<path fill-rule="evenodd" clip-rule="evenodd" d="M35.9653 40.6147C38.4732 39.2964 40.556 37.2018 41.8003 34.4833C43.571 30.5868 43.2473 26.2456 41.2971 22.6377C41.1411 22.3491 40.8213 22.2009 40.5014 22.275C39.4327 22.5129 38.403 22.8718 37.4279 23.3476C37.4513 23.3866 37.4747 23.4334 37.4981 23.4763C38.6487 25.5825 39.2572 27.9657 39.2572 30.3644C39.2572 32.7671 38.6487 35.1502 37.4981 37.2564C36.9521 38.2628 36.2851 39.1989 35.5284 40.0491C35.4114 40.1818 35.4036 40.3768 35.5128 40.5133C35.6181 40.6537 35.8092 40.6927 35.9653 40.6147ZM36.8623 23.8235C37.9584 25.8283 38.5356 28.0905 38.5356 30.3644C38.5356 32.6423 37.9584 34.9006 36.8623 36.9093C35.9809 38.5241 34.7678 39.9789 33.3169 41.1686C33.2077 41.2583 33.0634 41.2739 32.9307 41.2154C32.802 41.153 32.724 41.0281 32.724 40.8877C32.724 40.6537 32.724 40.4197 32.724 40.1857C32.724 34.2219 32.4432 28.9369 32.0024 25.6488C31.5617 28.9369 31.277 34.2219 31.277 40.1857C31.277 40.4197 31.277 40.6537 31.277 40.8877C31.277 41.0281 31.199 41.153 31.0702 41.2154C30.9415 41.2739 30.7972 41.2583 30.6841 41.1686C29.2332 39.9789 28.0201 38.5241 27.1386 36.9093C26.0504 34.9045 25.4654 32.6423 25.4654 30.3644C25.4654 28.0905 26.0465 25.8283 27.1386 23.8235C28.1956 21.885 29.7363 20.1766 31.589 18.8816C31.8386 18.7061 32.1702 18.7061 32.4198 18.8816C34.2686 20.1766 35.8053 21.885 36.8623 23.8235ZM26.5731 23.3437C25.6058 22.8679 24.5722 22.509 23.5035 22.2711C23.1797 22.197 22.8599 22.3452 22.7039 22.6338C20.7537 26.2456 20.426 30.5829 22.2046 34.4794C23.445 37.2018 25.5278 39.2925 28.0357 40.6108C28.1917 40.6927 28.3829 40.6498 28.4921 40.5094C28.6013 40.3729 28.5935 40.1779 28.4765 40.0452C27.7159 39.1949 27.0528 38.255 26.5068 37.2525C25.3562 35.1463 24.7477 32.7632 24.7477 30.3605C24.7477 27.9618 25.3562 25.5786 26.5068 23.4724C26.5224 23.4295 26.5458 23.3866 26.5731 23.3437Z" fill="url(#paint4_radial_101_4215)"/>
</g>
<defs>
<filter id="filter0_b_101_4215" x="4" y="-1" width="55.9811" height="62" filterUnits="userSpaceOnUse" color-interpolation-filters="sRGB">
<feFlood flood-opacity="0" result="BackgroundImageFix"/>
<feGaussianBlur in="BackgroundImageFix" stdDeviation="3"/>
<feComposite in2="SourceAlpha" operator="in" result="effect1_backgroundBlur_101_4215"/>
<feBlend mode="normal" in="SourceGraphic" in2="effect1_backgroundBlur_101_4215" result="shape"/>
</filter>
<filter id="filter1_d_101_4215" x="19.0388" y="18.75" width="23.9224" height="24" filterUnits="userSpaceOnUse" color-interpolation-filters="sRGB">
<feFlood flood-opacity="0" result="BackgroundImageFix"/>
<feColorMatrix in="SourceAlpha" type="matrix" values="0 0 0 0 0 0 0 0 0 0 0 0 0 0 0 0 0 0 127 0" result="hardAlpha"/>
<feOffset dx="-2" dy="1.5"/>
<feComposite in2="hardAlpha" operator="out"/>
<feColorMatrix type="matrix" values="0 0 0 0 0 0 0 0 0 0.65 0 0 0 0 0.866667 0 0 0 0.81 0"/>
<feBlend mode="normal" in2="BackgroundImageFix" result="effect1_dropShadow_101_4215"/>
<feBlend mode="normal" in="SourceGraphic" in2="effect1_dropShadow_101_4215" result="shape"/>
</filter>
<linearGradient id="paint0_linear_101_4215" x1="10" y1="30" x2="53.9811" y2="30" gradientUnits="userSpaceOnUse">
<stop stop-color="#0066FF" stop-opacity="0.1"/>
<stop offset="1" stop-color="#0091FF"/>
</linearGradient>
<linearGradient id="paint1_linear_101_4215" x1="10" y1="30" x2="53.9811" y2="30" gradientUnits="userSpaceOnUse">
<stop stop-color="#92E5FF"/>
<stop offset="1" stop-color="#0047FF" stop-opacity="0.3"/>
</linearGradient>
<linearGradient id="paint2_linear_101_4215" x1="14.3189" y1="18.3146" x2="49.6189" y2="41.1975" gradientUnits="userSpaceOnUse">
<stop offset="0.208333" stop-color="#005B8E"/>
<stop offset="0.494792" stop-color="#B8DDFF"/>
<stop offset="0.817708" stop-color="#001F70"/>
</linearGradient>
<linearGradient id="paint3_linear_101_4215" x1="14.1415" y1="18.6694" x2="50.6284" y2="39.7784" gradientUnits="userSpaceOnUse">
<stop stop-color="#AEE2FF"/>
<stop offset="1" stop-color="#3771E1"/>
</linearGradient>
<radialGradient id="paint4_radial_101_4215" cx="0" cy="0" r="1" gradientUnits="userSpaceOnUse" gradientTransform="translate(35.0677 23.8636) rotate(125.827) scale(11.9834 8.50604)">
<stop stop-color="#DDF7FF"/>
<stop offset="1" stop-color="#42D0FF"/>
</radialGradient>
</defs>
</svg>
