<svg width="63" height="80" viewBox="0 0 63 80" fill="none" xmlns="http://www.w3.org/2000/svg">
<rect width="63" height="79.0833" fill="#A38604" fill-opacity="0.4"/>
<line x1="0.8125" y1="4.53638" x2="0.8125" y2="-8.15392e-05" stroke="#FFD61F"/>
<line y1="-0.5" x2="4.53646" y2="-0.5" transform="matrix(0 -1 -1 0 61.6875 4.53638)" stroke="#FFD61F"/>
<line x1="62.1875" y1="74.5469" x2="62.1875" y2="79.0833" stroke="#FFD61F"/>
<line y1="-0.5" x2="4.53646" y2="-0.5" transform="matrix(0 1 1 0 1.3125 74.5469)" stroke="#FFD61F"/>
<line y1="0.583252" x2="3.9375" y2="0.583252" stroke="#FFD61F"/>
<line y1="-0.5" x2="3.9375" y2="-0.5" transform="matrix(-1 0 0 1 63 1.08325)" stroke="#FFD61F"/>
<line x1="63" y1="78.5" x2="59.0625" y2="78.5" stroke="#FFD61F"/>
<line y1="-0.5" x2="3.9375" y2="-0.5" transform="matrix(1 0 0 -1 0 78)" stroke="#FFD61F"/>
<path d="M11.49 69.334V70.804H16.32V71.686H5.764V70.804H10.454V69.334H7.598V68.48H10.454V67.304H11.49V68.48H14.416V69.334H11.49ZM8.48 64.98V65.974H13.562V64.98H8.48ZM13.562 61.508H8.48V62.446H13.562V61.508ZM8.48 63.23V64.196H13.562V63.23H8.48ZM17.314 66.856H14.346C15.13 67.78 16.32 68.592 17.496 69.012C17.258 69.208 16.964 69.572 16.81 69.81C15.452 69.25 14.094 68.088 13.254 66.856H8.872C7.99 68.158 6.576 69.362 5.218 69.992C5.064 69.74 4.784 69.39 4.546 69.194C5.708 68.732 6.912 67.85 7.71 66.856H4.686V65.974H7.458V61.508H5.33V60.64H7.458V59.296H8.48V60.64H13.562V59.296H14.612V60.64H16.712V61.508H14.612V65.974H17.314V66.856ZM22.284 69.376V65.246H20.548V69.376H22.284ZM18.756 60.99V60.024H23.516V60.99H21.444C21.234 62.152 20.94 63.286 20.576 64.322H23.18V70.314H20.548V71.434H19.666V66.394C19.442 66.8 19.204 67.178 18.938 67.514C18.868 67.276 18.63 66.688 18.462 66.408C19.442 65.092 20.086 63.118 20.464 60.99H18.756ZM29.984 66.114L30.992 66.1V71.924H29.984V71.196H23.936V66.1H24.972V70.188H26.946V65.12H24.244V60.598H25.196V64.182H26.946V59.38H27.968V64.182H29.62V60.598H30.614V65.12H27.968V70.188H29.984V66.114ZM35.402 63.622V67.668C35.92 67.444 36.452 67.206 36.998 66.996L37.208 67.92C35.724 68.62 34.142 69.306 32.91 69.852L32.504 68.816C33.022 68.634 33.694 68.368 34.422 68.06V63.622H32.63V62.628H34.422V59.45H35.402V62.628H37.04V63.622H35.402ZM40.092 70.818H43.466C44.278 70.818 44.418 70.44 44.516 68.83C44.768 69.012 45.16 69.18 45.454 69.236C45.286 71.14 44.964 71.756 43.494 71.756H40.064C38.482 71.756 38.006 71.378 38.006 69.88V65.47L36.9 65.932L36.494 65.036L38.006 64.392V60.584H39V63.972L40.876 63.174V59.282H41.87V62.768L43.718 61.984L43.942 61.788L44.138 61.634L44.866 61.914L44.81 62.11C44.81 64.728 44.782 66.814 44.67 67.346C44.6 67.92 44.32 68.172 43.928 68.27C43.536 68.368 43.004 68.368 42.612 68.368C42.57 68.088 42.486 67.696 42.36 67.472C42.696 67.486 43.144 67.486 43.298 67.486C43.508 67.486 43.648 67.43 43.718 67.122C43.788 66.786 43.816 65.232 43.816 63.006L41.87 63.832V68.97H40.876V64.252L39 65.05V69.894C39 70.636 39.182 70.818 40.092 70.818ZM50.942 68.186L51.124 69.18C49.626 69.684 48.03 70.23 46.784 70.636L46.546 69.586C47.064 69.432 47.708 69.236 48.422 68.998V65.232H46.826V64.252H48.422V61.214H46.686V60.234H51.026V61.214H49.416V64.252H50.83V65.232H49.416V68.69L50.942 68.186ZM52.664 63.454V65.246H54.792V63.454H52.664ZM52.664 60.836V62.6H54.792V60.836H52.664ZM57.83 62.6V60.836H55.688V62.6H57.83ZM57.83 65.246V63.454H55.688V65.246H57.83ZM55.772 70.664H59.482V71.616H50.466V70.664H54.722V68.746H51.544V67.794H54.722V66.156H51.712V59.926H58.824V66.156H55.772V67.794H59.034V68.746H55.772V70.664Z" fill="white"/>
<g filter="url(#filter0_b_277_333)">
<path d="M33.2602 5.34021C32.4746 4.8866 31.5065 4.8866 30.7209 5.34021L11.2696 16.5706C10.4841 17.0242 10 17.8625 10 18.7696V41.2304C10 42.1375 10.4841 42.9758 11.2696 43.4294L30.7209 54.6598C31.5065 55.1134 32.4746 55.1134 33.2602 54.6598L52.7115 43.4294C53.4971 42.9758 53.9811 42.1375 53.9811 41.2304V18.7696C53.9811 17.8625 53.4971 17.0242 52.7115 16.5706L33.2602 5.34021Z" fill="url(#paint0_linear_277_333)" fill-opacity="0.2"/>
<path d="M33.0102 5.77321L33.0102 5.77322L52.4615 17.0036C53.0924 17.3679 53.4811 18.0411 53.4811 18.7696V41.2304C53.4811 41.9589 53.0924 42.6321 52.4615 42.9964L33.0102 54.2268L33.2602 54.6598L33.0102 54.2268C32.3793 54.5911 31.6018 54.5911 30.971 54.2268L30.7209 54.6598L30.9709 54.2268L11.5197 42.9964C10.8887 42.6321 10.5 41.9589 10.5 41.2304V18.7696C10.5 18.0411 10.8887 17.3679 11.5196 17.0036C11.5196 17.0036 11.5197 17.0036 11.5197 17.0036L30.9709 5.77322L30.971 5.77321C31.6018 5.40893 32.3793 5.40893 33.0102 5.77321Z" stroke="url(#paint1_linear_277_333)" stroke-opacity="0.6"/>
</g>
<path d="M32.6727 9.27812L32.6727 9.27813L49.2936 18.8598C49.8103 19.1577 50.1282 19.708 50.1282 20.3029V39.4664C50.1282 40.0613 49.8103 40.6116 49.2936 40.9094L32.6727 50.4912L32.9224 50.9243L32.6727 50.4912C32.156 50.7891 31.5191 50.7891 31.0024 50.4912L30.7527 50.9243L31.0024 50.4912L14.3815 40.9095C13.8648 40.6116 13.5469 40.0613 13.5469 39.4664V20.3029C13.5469 19.708 13.8648 19.1577 14.3815 18.8598L31.0024 9.27813L31.0024 9.27812C31.5191 8.98021 32.156 8.98021 32.6727 9.27812Z" fill="url(#paint2_linear_277_333)" fill-opacity="0.3" stroke="url(#paint3_linear_277_333)"/>
<g filter="url(#filter1_d_277_333)">
<path fill-rule="evenodd" clip-rule="evenodd" d="M35.9655 40.6147C38.4734 39.2964 40.5562 37.2018 41.8005 34.4833C43.5713 30.5868 43.2475 26.2456 41.2973 22.6377C41.1413 22.3491 40.8215 22.2009 40.5016 22.275C39.4329 22.5129 38.4032 22.8718 37.4281 23.3476C37.4515 23.3866 37.4749 23.4334 37.4983 23.4763C38.6489 25.5825 39.2574 27.9657 39.2574 30.3644C39.2574 32.7671 38.6489 35.1502 37.4983 37.2564C36.9523 38.2628 36.2853 39.1989 35.5286 40.0491C35.4116 40.1818 35.4038 40.3768 35.513 40.5133C35.6183 40.6537 35.8095 40.6927 35.9655 40.6147ZM36.8626 23.8235C37.9586 25.8283 38.5358 28.0905 38.5358 30.3644C38.5358 32.6423 37.9586 34.9006 36.8626 36.9093C35.9811 38.5241 34.768 39.9789 33.3171 41.1686C33.2079 41.2583 33.0636 41.2739 32.931 41.2154C32.8022 41.153 32.7242 41.0281 32.7242 40.8877C32.7242 40.6537 32.7242 40.4197 32.7242 40.1857C32.7242 34.2219 32.4434 28.9369 32.0027 25.6488C31.5619 28.9369 31.2772 34.2219 31.2772 40.1857C31.2772 40.4197 31.2772 40.6537 31.2772 40.8877C31.2772 41.0281 31.1992 41.153 31.0705 41.2154C30.9417 41.2739 30.7974 41.2583 30.6843 41.1686C29.2334 39.9789 28.0203 38.5241 27.1389 36.9093C26.0506 34.9045 25.4656 32.6423 25.4656 30.3644C25.4656 28.0905 26.0467 25.8283 27.1389 23.8235C28.1959 21.885 29.7365 20.1766 31.5892 18.8816C31.8388 18.7061 32.1704 18.7061 32.42 18.8816C34.2688 20.1766 35.8056 21.885 36.8626 23.8235ZM26.5733 23.3437C25.606 22.8679 24.5724 22.509 23.5037 22.2711C23.1799 22.197 22.8601 22.3452 22.7041 22.6338C20.7539 26.2456 20.4263 30.5829 22.2048 34.4794C23.4452 37.2018 25.528 39.2925 28.0359 40.6108C28.192 40.6927 28.3831 40.6498 28.4923 40.5094C28.6015 40.3729 28.5937 40.1779 28.4767 40.0452C27.7161 39.1949 27.053 38.255 26.507 37.2525C25.3564 35.1463 24.7479 32.7632 24.7479 30.3605C24.7479 27.9618 25.3564 25.5786 26.507 23.4724C26.5226 23.4295 26.546 23.3866 26.5733 23.3437Z" fill="url(#paint4_radial_277_333)"/>
</g>
<defs>
<filter id="filter0_b_277_333" x="4" y="-1" width="55.981" height="62" filterUnits="userSpaceOnUse" color-interpolation-filters="sRGB">
<feFlood flood-opacity="0" result="BackgroundImageFix"/>
<feGaussianBlur in="BackgroundImageFix" stdDeviation="3"/>
<feComposite in2="SourceAlpha" operator="in" result="effect1_backgroundBlur_277_333"/>
<feBlend mode="normal" in="SourceGraphic" in2="effect1_backgroundBlur_277_333" result="shape"/>
</filter>
<filter id="filter1_d_277_333" x="19.0391" y="18.75" width="23.9224" height="24" filterUnits="userSpaceOnUse" color-interpolation-filters="sRGB">
<feFlood flood-opacity="0" result="BackgroundImageFix"/>
<feColorMatrix in="SourceAlpha" type="matrix" values="0 0 0 0 0 0 0 0 0 0 0 0 0 0 0 0 0 0 127 0" result="hardAlpha"/>
<feOffset dx="-2" dy="1.5"/>
<feComposite in2="hardAlpha" operator="out"/>
<feColorMatrix type="matrix" values="0 0 0 0 0.866667 0 0 0 0 0.707778 0 0 0 0 0 0 0 0 0.81 0"/>
<feBlend mode="normal" in2="BackgroundImageFix" result="effect1_dropShadow_277_333"/>
<feBlend mode="normal" in="SourceGraphic" in2="effect1_dropShadow_277_333" result="shape"/>
</filter>
<linearGradient id="paint0_linear_277_333" x1="10" y1="30" x2="53.9811" y2="30" gradientUnits="userSpaceOnUse">
<stop stop-color="#FFD000" stop-opacity="0.1"/>
<stop offset="1" stop-color="#FFD000"/>
</linearGradient>
<linearGradient id="paint1_linear_277_333" x1="10" y1="30" x2="53.9811" y2="30" gradientUnits="userSpaceOnUse">
<stop stop-color="#FFEB92"/>
<stop offset="1" stop-color="#FFD000" stop-opacity="0.3"/>
</linearGradient>
<linearGradient id="paint2_linear_277_333" x1="14.3187" y1="18.3146" x2="49.6186" y2="41.1975" gradientUnits="userSpaceOnUse">
<stop offset="0.208333" stop-color="#8E7400"/>
<stop offset="0.494792" stop-color="#FFF2B8"/>
<stop offset="0.817708" stop-color="#705B00"/>
</linearGradient>
<linearGradient id="paint3_linear_277_333" x1="14.1413" y1="18.6694" x2="50.6282" y2="39.7784" gradientUnits="userSpaceOnUse">
<stop stop-color="#FFF0AE"/>
<stop offset="1" stop-color="#E1C237"/>
</linearGradient>
<radialGradient id="paint4_radial_277_333" cx="0" cy="0" r="1" gradientUnits="userSpaceOnUse" gradientTransform="translate(35.0679 23.8636) rotate(125.827) scale(11.9834 8.50604)">
<stop stop-color="#FFF9DD"/>
<stop offset="1" stop-color="#FFDC42"/>
</radialGradient>
</defs>
</svg>
