<svg width="63" height="80" viewBox="0 0 63 80" fill="none" xmlns="http://www.w3.org/2000/svg">
<rect y="0.333252" width="63" height="79.0833" fill="#A38604" fill-opacity="0.4"/>
<line x1="0.8125" y1="4.86963" x2="0.8125" y2="0.33317" stroke="#FFD61F"/>
<line y1="-0.5" x2="4.53646" y2="-0.5" transform="matrix(0 -1 -1 0 61.6875 4.86963)" stroke="#FFD61F"/>
<line x1="62.1875" y1="74.8801" x2="62.1875" y2="79.4166" stroke="#FFD61F"/>
<line y1="-0.5" x2="4.53646" y2="-0.5" transform="matrix(0 1 1 0 1.3125 74.8801)" stroke="#FFD61F"/>
<line y1="0.916504" x2="3.9375" y2="0.916504" stroke="#FFD61F"/>
<line y1="-0.5" x2="3.9375" y2="-0.5" transform="matrix(-1 0 0 1 63 1.4165)" stroke="#FFD61F"/>
<line x1="63" y1="78.8333" x2="59.0625" y2="78.8333" stroke="#FFD61F"/>
<line y1="-0.5" x2="3.9375" y2="-0.5" transform="matrix(1 0 0 -1 0 78.3333)" stroke="#FFD61F"/>
<path d="M11.518 70.7733H17.244V71.7953H4.784V70.7733H10.426V65.1313H5.666V64.1093H10.426V59.6713H11.518V64.1093H16.348V65.1313H11.518V70.7733ZM21.402 63.9553V68.0013C21.92 67.7773 22.452 67.5393 22.998 67.3293L23.208 68.2533C21.724 68.9533 20.142 69.6393 18.91 70.1853L18.504 69.1493C19.022 68.9673 19.694 68.7013 20.422 68.3933V63.9553H18.63V62.9613H20.422V59.7833H21.402V62.9613H23.04V63.9553H21.402ZM26.092 71.1513H29.466C30.278 71.1513 30.418 70.7733 30.516 69.1633C30.768 69.3453 31.16 69.5133 31.454 69.5693C31.286 71.4733 30.964 72.0893 29.494 72.0893H26.064C24.482 72.0893 24.006 71.7113 24.006 70.2133V65.8033L22.9 66.2653L22.494 65.3693L24.006 64.7253V60.9173H25V64.3053L26.876 63.5073V59.6153H27.87V63.1013L29.718 62.3173L29.942 62.1213L30.138 61.9673L30.866 62.2473L30.81 62.4433C30.81 65.0613 30.782 67.1473 30.67 67.6793C30.6 68.2533 30.32 68.5053 29.928 68.6033C29.536 68.7013 29.004 68.7013 28.612 68.7013C28.57 68.4213 28.486 68.0293 28.36 67.8053C28.696 67.8193 29.144 67.8193 29.298 67.8193C29.508 67.8193 29.648 67.7633 29.718 67.4553C29.788 67.1193 29.816 65.5653 29.816 63.3393L27.87 64.1653V69.3033H26.876V64.5853L25 65.3833V70.2273C25 70.9693 25.182 71.1513 26.092 71.1513ZM36.774 61.2393V63.8153H39.644V64.7813H36.774V65.1593C37.446 65.7893 39.056 67.3993 39.476 67.8193L38.86 68.6733C38.44 68.1413 37.502 67.1193 36.774 66.3353V72.3833H35.738V66.3773C35.01 67.9733 34.03 69.5273 33.092 70.4793C32.966 70.1993 32.7 69.7653 32.518 69.4993C33.638 68.4493 34.856 66.5313 35.528 64.7813H32.798V63.8153H35.738V61.4353C34.828 61.6173 33.918 61.7573 33.05 61.8833C33.008 61.6313 32.854 61.2813 32.728 61.0573C34.786 60.7493 37.194 60.2733 38.51 59.6993L39.28 60.4973C38.594 60.7633 37.712 61.0153 36.774 61.2393ZM41.758 61.2813V68.9533H40.736V61.2813H41.758ZM43.704 59.7833H44.726V70.9553C44.726 71.6693 44.53 71.9773 44.096 72.1453C43.648 72.3273 42.878 72.3553 41.604 72.3553C41.534 72.0753 41.38 71.5853 41.226 71.3053C42.192 71.3333 43.074 71.3193 43.34 71.3193C43.592 71.3053 43.704 71.2353 43.704 70.9553V59.7833ZM53.588 67.1473H57.354V64.8233H53.588V67.1473ZM49.15 67.1473H52.552V64.8233H49.206V65.6493C49.206 66.1113 49.192 66.6293 49.15 67.1473ZM52.552 61.6033H49.206V63.8433H52.552V61.6033ZM57.354 63.8433V61.6033H53.588V63.8433H57.354ZM58.376 60.6093V70.9973C58.376 71.6693 58.194 71.9773 57.746 72.1593C57.27 72.3273 56.458 72.3413 55.142 72.3273C55.1 72.0473 54.932 71.5993 54.792 71.3193C55.772 71.3613 56.724 71.3473 56.976 71.3473C57.256 71.3333 57.354 71.2493 57.354 70.9833V68.1413H53.588V72.2713H52.552V68.1413H49.052C48.842 69.6953 48.366 71.2913 47.302 72.4813C47.148 72.2713 46.728 71.9213 46.504 71.7953C48.044 70.0593 48.184 67.5953 48.184 65.6493V60.6093H58.376Z" fill="white"/>
<g filter="url(#filter0_b_277_406)">
<path d="M33.2602 4.67346C32.4746 4.21985 31.5065 4.21985 30.7209 4.67346L11.2696 15.9038C10.4841 16.3574 10 17.1957 10 18.1029V40.5636C10 41.4708 10.4841 42.3091 11.2696 42.7627L30.7209 53.993C31.5065 54.4467 32.4746 54.4467 33.2602 53.993L52.7115 42.7627C53.4971 42.3091 53.9811 41.4708 53.9811 40.5636V18.1029C53.9811 17.1957 53.4971 16.3574 52.7115 15.9038L33.2602 4.67346Z" fill="url(#paint0_linear_277_406)" fill-opacity="0.2"/>
<path d="M33.0102 5.10646L33.0102 5.10647L52.4615 16.3368C53.0924 16.7011 53.4811 17.3744 53.4811 18.1029V40.5636C53.4811 41.2921 53.0924 41.9654 52.4615 42.3297L33.0102 53.56L33.2602 53.993L33.0102 53.56C32.3793 53.9243 31.6018 53.9243 30.971 53.56L30.7209 53.993L30.9709 53.56L11.5197 42.3297C10.8887 41.9654 10.5 41.2921 10.5 40.5636V18.1029C10.5 17.3744 10.8887 16.7011 11.5196 16.3368C11.5196 16.3368 11.5197 16.3368 11.5197 16.3368L30.9709 5.10647L30.971 5.10646C31.6018 4.74218 32.3793 4.74218 33.0102 5.10646Z" stroke="url(#paint1_linear_277_406)" stroke-opacity="0.6"/>
</g>
<path d="M32.6727 8.61137L32.6727 8.61138L49.2936 18.1931C49.8103 18.491 50.1282 19.0412 50.1282 19.6362V38.7996C50.1282 39.3946 49.8103 39.9448 49.2936 40.2427L32.6727 49.8244L32.9224 50.2576L32.6727 49.8244C32.156 50.1223 31.5191 50.1223 31.0024 49.8244L30.7527 50.2576L31.0024 49.8244L14.3815 40.2427C13.8648 39.9448 13.5469 39.3946 13.5469 38.7996V19.6362C13.5469 19.0412 13.8648 18.491 14.3815 18.1931L31.0024 8.61138L31.0024 8.61137C31.5191 8.31346 32.156 8.31346 32.6727 8.61137Z" fill="url(#paint2_linear_277_406)" fill-opacity="0.3" stroke="url(#paint3_linear_277_406)"/>
<g filter="url(#filter1_d_277_406)">
<path d="M31.8196 40.7766C25.6193 40.7697 20.5947 35.7369 20.5879 29.5266C21.0301 29.6517 21.4874 29.7156 21.9469 29.7167C23.4671 29.7278 24.8954 28.9886 25.7657 27.7401C26.5438 26.6146 26.7082 25.1739 26.2037 23.9016C26.5263 23.9592 26.8532 23.9886 27.1809 23.9893C28.6375 24.0002 30.02 23.347 30.9379 22.2141C31.8361 21.1147 32.1873 19.6662 31.8926 18.2766C38.0957 18.2968 43.1079 23.3499 43.0878 29.5631C43.0676 35.7763 38.0227 40.7967 31.8196 40.7766ZM32.6766 36.9155C32.8493 36.9899 33.0355 37.0282 33.2235 37.028C33.7911 37.0275 34.3027 36.6849 34.5201 36.1598C34.7376 35.6346 34.6182 35.03 34.2175 34.6273C33.9535 34.3639 33.5962 34.2159 33.2235 34.2155C32.557 34.2171 31.9834 34.6878 31.8509 35.3421C31.7183 35.9964 32.0633 36.6539 32.6766 36.9155ZM26.1139 35.0109C26.3389 35.1041 26.5802 35.1519 26.8237 35.1515C27.5836 35.1513 28.268 34.6911 28.556 33.9868C28.8439 33.2824 28.6782 32.4736 28.1367 31.9397C27.7866 31.5944 27.315 31.4008 26.8237 31.4008C25.7904 31.402 24.9531 32.2411 24.9525 33.2762C24.9527 34.0285 25.4008 34.7083 26.0914 35.0041H26.097H26.1094L26.1139 35.0109ZM36.7065 32.1905C37.4614 32.5081 38.3348 32.2971 38.8623 31.6698C39.3897 31.0425 39.4487 30.1446 39.0079 29.4534C38.8698 29.2382 38.6894 29.0533 38.4777 28.9101C37.8963 28.5168 37.1442 28.4821 36.5292 28.8202C35.9141 29.1582 35.5394 29.8123 35.5583 30.5148C35.5772 31.2172 35.9866 31.8501 36.6189 32.1545H36.6054L36.6391 32.1692L36.6616 32.1782H36.6548C36.6708 32.1833 36.6866 32.1893 36.702 32.1962L36.7065 32.1905ZM31.8196 27.6512C31.3716 27.6504 30.9858 27.9675 30.899 28.4077C30.8123 28.8479 31.0488 29.288 31.4635 29.4579C31.8781 29.6277 32.3548 29.4797 32.6008 29.1047C32.8469 28.7298 32.7934 28.2328 32.4733 27.9189C32.3898 27.8366 32.2915 27.7709 32.1835 27.7254L32.1633 27.7164L32.1329 27.7052C32.0324 27.6692 31.9264 27.651 31.8196 27.6512ZM36.0315 22.9645C35.3128 22.9627 34.7096 23.5064 34.6359 24.2225C34.5622 24.9385 35.042 25.5941 35.7459 25.7392C36.4499 25.8843 37.1491 25.4717 37.3636 24.7847C37.5782 24.0976 37.2383 23.3595 36.5773 23.077H36.5661C36.397 23.0046 36.2153 22.9664 36.0315 22.9645ZM23.3958 26.7141C22.8791 26.7141 22.4602 26.2945 22.4602 25.7769C22.4602 25.2594 22.8791 24.8398 23.3958 24.8398C23.9125 24.8398 24.3314 25.2594 24.3314 25.7769C24.3308 26.2942 23.9123 26.7134 23.3958 26.7141ZM21.9919 23.9016C21.2165 23.9016 20.5879 23.272 20.5879 22.4953C20.5879 21.7187 21.2165 21.0891 21.9919 21.0891C22.7672 21.0891 23.3958 21.7187 23.3958 22.4953C23.3946 23.2715 22.7667 23.9003 21.9919 23.9016ZM27.6077 22.0262C26.8323 22.0262 26.2037 21.3966 26.2037 20.62C26.2037 19.8433 26.8323 19.2137 27.6077 19.2137C28.3831 19.2137 29.0117 19.8433 29.0117 20.62C29.0117 21.3968 28.3833 22.0267 27.6077 22.0273V22.0262ZM24.3325 20.152C23.816 20.152 23.3971 19.7326 23.3969 19.2152C23.3967 18.6978 23.8152 18.2782 24.3318 18.2777C24.8484 18.2773 25.2675 18.6963 25.2681 19.2137C25.2681 19.7315 24.8494 20.1514 24.3325 20.152Z" fill="url(#paint4_radial_277_406)"/>
</g>
<defs>
<filter id="filter0_b_277_406" x="4" y="-1.66675" width="55.981" height="62" filterUnits="userSpaceOnUse" color-interpolation-filters="sRGB">
<feFlood flood-opacity="0" result="BackgroundImageFix"/>
<feGaussianBlur in="BackgroundImageFix" stdDeviation="3"/>
<feComposite in2="SourceAlpha" operator="in" result="effect1_backgroundBlur_277_406"/>
<feBlend mode="normal" in="SourceGraphic" in2="effect1_backgroundBlur_277_406" result="shape"/>
</filter>
<filter id="filter1_d_277_406" x="18.5879" y="18.2766" width="24.5" height="24" filterUnits="userSpaceOnUse" color-interpolation-filters="sRGB">
<feFlood flood-opacity="0" result="BackgroundImageFix"/>
<feColorMatrix in="SourceAlpha" type="matrix" values="0 0 0 0 0 0 0 0 0 0 0 0 0 0 0 0 0 0 127 0" result="hardAlpha"/>
<feOffset dx="-2" dy="1.5"/>
<feComposite in2="hardAlpha" operator="out"/>
<feColorMatrix type="matrix" values="0 0 0 0 0.866667 0 0 0 0 0.707778 0 0 0 0 0 0 0 0 0.81 0"/>
<feBlend mode="normal" in2="BackgroundImageFix" result="effect1_dropShadow_277_406"/>
<feBlend mode="normal" in="SourceGraphic" in2="effect1_dropShadow_277_406" result="shape"/>
</filter>
<linearGradient id="paint0_linear_277_406" x1="10" y1="29.3333" x2="53.9811" y2="29.3333" gradientUnits="userSpaceOnUse">
<stop stop-color="#FFD000" stop-opacity="0.1"/>
<stop offset="1" stop-color="#FFD000"/>
</linearGradient>
<linearGradient id="paint1_linear_277_406" x1="10" y1="29.3333" x2="53.9811" y2="29.3333" gradientUnits="userSpaceOnUse">
<stop stop-color="#FFEB92"/>
<stop offset="1" stop-color="#FFD000" stop-opacity="0.3"/>
</linearGradient>
<linearGradient id="paint2_linear_277_406" x1="14.3187" y1="17.6479" x2="49.6186" y2="40.5308" gradientUnits="userSpaceOnUse">
<stop offset="0.208333" stop-color="#8E7400"/>
<stop offset="0.494792" stop-color="#FFDE4D"/>
<stop offset="0.817708" stop-color="#705B00"/>
</linearGradient>
<linearGradient id="paint3_linear_277_406" x1="14.1413" y1="18.0026" x2="50.6282" y2="39.1117" gradientUnits="userSpaceOnUse">
<stop stop-color="#FFF0AE"/>
<stop offset="1" stop-color="#E1C237"/>
</linearGradient>
<radialGradient id="paint4_radial_277_406" cx="0" cy="0" r="1" gradientUnits="userSpaceOnUse" gradientTransform="translate(34.9864 23.3902) rotate(126.538) scale(12.0925 8.65139)">
<stop stop-color="#FFF9DD"/>
<stop offset="1" stop-color="#FFDC42"/>
</radialGradient>
</defs>
</svg>
