<svg width="63" height="80" viewBox="0 0 63 80" fill="none" xmlns="http://www.w3.org/2000/svg">
<rect y="0.333344" width="63" height="79.0833" fill="#046EA3" fill-opacity="0.4"/>
<line x1="0.812475" y1="4.86972" x2="0.812475" y2="0.333262" stroke="#1FC6FF"/>
<line y1="-0.5" x2="4.53646" y2="-0.5" transform="matrix(0 -1 -1 0 61.6875 4.86972)" stroke="#1FC6FF"/>
<line x1="62.1875" y1="74.8802" x2="62.1875" y2="79.4167" stroke="#1FC6FF"/>
<line y1="-0.5" x2="4.53646" y2="-0.5" transform="matrix(0 1 1 0 1.31248 74.8802)" stroke="#1FC6FF"/>
<line y1="0.916626" x2="3.9375" y2="0.916626" stroke="#1FC6FF"/>
<line y1="-0.5" x2="3.9375" y2="-0.5" transform="matrix(-1 0 0 1 63 1.4166)" stroke="#1FC6FF"/>
<line x1="63" y1="78.8333" x2="59.0625" y2="78.8333" stroke="#1FC6FF"/>
<line y1="-0.5" x2="3.9375" y2="-0.5" transform="matrix(1 0 0 -1 0 78.3333)" stroke="#1FC6FF"/>
<path d="M11.518 70.7733H17.244V71.7953H4.784V70.7733H10.426V65.1313H5.666V64.1093H10.426V59.6713H11.518V64.1093H16.348V65.1313H11.518V70.7733ZM21.402 63.9553V68.0013C21.92 67.7773 22.452 67.5393 22.998 67.3293L23.208 68.2533C21.724 68.9533 20.142 69.6393 18.91 70.1853L18.504 69.1493C19.022 68.9673 19.694 68.7013 20.422 68.3933V63.9553H18.63V62.9613H20.422V59.7833H21.402V62.9613H23.04V63.9553H21.402ZM26.092 71.1513H29.466C30.278 71.1513 30.418 70.7733 30.516 69.1633C30.768 69.3453 31.16 69.5133 31.454 69.5693C31.286 71.4733 30.964 72.0893 29.494 72.0893H26.064C24.482 72.0893 24.006 71.7113 24.006 70.2133V65.8033L22.9 66.2653L22.494 65.3693L24.006 64.7253V60.9173H25V64.3053L26.876 63.5073V59.6153H27.87V63.1013L29.718 62.3173L29.942 62.1213L30.138 61.9673L30.866 62.2473L30.81 62.4433C30.81 65.0613 30.782 67.1473 30.67 67.6793C30.6 68.2533 30.32 68.5053 29.928 68.6033C29.536 68.7013 29.004 68.7013 28.612 68.7013C28.57 68.4213 28.486 68.0293 28.36 67.8053C28.696 67.8193 29.144 67.8193 29.298 67.8193C29.508 67.8193 29.648 67.7633 29.718 67.4553C29.788 67.1193 29.816 65.5653 29.816 63.3393L27.87 64.1653V69.3033H26.876V64.5853L25 65.3833V70.2273C25 70.9693 25.182 71.1513 26.092 71.1513ZM36.774 61.2393V63.8153H39.644V64.7813H36.774V65.1593C37.446 65.7893 39.056 67.3993 39.476 67.8193L38.86 68.6733C38.44 68.1413 37.502 67.1193 36.774 66.3353V72.3833H35.738V66.3773C35.01 67.9733 34.03 69.5273 33.092 70.4793C32.966 70.1993 32.7 69.7653 32.518 69.4993C33.638 68.4493 34.856 66.5313 35.528 64.7813H32.798V63.8153H35.738V61.4353C34.828 61.6173 33.918 61.7573 33.05 61.8833C33.008 61.6313 32.854 61.2813 32.728 61.0573C34.786 60.7493 37.194 60.2733 38.51 59.6993L39.28 60.4973C38.594 60.7633 37.712 61.0153 36.774 61.2393ZM41.758 61.2813V68.9533H40.736V61.2813H41.758ZM43.704 59.7833H44.726V70.9553C44.726 71.6693 44.53 71.9773 44.096 72.1453C43.648 72.3273 42.878 72.3553 41.604 72.3553C41.534 72.0753 41.38 71.5853 41.226 71.3053C42.192 71.3333 43.074 71.3193 43.34 71.3193C43.592 71.3053 43.704 71.2353 43.704 70.9553V59.7833ZM53.588 67.1473H57.354V64.8233H53.588V67.1473ZM49.15 67.1473H52.552V64.8233H49.206V65.6493C49.206 66.1113 49.192 66.6293 49.15 67.1473ZM52.552 61.6033H49.206V63.8433H52.552V61.6033ZM57.354 63.8433V61.6033H53.588V63.8433H57.354ZM58.376 60.6093V70.9973C58.376 71.6693 58.194 71.9773 57.746 72.1593C57.27 72.3273 56.458 72.3413 55.142 72.3273C55.1 72.0473 54.932 71.5993 54.792 71.3193C55.772 71.3613 56.724 71.3473 56.976 71.3473C57.256 71.3333 57.354 71.2493 57.354 70.9833V68.1413H53.588V72.2713H52.552V68.1413H49.052C48.842 69.6953 48.366 71.2913 47.302 72.4813C47.148 72.2713 46.728 71.9213 46.504 71.7953C48.044 70.0593 48.184 67.5953 48.184 65.6493V60.6093H58.376Z" fill="white"/>
<g filter="url(#filter0_b_101_4288)">
<path d="M33.2602 4.67355C32.4746 4.21994 31.5065 4.21994 30.7209 4.67355L11.2696 15.9039C10.4841 16.3575 10 17.1958 10 18.103V40.5637C10 41.4709 10.4841 42.3092 11.2696 42.7628L30.7209 53.9931C31.5065 54.4467 32.4746 54.4467 33.2602 53.9931L52.7115 42.7628C53.4971 42.3092 53.9811 41.4709 53.9811 40.5637V18.103C53.9811 17.1958 53.4971 16.3575 52.7115 15.9039L33.2602 4.67355Z" fill="url(#paint0_linear_101_4288)" fill-opacity="0.2"/>
<path d="M33.0102 5.10655L33.0102 5.10656L52.4615 16.3369C53.0924 16.7012 53.4811 17.3745 53.4811 18.103V40.5637C53.4811 41.2922 53.0924 41.9655 52.4615 42.3298L33.0102 53.5601L33.2602 53.9931L33.0102 53.5601C32.3793 53.9244 31.6018 53.9244 30.971 53.5601L30.7209 53.9931L30.9709 53.5601L11.5197 42.3298C10.8887 41.9655 10.5 41.2922 10.5 40.5637V18.103C10.5 17.3745 10.8887 16.7012 11.5196 16.3369C11.5196 16.3369 11.5197 16.3369 11.5197 16.3369L30.9709 5.10656L30.971 5.10655C31.6018 4.74227 32.3793 4.74227 33.0102 5.10655Z" stroke="url(#paint1_linear_101_4288)" stroke-opacity="0.6"/>
</g>
<path d="M32.673 8.61146L32.673 8.61147L49.2938 18.1932C49.8105 18.4911 50.1285 19.0413 50.1285 19.6363V38.7997C50.1285 39.3947 49.8105 39.9449 49.2939 40.2428L32.673 49.8245L32.9227 50.2577L32.673 49.8245C32.1562 50.1224 31.5194 50.1224 31.0026 49.8245L30.7529 50.2577L31.0026 49.8245L14.3817 40.2428C13.8651 39.9449 13.5471 39.3947 13.5471 38.7997V19.6363C13.5471 19.0413 13.8651 18.4911 14.3817 18.1932L31.0026 8.61147L31.0026 8.61146C31.5194 8.31355 32.1562 8.31355 32.673 8.61146Z" fill="url(#paint2_linear_101_4288)" fill-opacity="0.3" stroke="url(#paint3_linear_101_4288)"/>
<g filter="url(#filter1_d_101_4288)">
<path d="M31.8196 40.7766C25.6193 40.7698 20.5947 35.737 20.5879 29.5266C21.0301 29.6518 21.4874 29.7157 21.9469 29.7168C23.4671 29.7279 24.8954 28.9887 25.7657 27.7402C26.5438 26.6147 26.7082 25.174 26.2037 23.9017C26.5263 23.9593 26.8532 23.9887 27.1809 23.9894C28.6375 24.0003 30.02 23.3471 30.9379 22.2142C31.8361 21.1148 32.1873 19.6663 31.8926 18.2767C38.0957 18.2969 43.1079 23.35 43.0878 29.5632C43.0676 35.7764 38.0227 40.7968 31.8196 40.7766ZM32.6766 36.9156C32.8493 36.99 33.0355 37.0283 33.2235 37.0281C33.7911 37.0276 34.3027 36.685 34.5201 36.1599C34.7376 35.6347 34.6182 35.0301 34.2175 34.6274C33.9535 34.364 33.5962 34.216 33.2235 34.2156C32.557 34.2172 31.9834 34.6879 31.8509 35.3422C31.7183 35.9965 32.0633 36.654 32.6766 36.9156ZM26.1139 35.011C26.3389 35.1042 26.5802 35.152 26.8237 35.1516C27.5836 35.1514 28.268 34.6912 28.556 33.9869C28.8439 33.2825 28.6782 32.4737 28.1367 31.9398C27.7866 31.5944 27.315 31.4009 26.8237 31.4009C25.7904 31.4021 24.9531 32.2412 24.9525 33.2762C24.9527 34.0286 25.4008 34.7084 26.0914 35.0042H26.097H26.1094L26.1139 35.011ZM36.7065 32.1906C37.4614 32.5082 38.3348 32.2972 38.8623 31.6699C39.3897 31.0426 39.4487 30.1446 39.0079 29.4535C38.8698 29.2382 38.6894 29.0534 38.4777 28.9101C37.8963 28.5169 37.1442 28.4822 36.5292 28.8203C35.9141 29.1583 35.5394 29.8124 35.5583 30.5149C35.5772 31.2173 35.9866 31.8502 36.6189 32.1546H36.6054L36.6391 32.1693L36.6616 32.1783H36.6548C36.6708 32.1834 36.6866 32.1894 36.702 32.1963L36.7065 32.1906ZM31.8196 27.6513C31.3716 27.6505 30.9858 27.9676 30.899 28.4078C30.8123 28.848 31.0488 29.2881 31.4635 29.458C31.8781 29.6278 32.3548 29.4798 32.6008 29.1048C32.8469 28.7299 32.7934 28.2329 32.4733 27.919C32.3898 27.8367 32.2915 27.771 32.1835 27.7255L32.1633 27.7165L32.1329 27.7053C32.0324 27.6693 31.9264 27.6511 31.8196 27.6513ZM36.0315 22.9645C35.3128 22.9628 34.7096 23.5065 34.6359 24.2226C34.5622 24.9386 35.042 25.5942 35.7459 25.7393C36.4499 25.8843 37.1491 25.4718 37.3636 24.7848C37.5782 24.0977 37.2383 23.3596 36.5773 23.0771H36.5661C36.397 23.0047 36.2153 22.9665 36.0315 22.9645ZM23.3958 26.7142C22.8791 26.7142 22.4602 26.2946 22.4602 25.777C22.4602 25.2595 22.8791 24.8399 23.3958 24.8399C23.9125 24.8399 24.3314 25.2595 24.3314 25.777C24.3308 26.2943 23.9123 26.7135 23.3958 26.7142ZM21.9919 23.9017C21.2165 23.9017 20.5879 23.2721 20.5879 22.4954C20.5879 21.7188 21.2165 21.0892 21.9919 21.0892C22.7672 21.0892 23.3958 21.7188 23.3958 22.4954C23.3946 23.2716 22.7667 23.9004 21.9919 23.9017ZM27.6077 22.0263C26.8323 22.0263 26.2037 21.3967 26.2037 20.6201C26.2037 19.8434 26.8323 19.2138 27.6077 19.2138C28.3831 19.2138 29.0117 19.8434 29.0117 20.6201C29.0117 21.3969 28.3833 22.0268 27.6077 22.0274V22.0263ZM24.3325 20.1521C23.816 20.1521 23.3971 19.7327 23.3969 19.2153C23.3967 18.6979 23.8152 18.2782 24.3318 18.2778C24.8484 18.2774 25.2675 18.6964 25.2681 19.2138C25.2681 19.7316 24.8494 20.1514 24.3325 20.1521Z" fill="url(#paint4_radial_101_4288)"/>
</g>
<defs>
<filter id="filter0_b_101_4288" x="4" y="-1.66666" width="55.9811" height="62" filterUnits="userSpaceOnUse" color-interpolation-filters="sRGB">
<feFlood flood-opacity="0" result="BackgroundImageFix"/>
<feGaussianBlur in="BackgroundImageFix" stdDeviation="3"/>
<feComposite in2="SourceAlpha" operator="in" result="effect1_backgroundBlur_101_4288"/>
<feBlend mode="normal" in="SourceGraphic" in2="effect1_backgroundBlur_101_4288" result="shape"/>
</filter>
<filter id="filter1_d_101_4288" x="18.5879" y="18.2767" width="24.5" height="24" filterUnits="userSpaceOnUse" color-interpolation-filters="sRGB">
<feFlood flood-opacity="0" result="BackgroundImageFix"/>
<feColorMatrix in="SourceAlpha" type="matrix" values="0 0 0 0 0 0 0 0 0 0 0 0 0 0 0 0 0 0 127 0" result="hardAlpha"/>
<feOffset dx="-2" dy="1.5"/>
<feComposite in2="hardAlpha" operator="out"/>
<feColorMatrix type="matrix" values="0 0 0 0 0 0 0 0 0 0.765556 0 0 0 0 0.866667 0 0 0 0.81 0"/>
<feBlend mode="normal" in2="BackgroundImageFix" result="effect1_dropShadow_101_4288"/>
<feBlend mode="normal" in="SourceGraphic" in2="effect1_dropShadow_101_4288" result="shape"/>
</filter>
<linearGradient id="paint0_linear_101_4288" x1="10" y1="29.3333" x2="53.9811" y2="29.3333" gradientUnits="userSpaceOnUse">
<stop stop-color="#0038FF" stop-opacity="0.1"/>
<stop offset="1" stop-color="#0091FF"/>
</linearGradient>
<linearGradient id="paint1_linear_101_4288" x1="10" y1="29.3333" x2="53.9811" y2="29.3333" gradientUnits="userSpaceOnUse">
<stop stop-color="#92DEFF"/>
<stop offset="1" stop-color="#0047FF" stop-opacity="0.3"/>
</linearGradient>
<linearGradient id="paint2_linear_101_4288" x1="14.3189" y1="17.648" x2="49.6189" y2="40.5308" gradientUnits="userSpaceOnUse">
<stop offset="0.208333" stop-color="#005B8E"/>
<stop offset="0.494792" stop-color="#4DBFFF"/>
<stop offset="0.817708" stop-color="#002D70"/>
</linearGradient>
<linearGradient id="paint3_linear_101_4288" x1="14.1415" y1="18.0027" x2="50.6284" y2="39.1117" gradientUnits="userSpaceOnUse">
<stop stop-color="#AEE2FF"/>
<stop offset="1" stop-color="#3790E1"/>
</linearGradient>
<radialGradient id="paint4_radial_101_4288" cx="0" cy="0" r="1" gradientUnits="userSpaceOnUse" gradientTransform="translate(34.9864 23.3903) rotate(126.538) scale(12.0925 8.65139)">
<stop stop-color="#DDFBFF"/>
<stop offset="1" stop-color="#42E9FF"/>
</radialGradient>
</defs>
</svg>
