<svg width="63" height="80" viewBox="0 0 63 80" fill="none" xmlns="http://www.w3.org/2000/svg">
<g filter="url(#filter0_b_101_4234)">
<path d="M33.2602 5.42352C32.4746 4.96991 31.5065 4.96991 30.7209 5.42352L11.2696 16.6539C10.4841 17.1075 10 17.9458 10 18.8529V41.3137C10 42.2208 10.4841 43.0591 11.2696 43.5127L30.7209 54.7431C31.5065 55.1967 32.4746 55.1967 33.2602 54.7431L52.7115 43.5127C53.4971 43.0591 53.9811 42.2208 53.9811 41.3137V18.8529C53.9811 17.9458 53.4971 17.1075 52.7115 16.6539L33.2602 5.42352Z" fill="url(#paint0_linear_101_4234)" fill-opacity="0.2"/>
<path d="M33.0102 5.85652L33.0102 5.85653L52.4615 17.0869C53.0924 17.4512 53.4811 18.1244 53.4811 18.8529V41.3137C53.4811 42.0422 53.0924 42.7154 52.4615 43.0797L33.0102 54.3101L33.2602 54.7431L33.0102 54.3101C32.3793 54.6744 31.6018 54.6744 30.971 54.3101L30.7209 54.7431L30.9709 54.3101L11.5197 43.0797C10.8887 42.7154 10.5 42.0422 10.5 41.3137V18.8529C10.5 18.1244 10.8887 17.4512 11.5196 17.0869C11.5196 17.0869 11.5197 17.0869 11.5197 17.0869L30.9709 5.85653L30.971 5.85652C31.6018 5.49224 32.3793 5.49224 33.0102 5.85652Z" stroke="url(#paint1_linear_101_4234)" stroke-opacity="0.6"/>
</g>
<path d="M32.673 9.36143L32.673 9.36144L49.2938 18.9432C49.8105 19.241 50.1285 19.7913 50.1285 20.3862V39.5497C50.1285 40.1447 49.8105 40.6949 49.2939 40.9928L32.673 50.5745L32.9227 51.0077L32.673 50.5745C32.1562 50.8724 31.5194 50.8724 31.0026 50.5745L30.7529 51.0077L31.0026 50.5745L14.3817 40.9928C13.8651 40.6949 13.5471 40.1447 13.5471 39.5497V20.3862C13.5471 19.7913 13.8651 19.241 14.3817 18.9432L31.0026 9.36144L31.0026 9.36143C31.5194 9.06352 32.1562 9.06352 32.673 9.36143Z" fill="url(#paint2_linear_101_4234)" fill-opacity="0.3" stroke="url(#paint3_linear_101_4234)"/>
<rect y="0.083313" width="63" height="79.0833" fill="#046EA3" fill-opacity="0.4"/>
<line x1="0.812475" y1="4.61969" x2="0.812475" y2="0.0832314" stroke="#1FC6FF"/>
<line y1="-0.5" x2="4.53646" y2="-0.5" transform="matrix(0 -1 -1 0 61.6875 4.61969)" stroke="#1FC6FF"/>
<line x1="62.1875" y1="74.6302" x2="62.1875" y2="79.1666" stroke="#1FC6FF"/>
<line y1="-0.5" x2="4.53646" y2="-0.5" transform="matrix(0 1 1 0 1.3125 74.6302)" stroke="#1FC6FF"/>
<line y1="0.666626" x2="3.9375" y2="0.666626" stroke="#1FC6FF"/>
<line y1="-0.5" x2="3.9375" y2="-0.5" transform="matrix(-1 0 0 1 63 1.16656)" stroke="#1FC6FF"/>
<line x1="63" y1="78.5833" x2="59.0625" y2="78.5833" stroke="#1FC6FF"/>
<line y1="-0.5" x2="3.9375" y2="-0.5" transform="matrix(1 0 0 -1 0 78.0833)" stroke="#1FC6FF"/>
<g filter="url(#filter1_d_101_4234)">
<path d="M38.8522 26.8307C38.7665 26.9164 38.7313 27.0395 38.7577 27.1582L41.2872 38.1379C41.34 38.3401 41.2762 38.5203 41.0938 38.6675L39.0368 40.2059C38.9643 40.2696 38.8588 40.3026 38.7335 40.3026C38.6918 40.3026 38.6544 40.296 38.6236 40.285C38.461 40.252 38.3511 40.1663 38.2852 40.0301L33.8019 31.881L29.7208 35.9621C29.6768 36.0061 29.6592 36.072 29.6746 36.1336L30.4966 39.1466C30.5493 39.329 30.5075 39.4916 30.3669 39.6411L28.8263 41.1883C28.7318 41.2828 28.6065 41.3333 28.4615 41.3333H28.4285C28.2659 41.3135 28.1384 41.2432 28.0439 41.1223L26.1693 38.6258C25.3979 37.5994 24.4837 36.6852 23.4551 35.916L20.9608 34.048C20.8421 33.9754 20.7761 33.848 20.7498 33.6831C20.7388 33.5425 20.7871 33.4106 20.897 33.281L22.4354 31.725C22.5299 31.6305 22.6552 31.5777 22.8002 31.5777C22.864 31.5777 22.9079 31.5843 22.9299 31.5953L25.9429 32.4173C25.9583 32.4217 25.9737 32.4239 25.9891 32.4239C26.0352 32.4239 26.0792 32.4063 26.1143 32.3733L30.1955 28.29L22.0552 23.8023C21.9058 23.7188 21.8157 23.5891 21.7827 23.4177C21.7629 23.2441 21.8069 23.1056 21.9277 22.9848L23.9848 20.9299C24.0925 20.8288 24.2067 20.7783 24.3254 20.7783C24.3716 20.7783 24.4199 20.7849 24.4683 20.8002L34.9513 23.3056C34.9776 23.3122 35.0062 23.3144 35.0326 23.3144C35.1249 23.3144 35.215 23.2792 35.2809 23.2111L37.7094 20.7805C38.5225 19.9673 39.4456 19.3915 40.4719 19.0443C40.896 18.9036 41.2828 18.8333 41.6301 18.8333C42.1136 18.8333 42.5201 18.9696 42.8432 19.2443C43.3135 19.8003 43.3772 20.5915 43.0366 21.62C42.696 22.6463 42.1136 23.5693 41.3004 24.3825L38.8522 26.8307Z" fill="url(#paint4_radial_101_4234)"/>
</g>
<path d="M15.704 59.4213L16.558 60.0793C14.528 60.6253 11.364 60.9053 8.704 61.0313C8.676 60.8073 8.564 60.4713 8.452 60.2613C11.028 60.1493 14.108 59.8553 15.704 59.4213ZM14.71 63.4533L13.968 63.1173C14.43 62.5013 15.032 61.4933 15.368 60.8073L16.32 61.1853C15.802 61.9693 15.2 62.8653 14.71 63.4533ZM13.394 62.9073L12.526 63.1873C12.428 62.6833 12.078 61.8853 11.714 61.2973L12.526 61.0313C12.932 61.6053 13.296 62.3893 13.394 62.9073ZM12.19 64.6293H10.216C9.866 65.0073 9.474 65.3853 8.984 65.7073C8.83 65.5113 8.508 65.2313 8.298 65.1193C9.11 64.6013 9.712 63.9433 10.09 63.3133L10.062 63.3273C9.922 62.8093 9.53 62.0673 9.096 61.5073L9.908 61.1993C10.356 61.7313 10.762 62.4733 10.916 62.9773L10.538 63.1313L11.182 63.2293C11.07 63.4393 10.958 63.6353 10.818 63.8313H16.432V64.6293H13.198V65.9453H17.202V66.7573H13.198V68.9833H15.298V67.2193H16.306V69.8373H9.194V67.2193H10.174V68.9833H12.19V66.7573H8.438V65.9453H12.19V64.6293ZM8.172 62.0533L7.416 62.7673C6.926 62.1933 5.876 61.3813 5.008 60.8353L5.736 60.2053C6.604 60.7233 7.654 61.4933 8.172 62.0533ZM7.556 64.2373V69.5853C7.85 69.7393 8.172 70.0193 8.704 70.3413C9.628 70.9153 10.79 71.0273 12.33 71.0273C13.926 71.0273 15.998 70.9153 17.412 70.7613C17.272 71.0413 17.118 71.5313 17.104 71.8393C16.152 71.8953 13.786 71.9793 12.302 71.9793C10.622 71.9793 9.46 71.7973 8.494 71.2093C7.934 70.8593 7.458 70.3973 7.136 70.3973C6.674 70.3973 5.974 71.2233 5.274 72.1473L4.602 71.2513C5.274 70.5093 5.96 69.9073 6.548 69.6413V65.2033H4.798V64.2373H7.556ZM20.786 61.6473V62.8933C20.786 64.4753 20.562 66.7713 19.428 68.3533C19.274 68.1573 18.868 67.8073 18.658 67.6953C19.68 66.2393 19.82 64.2933 19.82 62.8793V60.7793H26.106C26.064 60.3313 26.036 59.8413 26.022 59.3653H27.016C27.03 59.8413 27.044 60.3313 27.086 60.7793H29.298C28.892 60.4573 28.276 60.0793 27.744 59.8273L28.346 59.3373C28.976 59.6173 29.704 60.0373 30.11 60.3873L29.648 60.7793H31.23V61.6473H27.184C27.352 62.9633 27.632 64.1113 27.996 65.0073C28.626 64.2233 29.13 63.3273 29.494 62.3333L30.418 62.5573C29.942 63.8453 29.27 64.9793 28.444 65.9453C28.92 66.7433 29.452 67.1773 29.984 67.1773C30.32 67.1633 30.46 66.6733 30.516 65.4133C30.74 65.5953 31.09 65.7773 31.342 65.8473C31.202 67.6113 30.852 68.1293 29.942 68.1293C29.102 68.1293 28.36 67.5973 27.758 66.6873C27.254 67.1633 26.708 67.5973 26.134 67.9753C25.98 67.7933 25.616 67.4433 25.392 67.2753C26.078 66.8693 26.708 66.3793 27.296 65.8193C26.764 64.6993 26.4 63.2853 26.19 61.6473H20.786ZM23.81 68.2273L24.636 67.8353C25.28 68.4653 26.12 69.3333 26.512 69.9073L25.644 70.3693C25.266 69.7953 24.468 68.8853 23.81 68.2273ZM19.652 71.6853L18.7 71.2793C19.246 70.6213 19.792 69.5573 20.128 68.8013L21.038 69.1513C20.66 69.9073 20.156 70.9993 19.652 71.6853ZM25.7 62.5713V63.3273H21.346V62.5713H25.7ZM24.608 66.3793V64.9093H22.368V66.3793H24.608ZM25.448 64.1533V67.1353H21.514V64.1533H25.448ZM23.782 71.1813H26.862C27.618 71.1813 27.73 70.9713 27.814 69.5153C28.052 69.6833 28.486 69.8233 28.78 69.8793C28.64 71.6153 28.304 72.0213 26.918 72.0213H23.726C22.13 72.0213 21.696 71.7553 21.696 70.7473V68.4233H22.732V70.7333C22.732 71.1113 22.886 71.1813 23.782 71.1813ZM28.654 68.7873L29.578 68.4933C30.152 69.2913 30.824 70.3833 31.118 71.0833L30.138 71.4613C29.872 70.7613 29.228 69.6273 28.654 68.7873ZM43.732 59.6593L44.698 60.0653C43.76 61.3113 42.318 62.5573 41.03 63.3413C40.848 63.1313 40.54 62.8093 40.274 62.6273C41.506 61.9413 42.934 60.7793 43.732 59.6593ZM44.194 63.4113L45.132 63.8033C44.124 65.1613 42.486 66.4633 41.016 67.2753C40.848 67.0513 40.554 66.7293 40.288 66.5333C41.688 65.8473 43.312 64.6153 44.194 63.4113ZM38.79 61.4093V60.5833H34.548V61.4093H38.79ZM38.79 62.9493V62.0953H34.548V62.9493H38.79ZM39.812 59.8693V63.6493H33.554V59.8693H39.812ZM40.288 64.5453V65.3853H32.868V64.5453H36.13C36.018 64.3213 35.906 64.0973 35.808 63.9153L36.76 63.6773C36.928 63.9293 37.11 64.2513 37.236 64.5453H40.288ZM34.198 69.0533L35.08 69.3193C34.73 70.1453 34.128 71.0413 33.568 71.6153C33.4 71.4753 33.05 71.1813 32.826 71.0413C33.386 70.5233 33.89 69.7813 34.198 69.0533ZM34.646 66.8273V68.0033H38.636V66.8273H34.646ZM39.658 68.7453H37.138V71.0553C37.138 71.5593 37.04 71.7833 36.69 71.9233C36.354 72.0773 35.822 72.0773 35.052 72.0773C34.996 71.8113 34.87 71.4753 34.73 71.2233C35.304 71.2373 35.78 71.2373 35.92 71.2233C36.088 71.2233 36.116 71.1673 36.116 71.0413V68.7453H33.68V66.0853H39.658V68.7453ZM37.852 69.3893L38.58 69.0393C39.084 69.6693 39.644 70.5093 39.896 71.0553L39.112 71.4613C38.86 70.9153 38.328 70.0333 37.852 69.3893ZM44.474 67.4153L45.426 67.7933C44.348 69.5713 42.514 71.1253 40.596 72.0773C40.428 71.8253 40.12 71.4893 39.868 71.2793C41.702 70.4673 43.508 69.0253 44.474 67.4153ZM49.71 59.4213L50.69 59.7293C50.298 60.7933 49.808 61.8713 49.262 62.8513V72.1193H48.268V64.4613C47.89 65.0213 47.47 65.5533 47.064 66.0013C46.952 65.7493 46.644 65.2173 46.476 64.9793C47.764 63.6213 48.968 61.5353 49.71 59.4213ZM51.964 63.1173V64.5173H53.882C54.218 64.0133 54.358 63.5093 54.428 63.1173H51.964ZM55.324 61.1853H52.804C52.524 61.5633 52.23 61.9553 51.88 62.3193H54.484C54.778 62.0113 55.072 61.5773 55.324 61.1853ZM57.564 64.5173V63.1173H55.282C55.254 63.5233 55.142 64.0133 54.89 64.5173H57.564ZM57.984 65.9173L58.684 66.5613C58.208 66.8693 57.676 67.1633 57.13 67.4433C57.578 68.7873 58.432 70.0053 59.538 70.5793C59.3 70.7613 59.006 71.1113 58.866 71.3633C57.732 70.6633 56.864 69.3333 56.374 67.8213C56.15 67.9333 55.912 68.0453 55.688 68.1433C56.164 69.6133 55.968 71.0973 55.366 71.6713C55.016 72.0493 54.666 72.1473 54.148 72.1473C53.91 72.1473 53.602 72.1473 53.294 72.1193C53.28 71.8673 53.196 71.4753 53.042 71.2233C53.406 71.2653 53.714 71.2793 53.966 71.2793C54.232 71.2793 54.442 71.2513 54.652 71.0133C54.946 70.7193 55.1 69.9633 54.974 69.0813C53.77 70.1733 52.02 71.1393 50.522 71.6573C50.382 71.4333 50.13 71.0973 49.92 70.9293C51.628 70.4113 53.658 69.3473 54.778 68.2273C54.694 67.9613 54.582 67.6953 54.442 67.4433C53.42 68.3113 51.852 69.1793 50.634 69.6273C50.494 69.4173 50.228 69.1093 50.06 68.9553C51.418 68.5493 53.14 67.6813 54.078 66.8553C53.91 66.6173 53.7 66.3793 53.49 66.1973C52.804 66.7013 51.88 67.1913 50.634 67.5973C50.508 67.4153 50.256 67.1213 50.046 66.9533C51.516 66.4773 52.524 65.9033 53.182 65.3153H51.026V63.1593C50.788 63.3833 50.55 63.5793 50.284 63.7753C50.144 63.5513 49.836 63.2573 49.612 63.1173C51.152 62.0393 52.244 60.5553 52.832 59.3793L53.812 59.5613C53.672 59.8273 53.504 60.0933 53.35 60.3733H55.884L56.066 60.3173L56.682 60.7653C56.374 61.2833 55.968 61.8433 55.562 62.3193H58.53V65.3153H54.386C54.288 65.4413 54.176 65.5533 54.064 65.6653C54.68 66.1693 55.128 66.7853 55.436 67.4433C56.304 66.9953 57.326 66.3793 57.984 65.9173Z" fill="white"/>
<defs>
<filter id="filter0_b_101_4234" x="4" y="-0.916687" width="55.9811" height="62" filterUnits="userSpaceOnUse" color-interpolation-filters="sRGB">
<feFlood flood-opacity="0" result="BackgroundImageFix"/>
<feGaussianBlur in="BackgroundImageFix" stdDeviation="3"/>
<feComposite in2="SourceAlpha" operator="in" result="effect1_backgroundBlur_101_4234"/>
<feBlend mode="normal" in="SourceGraphic" in2="effect1_backgroundBlur_101_4234" result="shape"/>
</filter>
<filter id="filter1_d_101_4234" x="20.7482" y="17.3333" width="22.5034" height="24" filterUnits="userSpaceOnUse" color-interpolation-filters="sRGB">
<feFlood flood-opacity="0" result="BackgroundImageFix"/>
<feColorMatrix in="SourceAlpha" type="matrix" values="0 0 0 0 0 0 0 0 0 0 0 0 0 0 0 0 0 0 127 0" result="hardAlpha"/>
<feOffset dy="-1.5"/>
<feComposite in2="hardAlpha" operator="out"/>
<feColorMatrix type="matrix" values="0 0 0 0 0 0 0 0 0 0.8 0 0 0 0 1 0 0 0 0.5 0"/>
<feBlend mode="normal" in2="BackgroundImageFix" result="effect1_dropShadow_101_4234"/>
<feBlend mode="normal" in="SourceGraphic" in2="effect1_dropShadow_101_4234" result="shape"/>
</filter>
<linearGradient id="paint0_linear_101_4234" x1="10" y1="30.0833" x2="53.9811" y2="30.0833" gradientUnits="userSpaceOnUse">
<stop stop-color="#0066FF" stop-opacity="0.1"/>
<stop offset="1" stop-color="#0091FF"/>
</linearGradient>
<linearGradient id="paint1_linear_101_4234" x1="10" y1="30.0833" x2="53.9811" y2="30.0833" gradientUnits="userSpaceOnUse">
<stop stop-color="#92E5FF"/>
<stop offset="1" stop-color="#0047FF" stop-opacity="0.3"/>
</linearGradient>
<linearGradient id="paint2_linear_101_4234" x1="14.3189" y1="18.3979" x2="49.6189" y2="41.2808" gradientUnits="userSpaceOnUse">
<stop offset="0.208333" stop-color="#005B8E"/>
<stop offset="0.494792" stop-color="#B8DDFF"/>
<stop offset="0.817708" stop-color="#001F70"/>
</linearGradient>
<linearGradient id="paint3_linear_101_4234" x1="14.1415" y1="18.7527" x2="50.6284" y2="39.8617" gradientUnits="userSpaceOnUse">
<stop stop-color="#AEE2FF"/>
<stop offset="1" stop-color="#3771E1"/>
</linearGradient>
<radialGradient id="paint4_radial_101_4234" cx="0" cy="0" r="1" gradientUnits="userSpaceOnUse" gradientTransform="translate(39.7252 22.1626) rotate(132.641) scale(15.9716 11.283)">
<stop stop-color="white"/>
<stop offset="1" stop-color="#46DAFF"/>
</radialGradient>
</defs>
</svg>
