<svg width="44" height="50" viewBox="0 0 44 50" fill="none" xmlns="http://www.w3.org/2000/svg">
<g filter="url(#filter0_b_469_206)">
<path d="M23.2602 0.340208C22.4746 -0.113403 21.5065 -0.113403 20.7209 0.340208L1.26964 11.5706C0.48405 12.0242 0 12.8625 0 13.7696V36.2304C0 37.1375 0.48405 37.9758 1.26964 38.4294L20.7209 49.6598C21.5065 50.1134 22.4746 50.1134 23.2602 49.6598L42.7115 38.4294C43.4971 37.9758 43.9811 37.1375 43.9811 36.2304V13.7696C43.9811 12.8625 43.4971 12.0242 42.7115 11.5706L23.2602 0.340208Z" fill="url(#paint0_linear_469_206)" fill-opacity="0.2"/>
<path d="M20.9709 0.77322L20.971 0.773209C21.6018 0.40893 22.3793 0.40893 23.0102 0.773209L23.0102 0.77322L42.4615 12.0036C43.0924 12.3679 43.4811 13.0411 43.4811 13.7696V36.2304C43.4811 36.9589 43.0924 37.6321 42.4615 37.9964L23.0102 49.2268L23.249 49.6404L23.0102 49.2268C22.3793 49.5911 21.6018 49.5911 20.971 49.2268L20.7225 49.6571L20.9709 49.2268L1.51966 37.9964C0.888731 37.6321 0.5 36.9589 0.5 36.2304V13.7696C0.5 13.0411 0.888723 12.3679 1.51964 12.0036C1.51965 12.0036 1.51966 12.0036 1.51966 12.0036L20.9709 0.77322Z" stroke="url(#paint1_linear_469_206)" stroke-opacity="0.6"/>
</g>
<path d="M21.0024 4.27813L21.0024 4.27812C21.5191 3.98021 22.156 3.98021 22.6727 4.27812L22.6727 4.27813L39.2936 13.8598C39.8103 14.1577 40.1282 14.708 40.1282 15.3029V34.4664C40.1282 35.0613 39.8103 35.6116 39.2936 35.9094L22.6727 45.4912L22.9128 45.9076L22.6727 45.4912C22.156 45.7891 21.5191 45.7891 21.0024 45.4912L20.7637 45.9052L21.0024 45.4912L4.38151 35.9095C3.86483 35.6116 3.54688 35.0613 3.54688 34.4664V15.3029C3.54688 14.708 3.86482 14.1577 4.38149 13.8599C4.38149 13.8599 4.3815 13.8599 4.38151 13.8598L21.0024 4.27813Z" fill="url(#paint2_linear_469_206)" fill-opacity="0.3" stroke="url(#paint3_linear_469_206)"/>
<g filter="url(#filter1_d_469_206)">
<path d="M21.8196 36.4433C15.6193 36.4364 10.5947 31.4036 10.5879 25.1933C11.0301 25.3184 11.4874 25.3824 11.9469 25.3834C13.4671 25.3946 14.8954 24.6553 15.7657 23.4068C16.5438 22.2813 16.7082 20.8406 16.2037 19.5683C16.5263 19.626 16.8532 19.6553 17.1809 19.6561C18.6375 19.667 20.02 19.0137 20.9379 17.8808C21.8361 16.7814 22.1873 15.333 21.8926 13.9434C28.0957 13.9636 33.1079 19.0167 33.0878 25.2299C33.0676 31.443 28.0227 36.4634 21.8196 36.4433ZM22.6766 32.5823C22.8493 32.6567 23.0355 32.6949 23.2235 32.6948C23.7911 32.6942 24.3027 32.3517 24.5201 31.8265C24.7376 31.3014 24.6182 30.6968 24.2175 30.294C23.9535 30.0307 23.5962 29.8826 23.2235 29.8823C22.557 29.8838 21.9834 30.3546 21.8509 31.0089C21.7183 31.6632 22.0633 32.3206 22.6766 32.5823ZM16.1139 30.6776C16.3389 30.7709 16.5802 30.8187 16.8237 30.8183C17.5836 30.8181 18.268 30.3579 18.556 29.6535C18.8439 28.9492 18.6782 28.1403 18.1367 27.6064C17.7866 27.2611 17.315 27.0675 16.8237 27.0675C15.7904 27.0688 14.9531 27.9079 14.9525 28.9429C14.9527 29.6953 15.4008 30.3751 16.0914 30.6709H16.097H16.1094L16.1139 30.6776ZM26.7065 27.8573C27.4614 28.1748 28.3348 27.9639 28.8623 27.3366C29.3897 26.7092 29.4487 25.8113 29.0079 25.1202C28.8698 24.9049 28.6894 24.72 28.4777 24.5768C27.8963 24.1835 27.1442 24.1489 26.5292 24.4869C25.9141 24.825 25.5394 25.4791 25.5583 26.1815C25.5772 26.884 25.9866 27.5169 26.6189 27.8213H26.6054L26.6391 27.8359L26.6616 27.8449H26.6548C26.6708 27.8501 26.6866 27.8561 26.702 27.8629L26.7065 27.8573ZM21.8196 23.3179C21.3716 23.3172 20.9858 23.6342 20.899 24.0744C20.8123 24.5147 21.0488 24.9548 21.4635 25.1246C21.8781 25.2945 22.3548 25.1465 22.6008 24.7715C22.8469 24.3965 22.7934 23.8996 22.4733 23.5857C22.3898 23.5034 22.2915 23.4377 22.1835 23.3922L22.1633 23.3832L22.1329 23.3719C22.0324 23.336 21.9264 23.3177 21.8196 23.3179ZM26.0315 18.6312C25.3128 18.6294 24.7096 19.1732 24.6359 19.8892C24.5622 20.6053 25.042 21.2608 25.7459 21.4059C26.4499 21.551 27.1491 21.1384 27.3636 20.4514C27.5782 19.7644 27.2383 19.0263 26.5773 18.7437H26.5661C26.397 18.6714 26.2153 18.6331 26.0315 18.6312ZM13.3958 22.3808C12.8791 22.3808 12.4602 21.9613 12.4602 21.4437C12.4602 20.9261 12.8791 20.5066 13.3958 20.5066C13.9125 20.5066 14.3314 20.9261 14.3314 21.4437C14.3308 21.961 13.9123 22.3802 13.3958 22.3808ZM11.9919 19.5683C11.2165 19.5683 10.5879 18.9387 10.5879 18.1621C10.5879 17.3854 11.2165 16.7558 11.9919 16.7558C12.7672 16.7558 13.3958 17.3854 13.3958 18.1621C13.3946 18.9382 12.7667 19.5671 11.9919 19.5683ZM17.6077 17.693C16.8323 17.693 16.2037 17.0634 16.2037 16.2867C16.2037 15.5101 16.8323 14.8805 17.6077 14.8805C18.3831 14.8805 19.0117 15.5101 19.0117 16.2867C19.0117 17.0636 18.3833 17.6935 17.6077 17.6941V17.693ZM14.3325 15.8187C13.816 15.8187 13.3971 15.3994 13.3969 14.882C13.3967 14.3646 13.8152 13.9449 14.3318 13.9445C14.8484 13.9441 15.2675 14.3631 15.2681 14.8805C15.2681 15.3982 14.8494 15.8181 14.3325 15.8187Z" fill="url(#paint4_radial_469_206)"/>
</g>
<defs>
<filter id="filter0_b_469_206" x="-6" y="-6" width="55.981" height="62" filterUnits="userSpaceOnUse" color-interpolation-filters="sRGB">
<feFlood flood-opacity="0" result="BackgroundImageFix"/>
<feGaussianBlur in="BackgroundImageFix" stdDeviation="3"/>
<feComposite in2="SourceAlpha" operator="in" result="effect1_backgroundBlur_469_206"/>
<feBlend mode="normal" in="SourceGraphic" in2="effect1_backgroundBlur_469_206" result="shape"/>
</filter>
<filter id="filter1_d_469_206" x="8.58789" y="13.9434" width="24.5" height="24" filterUnits="userSpaceOnUse" color-interpolation-filters="sRGB">
<feFlood flood-opacity="0" result="BackgroundImageFix"/>
<feColorMatrix in="SourceAlpha" type="matrix" values="0 0 0 0 0 0 0 0 0 0 0 0 0 0 0 0 0 0 127 0" result="hardAlpha"/>
<feOffset dx="-2" dy="1.5"/>
<feComposite in2="hardAlpha" operator="out"/>
<feColorMatrix type="matrix" values="0 0 0 0 0 0 0 0 0 0.765556 0 0 0 0 0.866667 0 0 0 0.81 0"/>
<feBlend mode="normal" in2="BackgroundImageFix" result="effect1_dropShadow_469_206"/>
<feBlend mode="normal" in="SourceGraphic" in2="effect1_dropShadow_469_206" result="shape"/>
</filter>
<linearGradient id="paint0_linear_469_206" x1="0" y1="25" x2="43.9811" y2="25" gradientUnits="userSpaceOnUse">
<stop stop-color="#0038FF" stop-opacity="0.1"/>
<stop offset="1" stop-color="#0091FF"/>
</linearGradient>
<linearGradient id="paint1_linear_469_206" x1="0" y1="25" x2="43.9811" y2="25" gradientUnits="userSpaceOnUse">
<stop stop-color="#92DEFF"/>
<stop offset="1" stop-color="#0047FF" stop-opacity="0.3"/>
</linearGradient>
<linearGradient id="paint2_linear_469_206" x1="4.31867" y1="13.3146" x2="39.6186" y2="36.1975" gradientUnits="userSpaceOnUse">
<stop offset="0.208333" stop-color="#005B8E"/>
<stop offset="0.494792" stop-color="#4DBFFF"/>
<stop offset="0.817708" stop-color="#002D70"/>
</linearGradient>
<linearGradient id="paint3_linear_469_206" x1="4.14128" y1="13.6694" x2="40.6282" y2="34.7784" gradientUnits="userSpaceOnUse">
<stop stop-color="#AEE2FF"/>
<stop offset="1" stop-color="#3790E1"/>
</linearGradient>
<radialGradient id="paint4_radial_469_206" cx="0" cy="0" r="1" gradientUnits="userSpaceOnUse" gradientTransform="translate(24.9864 19.057) rotate(126.538) scale(12.0925 8.65139)">
<stop stop-color="#DDFBFF"/>
<stop offset="1" stop-color="#42E9FF"/>
</radialGradient>
</defs>
</svg>
