<svg width="44" height="50" viewBox="0 0 44 50" fill="none" xmlns="http://www.w3.org/2000/svg">
<g filter="url(#filter0_b_469_88)">
<path d="M23.2602 0.340208C22.4746 -0.113403 21.5065 -0.113403 20.7209 0.340208L1.26964 11.5706C0.48405 12.0242 0 12.8625 0 13.7696V36.2304C0 37.1375 0.48405 37.9758 1.26964 38.4294L20.7209 49.6598C21.5065 50.1134 22.4746 50.1134 23.2602 49.6598L42.7115 38.4294C43.4971 37.9758 43.9811 37.1375 43.9811 36.2304V13.7696C43.9811 12.8625 43.4971 12.0242 42.7115 11.5706L23.2602 0.340208Z" fill="url(#paint0_linear_469_88)" fill-opacity="0.2"/>
<path d="M20.9709 0.77322L20.971 0.773209C21.6018 0.40893 22.3793 0.40893 23.0102 0.773209L23.0102 0.77322L42.4615 12.0036C43.0924 12.3679 43.4811 13.0411 43.4811 13.7696V36.2304C43.4811 36.9589 43.0924 37.6321 42.4615 37.9964L23.0102 49.2268L23.249 49.6404L23.0102 49.2268C22.3793 49.5911 21.6018 49.5911 20.971 49.2268L20.7225 49.6571L20.9709 49.2268L1.51966 37.9964C0.888731 37.6321 0.5 36.9589 0.5 36.2304V13.7696C0.5 13.0411 0.888723 12.3679 1.51964 12.0036C1.51965 12.0036 1.51966 12.0036 1.51966 12.0036L20.9709 0.77322Z" stroke="url(#paint1_linear_469_88)" stroke-opacity="0.6"/>
</g>
<path d="M21.0024 4.27813L21.0024 4.27812C21.5191 3.98021 22.156 3.98021 22.6727 4.27812L22.6727 4.27813L39.2936 13.8598C39.8103 14.1577 40.1282 14.708 40.1282 15.3029V34.4664C40.1282 35.0613 39.8103 35.6116 39.2936 35.9094L22.6727 45.4912L22.9128 45.9076L22.6727 45.4912C22.156 45.7891 21.5191 45.7891 21.0024 45.4912L20.7637 45.9052L21.0024 45.4912L4.38151 35.9095C3.86483 35.6116 3.54688 35.0613 3.54688 34.4664V15.3029C3.54688 14.708 3.86482 14.1577 4.38149 13.8599C4.38149 13.8599 4.3815 13.8599 4.38151 13.8598L21.0024 4.27813Z" fill="url(#paint2_linear_469_88)" fill-opacity="0.3" stroke="url(#paint3_linear_469_88)"/>
<g filter="url(#filter1_d_469_88)">
<path fill-rule="evenodd" clip-rule="evenodd" d="M25.9655 35.6147C28.4734 34.2964 30.5562 32.2018 31.8005 29.4833C33.5713 25.5868 33.2475 21.2456 31.2973 17.6377C31.1413 17.3491 30.8215 17.2009 30.5016 17.275C29.4329 17.5129 28.4032 17.8718 27.4281 18.3476C27.4515 18.3866 27.4749 18.4334 27.4983 18.4763C28.6489 20.5825 29.2574 22.9657 29.2574 25.3644C29.2574 27.7671 28.6489 30.1502 27.4983 32.2564C26.9523 33.2628 26.2853 34.1988 25.5286 35.0491C25.4116 35.1818 25.4038 35.3768 25.513 35.5133C25.6183 35.6537 25.8095 35.6927 25.9655 35.6147ZM26.8626 18.8235C27.9586 20.8283 28.5358 23.0905 28.5358 25.3644C28.5358 27.6423 27.9586 29.9006 26.8626 31.9093C25.9811 33.5241 24.768 34.9789 23.3171 36.1686C23.2079 36.2583 23.0636 36.2739 22.931 36.2154C22.8022 36.153 22.7242 36.0281 22.7242 35.8877C22.7242 35.6537 22.7242 35.4197 22.7242 35.1857C22.7242 29.2219 22.4434 23.9369 22.0027 20.6488C21.5619 23.9369 21.2772 29.2219 21.2772 35.1857C21.2772 35.4197 21.2772 35.6537 21.2772 35.8877C21.2772 36.0281 21.1992 36.153 21.0705 36.2154C20.9417 36.2739 20.7974 36.2583 20.6843 36.1686C19.2334 34.9789 18.0203 33.5241 17.1389 31.9093C16.0506 29.9045 15.4656 27.6423 15.4656 25.3644C15.4656 23.0905 16.0467 20.8283 17.1389 18.8235C18.1959 16.885 19.7365 15.1766 21.5892 13.8816C21.8388 13.7061 22.1704 13.7061 22.42 13.8816C24.2688 15.1766 25.8056 16.885 26.8626 18.8235ZM16.5733 18.3437C15.606 17.8679 14.5724 17.509 13.5037 17.2711C13.1799 17.197 12.8601 17.3452 12.7041 17.6338C10.7539 21.2456 10.4263 25.5829 12.2048 29.4794C13.4452 32.2018 15.528 34.2925 18.0359 35.6108C18.192 35.6927 18.3831 35.6498 18.4923 35.5094C18.6015 35.3729 18.5937 35.1779 18.4767 35.0452C17.7161 34.1949 17.053 33.255 16.507 32.2525C15.3564 30.1463 14.7479 27.7632 14.7479 25.3605C14.7479 22.9618 15.3564 20.5786 16.507 18.4724C16.5226 18.4295 16.546 18.3866 16.5733 18.3437Z" fill="url(#paint4_radial_469_88)"/>
</g>
<defs>
<filter id="filter0_b_469_88" x="-6" y="-6" width="55.981" height="62" filterUnits="userSpaceOnUse" color-interpolation-filters="sRGB">
<feFlood flood-opacity="0" result="BackgroundImageFix"/>
<feGaussianBlur in="BackgroundImageFix" stdDeviation="3"/>
<feComposite in2="SourceAlpha" operator="in" result="effect1_backgroundBlur_469_88"/>
<feBlend mode="normal" in="SourceGraphic" in2="effect1_backgroundBlur_469_88" result="shape"/>
</filter>
<filter id="filter1_d_469_88" x="9.03906" y="13.75" width="23.9224" height="24" filterUnits="userSpaceOnUse" color-interpolation-filters="sRGB">
<feFlood flood-opacity="0" result="BackgroundImageFix"/>
<feColorMatrix in="SourceAlpha" type="matrix" values="0 0 0 0 0 0 0 0 0 0 0 0 0 0 0 0 0 0 127 0" result="hardAlpha"/>
<feOffset dx="-2" dy="1.5"/>
<feComposite in2="hardAlpha" operator="out"/>
<feColorMatrix type="matrix" values="0 0 0 0 0 0 0 0 0 0.65 0 0 0 0 0.866667 0 0 0 0.81 0"/>
<feBlend mode="normal" in2="BackgroundImageFix" result="effect1_dropShadow_469_88"/>
<feBlend mode="normal" in="SourceGraphic" in2="effect1_dropShadow_469_88" result="shape"/>
</filter>
<linearGradient id="paint0_linear_469_88" x1="0" y1="25" x2="43.9811" y2="25" gradientUnits="userSpaceOnUse">
<stop stop-color="#0066FF" stop-opacity="0.1"/>
<stop offset="1" stop-color="#0091FF"/>
</linearGradient>
<linearGradient id="paint1_linear_469_88" x1="0" y1="25" x2="43.9811" y2="25" gradientUnits="userSpaceOnUse">
<stop stop-color="#92E5FF"/>
<stop offset="1" stop-color="#0047FF" stop-opacity="0.3"/>
</linearGradient>
<linearGradient id="paint2_linear_469_88" x1="4.31867" y1="13.3146" x2="39.6186" y2="36.1975" gradientUnits="userSpaceOnUse">
<stop offset="0.208333" stop-color="#005B8E"/>
<stop offset="0.494792" stop-color="#B8DDFF"/>
<stop offset="0.817708" stop-color="#001F70"/>
</linearGradient>
<linearGradient id="paint3_linear_469_88" x1="4.14128" y1="13.6694" x2="40.6282" y2="34.7784" gradientUnits="userSpaceOnUse">
<stop stop-color="#AEE2FF"/>
<stop offset="1" stop-color="#3771E1"/>
</linearGradient>
<radialGradient id="paint4_radial_469_88" cx="0" cy="0" r="1" gradientUnits="userSpaceOnUse" gradientTransform="translate(25.0679 18.8636) rotate(125.827) scale(11.9834 8.50604)">
<stop stop-color="#DDF7FF"/>
<stop offset="1" stop-color="#42D0FF"/>
</radialGradient>
</defs>
</svg>
