<svg width="44" height="50" viewBox="0 0 44 50" fill="none" xmlns="http://www.w3.org/2000/svg">
<g filter="url(#filter0_b_469_192)">
<path d="M23.2602 0.340208C22.4746 -0.113403 21.5065 -0.113403 20.7209 0.340208L1.26964 11.5706C0.48405 12.0242 0 12.8625 0 13.7696V36.2304C0 37.1375 0.48405 37.9758 1.26964 38.4294L20.7209 49.6598C21.5065 50.1134 22.4746 50.1134 23.2602 49.6598L42.7115 38.4294C43.4971 37.9758 43.9811 37.1375 43.9811 36.2304V13.7696C43.9811 12.8625 43.4971 12.0242 42.7115 11.5706L23.2602 0.340208Z" fill="url(#paint0_linear_469_192)" fill-opacity="0.2"/>
<path d="M23.0102 0.773209L23.0102 0.77322L42.4615 12.0036C43.0924 12.3679 43.4811 13.0411 43.4811 13.7696V36.2304C43.4811 36.9589 43.0924 37.6321 42.4615 37.9964L23.0102 49.2268L23.2602 49.6598L23.0102 49.2268C22.3793 49.5911 21.6018 49.5911 20.971 49.2268L20.7209 49.6598L20.9709 49.2268L1.51966 37.9964C0.88873 37.6321 0.5 36.9589 0.5 36.2304V13.7696C0.5 13.0411 0.888723 12.3679 1.51964 12.0036C1.51965 12.0036 1.51966 12.0036 1.51966 12.0036L20.9709 0.77322L20.971 0.773209C21.6018 0.40893 22.3793 0.40893 23.0102 0.773209Z" stroke="url(#paint1_linear_469_192)" stroke-opacity="0.6"/>
</g>
<path d="M22.6727 4.27812L22.6727 4.27813L39.2936 13.8598C39.8103 14.1577 40.1282 14.708 40.1282 15.3029V34.4664C40.1282 35.0613 39.8103 35.6116 39.2936 35.9094L22.6727 45.4912L22.9224 45.9243L22.6727 45.4912C22.156 45.7891 21.5191 45.7891 21.0024 45.4912L20.7527 45.9243L21.0024 45.4912L4.38151 35.9095C3.86483 35.6116 3.54688 35.0613 3.54688 34.4664V15.3029C3.54688 14.708 3.86483 14.1577 4.38151 13.8598L21.0024 4.27813L21.0024 4.27812C21.5191 3.98021 22.156 3.98021 22.6727 4.27812Z" fill="url(#paint2_linear_469_192)" fill-opacity="0.3" stroke="url(#paint3_linear_469_192)"/>
<g filter="url(#filter1_d_469_192)">
<path d="M23.075 20.8805L17.2746 24.5148V15.5516C17.2746 14.8834 16.7278 14.3368 16.0595 14.3368H11.1211C10.4528 14.3368 9.90625 14.8833 9.90625 15.5516V33.6983C9.90625 34.3666 10.4528 34.9132 11.1211 34.9132H32.1289C32.7972 34.9132 33.3438 34.3666 33.3438 33.6983V21.4699C33.3438 21.117 33.1912 20.798 32.949 20.5755C32.3032 20.0017 31.7569 20.488 31.1302 20.8805L25.3092 24.527H25.2895V21.4699C25.2895 21.425 25.2867 21.3826 25.2816 21.3428C25.25 21.041 25.1063 20.771 24.8938 20.5755C24.2479 20.0017 23.7016 20.488 23.075 20.8805Z" fill="url(#paint4_linear_469_192)"/>
</g>
<defs>
<filter id="filter0_b_469_192" x="-6" y="-6" width="55.981" height="62" filterUnits="userSpaceOnUse" color-interpolation-filters="sRGB">
<feFlood flood-opacity="0" result="BackgroundImageFix"/>
<feGaussianBlur in="BackgroundImageFix" stdDeviation="3"/>
<feComposite in2="SourceAlpha" operator="in" result="effect1_backgroundBlur_469_192"/>
<feBlend mode="normal" in="SourceGraphic" in2="effect1_backgroundBlur_469_192" result="shape"/>
</filter>
<filter id="filter1_d_469_192" x="9.90625" y="11.3368" width="23.4375" height="23.5764" filterUnits="userSpaceOnUse" color-interpolation-filters="sRGB">
<feFlood flood-opacity="0" result="BackgroundImageFix"/>
<feColorMatrix in="SourceAlpha" type="matrix" values="0 0 0 0 0 0 0 0 0 0 0 0 0 0 0 0 0 0 127 0" result="hardAlpha"/>
<feOffset dy="-3"/>
<feComposite in2="hardAlpha" operator="out"/>
<feColorMatrix type="matrix" values="0 0 0 0 0 0 0 0 0 0.75 0 0 0 0 1 0 0 0 0.3 0"/>
<feBlend mode="normal" in2="BackgroundImageFix" result="effect1_dropShadow_469_192"/>
<feBlend mode="normal" in="SourceGraphic" in2="effect1_dropShadow_469_192" result="shape"/>
</filter>
<linearGradient id="paint0_linear_469_192" x1="0" y1="25" x2="43.9811" y2="25" gradientUnits="userSpaceOnUse">
<stop stop-color="#0066FF" stop-opacity="0.1"/>
<stop offset="1" stop-color="#0091FF"/>
</linearGradient>
<linearGradient id="paint1_linear_469_192" x1="0" y1="25" x2="43.9811" y2="25" gradientUnits="userSpaceOnUse">
<stop stop-color="#92E5FF"/>
<stop offset="1" stop-color="#0047FF" stop-opacity="0.3"/>
</linearGradient>
<linearGradient id="paint2_linear_469_192" x1="4.31867" y1="13.3146" x2="39.6186" y2="36.1975" gradientUnits="userSpaceOnUse">
<stop offset="0.208333" stop-color="#005B8E"/>
<stop offset="0.494792" stop-color="#B8DDFF"/>
<stop offset="0.817708" stop-color="#001F70"/>
</linearGradient>
<linearGradient id="paint3_linear_469_192" x1="4.14128" y1="13.6694" x2="40.6282" y2="34.7784" gradientUnits="userSpaceOnUse">
<stop stop-color="#AEE2FF"/>
<stop offset="1" stop-color="#3771E1"/>
</linearGradient>
<linearGradient id="paint4_linear_469_192" x1="21.625" y1="14.3368" x2="21.625" y2="34.9133" gradientUnits="userSpaceOnUse">
<stop stop-color="#B7EDFF"/>
<stop offset="1" stop-color="#00BFFF"/>
</linearGradient>
</defs>
</svg>
