<svg width="24" height="24" viewBox="0 0 24 24" fill="none" xmlns="http://www.w3.org/2000/svg">
<path d="M4 16.9551C3.17958 16.8419 2.63236 16.5387 2.23393 16.044L2.23394 16.044L2.2294 16.0384C1.56178 15.2171 1.40867 14.0627 1.84979 13.0769C2.29088 12.0913 3.22287 11.482 4.2216 11.464L5.54306 11.4401L5.76912 10.1379C6.15396 7.92115 7.79849 6.1922 9.89781 5.72472C11.9943 5.25787 14.1741 6.12597 15.4159 7.96376L16.0285 8.87045L17.0957 8.62828C18.5572 8.29663 20.0838 8.80228 21.0705 9.96878L21.0741 9.97299C22.0756 11.1487 22.3722 12.7974 21.8384 14.2836C21.4924 15.2468 20.8307 16.0218 20 16.5036V18.2726C21.5321 17.6817 22.7653 16.4363 23.3442 14.8244C24.0682 12.8087 23.6725 10.5559 22.2921 8.93545C20.9214 7.31499 18.788 6.60355 16.7416 7.06795C15.1392 4.69654 12.3012 3.55036 9.55005 4.16297C6.79894 4.77559 4.685 7.02845 4.1927 9.86426C2.55169 9.8939 1.07472 10.8918 0.389357 12.4234C-0.296006 13.9549 -0.0643385 15.7532 0.987839 17.0476C1.75523 18.0004 2.78874 18.4397 4 18.5657V16.9551Z" fill="white"/>
<path d="M6 17.8C6 17.3582 6.35817 17 6.8 17H17.2C17.6418 17 18 17.3582 18 17.8C18 18.2418 17.6418 18.6 17.2 18.6H6.8C6.35817 18.6 6 18.2418 6 17.8Z" fill="white"/>
<path d="M7 14.8C7 14.3582 7.35817 14 7.8 14H16.2C16.6418 14 17 14.3582 17 14.8C17 15.2418 16.6418 15.6 16.2 15.6H7.8C7.35817 15.6 7 15.2418 7 14.8Z" fill="white"/>
<path d="M7 20.8C7 20.3582 7.35817 20 7.8 20H16.2C16.6418 20 17 20.3582 17 20.8C17 21.2418 16.6418 21.6 16.2 21.6H7.8C7.35817 21.6 7 21.2418 7 20.8Z" fill="white"/>
</svg>
