<svg width="24" height="24" viewBox="0 0 24 24" fill="none" xmlns="http://www.w3.org/2000/svg">
<path d="M4 15.9551C3.17958 15.8419 2.63236 15.5387 2.23393 15.044L2.23394 15.044L2.2294 15.0384C1.56178 14.2171 1.40867 13.0627 1.84979 12.0769C2.29088 11.0913 3.22287 10.482 4.2216 10.464L5.54306 10.4401L5.76912 9.13793C6.15396 6.92115 7.79849 5.1922 9.89781 4.72472C11.9943 4.25787 14.1741 5.12597 15.4159 6.96376L16.0285 7.87045L17.0957 7.62828C18.5572 7.29663 20.0838 7.80228 21.0705 8.96878L21.0741 8.97299C22.0756 10.1487 22.3722 11.7974 21.8384 13.2836C21.4924 14.2468 20.8307 15.0218 20 15.5036V17.2726C21.5321 16.6817 22.7653 15.4363 23.3442 13.8244C24.0682 11.8087 23.6725 9.55592 22.2921 7.93545C20.9214 6.31499 18.788 5.60355 16.7416 6.06795C15.1392 3.69654 12.3012 2.55036 9.55005 3.16297C6.79894 3.77559 4.685 6.02845 4.1927 8.86426C2.55169 8.8939 1.07472 9.89184 0.389357 11.4234C-0.296006 12.9549 -0.0643385 14.7532 0.987839 16.0476C1.75523 17.0004 2.78874 17.4397 4 17.5657V15.9551Z" fill="white"/>
<path d="M9.08081 16.9002C9.0446 16.7535 8.95918 16.6244 8.83971 16.5338V16.5281L8.326 16.2315L8.78975 15.9639L8.79305 15.9618C8.93691 15.8711 9.04004 15.7282 9.08081 15.5631C9.12158 15.3979 9.09682 15.2235 9.01172 15.0762C8.92662 14.929 8.78781 14.8204 8.62439 14.7733C8.46098 14.7262 8.28564 14.7442 8.13522 14.8235L7.66819 15.091V14.5579C7.66819 14.3834 7.59887 14.2161 7.47549 14.0927C7.35211 13.9693 7.18477 13.9 7.01028 13.9C6.83579 13.9 6.66845 13.9693 6.54507 14.0927C6.42169 14.2161 6.35238 14.3834 6.35238 14.5579V15.0912L5.88826 14.8254C5.73737 14.7392 5.55846 14.7162 5.39068 14.7615C5.2229 14.8068 5.07989 14.9168 4.99293 15.0672C4.90597 15.2177 4.88213 15.3965 4.92663 15.5645C4.97113 15.7325 5.0808 15.8763 5.23085 15.964L5.69457 16.2317L5.23103 16.4993C5.15593 16.5423 5.09004 16.5996 5.03714 16.6681C4.9842 16.7366 4.94532 16.815 4.92274 16.8986C4.90016 16.9822 4.89431 17.0694 4.90555 17.1553C4.91679 17.2411 4.94488 17.3239 4.98821 17.3989C5.03154 17.4739 5.08926 17.5396 5.15805 17.5922C5.22685 17.6448 5.30536 17.6833 5.38907 17.7055C5.47278 17.7276 5.56005 17.7331 5.64587 17.7214C5.73158 17.7098 5.81441 17.6812 5.88911 17.6376L6.35238 17.3701V17.9053C6.35238 18.0798 6.42169 18.2472 6.54507 18.3705C6.66845 18.4939 6.83579 18.5632 7.01028 18.5632C7.18477 18.5632 7.35211 18.4939 7.47549 18.3705C7.59887 18.2472 7.66819 18.0798 7.66819 17.9053V17.3701L8.13188 17.6379L8.13525 17.6397C8.28567 17.719 8.46098 17.737 8.62439 17.6899C8.78781 17.6428 8.92662 17.5343 9.01172 17.387C9.09682 17.2398 9.12158 17.0653 9.08081 16.9002Z" fill="white"/>
<path d="M19.0808 16.9003C19.0446 16.7536 18.9592 16.6245 18.8397 16.5339V16.5282L18.326 16.2316L18.7898 15.964L18.7931 15.9619C18.9369 15.8712 19.04 15.7283 19.0808 15.5632C19.1216 15.398 19.0968 15.2236 19.0117 15.0763C18.9266 14.9291 18.7878 14.8205 18.6244 14.7734C18.461 14.7263 18.2856 14.7442 18.1352 14.8236L17.6682 15.0911V14.558C17.6682 14.3835 17.5989 14.2162 17.4755 14.0928C17.3521 13.9694 17.1848 13.9001 17.0103 13.9001C16.8358 13.9001 16.6685 13.9694 16.5451 14.0928C16.4217 14.2162 16.3524 14.3835 16.3524 14.558V15.0913L15.8883 14.8255C15.7374 14.7393 15.5585 14.7163 15.3907 14.7616C15.2229 14.8069 15.0799 14.9168 14.9929 15.0673C14.906 15.2178 14.8821 15.3966 14.9266 15.5646C14.9711 15.7326 15.0808 15.8764 15.2308 15.9641L15.6946 16.2318L15.231 16.4994C15.1559 16.5424 15.09 16.5997 15.0371 16.6682C14.9842 16.7367 14.9453 16.815 14.9227 16.8987C14.9002 16.9823 14.8943 17.0695 14.9056 17.1554C14.9168 17.2412 14.9449 17.324 14.9882 17.399C15.0315 17.474 15.0893 17.5397 15.1581 17.5923C15.2268 17.6449 15.3054 17.6834 15.3891 17.7056C15.4728 17.7277 15.5601 17.7331 15.6459 17.7215C15.7316 17.7099 15.8144 17.6813 15.8891 17.6376L16.3524 17.3702V17.9054C16.3524 18.0799 16.4217 18.2472 16.5451 18.3706C16.6685 18.494 16.8358 18.5633 17.0103 18.5633C17.1848 18.5633 17.3521 18.494 17.4755 18.3706C17.5989 18.2472 17.6682 18.0799 17.6682 17.9054V17.3702L18.1319 17.638L18.1353 17.6398C18.2857 17.7191 18.461 17.7371 18.6244 17.69C18.7878 17.6429 18.9266 17.5343 19.0117 17.3871C19.0968 17.2399 19.1216 17.0654 19.0808 16.9003Z" fill="white"/>
<path d="M14.0808 19.9003C14.0446 19.7536 13.9592 19.6245 13.8397 19.5339V19.5282L13.326 19.2316L13.7898 18.964L13.7931 18.9619C13.9369 18.8712 14.04 18.7283 14.0808 18.5632C14.1216 18.398 14.0968 18.2236 14.0117 18.0763C13.9266 17.9291 13.7878 17.8205 13.6244 17.7734C13.461 17.7263 13.2856 17.7442 13.1352 17.8236L12.6682 18.0911V17.558C12.6682 17.3835 12.5989 17.2162 12.4755 17.0928C12.3521 16.9694 12.1848 16.9001 12.0103 16.9001C11.8358 16.9001 11.6685 16.9694 11.5451 17.0928C11.4217 17.2162 11.3524 17.3835 11.3524 17.558V18.0913L10.8883 17.8255C10.7374 17.7393 10.5585 17.7163 10.3907 17.7616C10.2229 17.8069 10.0799 17.9168 9.99293 18.0673C9.90597 18.2178 9.88213 18.3966 9.92663 18.5646C9.97113 18.7326 10.0808 18.8764 10.2308 18.9641L10.6946 19.2318L10.231 19.4994C10.1559 19.5424 10.09 19.5997 10.0371 19.6682C9.9842 19.7367 9.94532 19.815 9.92274 19.8987C9.90016 19.9823 9.89431 20.0695 9.90555 20.1554C9.91679 20.2412 9.94488 20.324 9.98821 20.399C10.0315 20.474 10.0893 20.5397 10.1581 20.5923C10.2268 20.6449 10.3054 20.6834 10.3891 20.7056C10.4728 20.7277 10.5601 20.7331 10.6459 20.7215C10.7316 20.7099 10.8144 20.6813 10.8891 20.6376L11.3524 20.3702V20.9054C11.3524 21.0799 11.4217 21.2472 11.5451 21.3706C11.6685 21.494 11.8358 21.5633 12.0103 21.5633C12.1848 21.5633 12.3521 21.494 12.4755 21.3706C12.5989 21.2472 12.6682 21.0799 12.6682 20.9054V20.3702L13.1319 20.638L13.1353 20.6398C13.2857 20.7191 13.461 20.7371 13.6244 20.69C13.7878 20.6429 13.9266 20.5343 14.0117 20.3871C14.0968 20.2399 14.1216 20.0654 14.0808 19.9003Z" fill="white"/>
</svg>
