<svg width="24" height="24" viewBox="0 0 24 24" fill="none" xmlns="http://www.w3.org/2000/svg">
<path d="M4 16.9551C3.17958 16.8419 2.63236 16.5387 2.23393 16.044L2.23394 16.044L2.2294 16.0384C1.56178 15.2171 1.40867 14.0627 1.84979 13.0769C2.29088 12.0913 3.22287 11.482 4.2216 11.464L5.54306 11.4401L5.76912 10.1379C6.15396 7.92115 7.79849 6.1922 9.89781 5.72472C11.9943 5.25787 14.1741 6.12597 15.4159 7.96376L16.0285 8.87045L17.0957 8.62828C18.5572 8.29663 20.0838 8.80228 21.0705 9.96878L21.0741 9.97299C22.0756 11.1487 22.3722 12.7974 21.8384 14.2836C21.4924 15.2468 20.8307 16.0218 20 16.5036V18.2726C21.5321 17.6817 22.7653 16.4363 23.3442 14.8244C24.0682 12.8087 23.6725 10.5559 22.2921 8.93545C20.9214 7.31499 18.788 6.60355 16.7416 7.06795C15.1392 4.69654 12.3012 3.55036 9.55005 4.16297C6.79894 4.77559 4.685 7.02845 4.1927 9.86426C2.55169 9.8939 1.07472 10.8918 0.389357 12.4234C-0.296006 13.9549 -0.0643385 15.7532 0.987839 17.0476C1.75523 18.0004 2.78874 18.4397 4 18.5657V16.9551Z" fill="white"/>
<path d="M14.7355 14H13.6711V20.9147H14.7355V14ZM19.3222 14H18.2579V16.1749C17.9751 15.9579 17.6336 15.8509 17.2408 15.8509C16.6872 15.8509 16.2329 16.0933 15.8917 16.5693C15.5529 17.0391 15.3917 17.6509 15.3917 18.3871V18.4468C15.3917 19.1807 15.5531 19.7944 15.8909 20.2719L15.8913 20.2725C16.2341 20.7531 16.6853 21 17.2329 21C17.6548 21 18.0168 20.8808 18.3096 20.638L18.3295 20.9147H19.3222V14ZM6.66174 15.8509C6.24672 15.8509 5.87762 15.9546 5.56099 16.1685L5.5604 16.1689C5.24802 16.382 5.00937 16.6809 4.8444 17.0599C4.68002 17.4375 4.60001 17.8642 4.60001 18.3359V18.4681C4.60001 19.2266 4.77822 19.8483 5.15361 20.3112L5.1544 20.3122C5.53422 20.7738 6.04423 21 6.66568 21C6.98084 21 7.27987 20.9222 7.56065 20.767C7.84297 20.6125 8.0722 20.4031 8.24413 20.1379C8.41517 19.8741 8.5114 19.5901 8.52638 19.2882L8.5359 19.0965H7.51593L7.50232 19.2623C7.48559 19.4663 7.40208 19.6353 7.24101 19.7768C7.07794 19.92 6.88864 19.9921 6.66568 19.9921C6.33521 19.9921 6.09912 19.8689 5.9331 19.633C5.76166 19.3894 5.66434 19.0249 5.66434 18.515V18.3658C5.66434 17.8404 5.76213 17.4695 5.93305 17.2266C6.10256 16.9865 6.33813 16.8631 6.66174 16.8631C6.89729 16.8631 7.08565 16.944 7.23847 17.1026L7.24024 17.1044C7.396 17.2614 7.48411 17.4621 7.50215 17.7185L7.51397 17.8867H8.53453L8.52645 17.6964C8.50355 17.1569 8.31673 16.7077 7.96344 16.3628C7.61375 16.0189 7.17557 15.8509 6.66174 15.8509ZM10.9178 15.8509C10.5141 15.8509 10.1484 15.9569 9.82569 16.1722L9.82512 16.1726C9.50501 16.3882 9.25628 16.6935 9.07826 17.0822L9.07779 17.0833C8.90252 17.4722 8.81666 17.9066 8.81666 18.3828V18.4383C8.81666 19.1886 9.00471 19.8113 9.39495 20.2869C9.78887 20.7635 10.3043 21 10.9256 21C11.3368 21 11.7068 20.8928 12.0302 20.674C12.355 20.4559 12.6032 20.1519 12.7739 19.7669C12.9463 19.381 13.0307 18.9497 13.0307 18.4766V18.4212C13.0307 17.6654 12.8418 17.04 12.4487 16.5643C12.0571 16.0872 11.5414 15.8509 10.9178 15.8509ZM10.1807 17.2571C10.3696 16.9917 10.6106 16.8631 10.9178 16.8631C11.233 16.8631 11.4772 16.9945 11.6657 17.2644L11.6668 17.2658C11.8614 17.5387 11.9664 17.9056 11.9664 18.3828C11.9664 18.9257 11.8616 19.3226 11.6733 19.5956C11.488 19.8614 11.2444 19.9921 10.9256 19.9921C10.6094 19.9921 10.3651 19.8626 10.1771 19.5986C9.9878 19.329 9.88493 18.9609 9.88493 18.4766C9.88493 17.9213 9.99141 17.5232 10.1807 17.2571ZM16.7233 17.257C16.8894 17.0084 17.1157 16.8844 17.4219 16.8844C17.622 16.8844 17.7877 16.9324 17.925 17.0216C18.0531 17.1048 18.1647 17.2293 18.2579 17.4026V19.4294C18.1664 19.6098 18.0547 19.7389 17.9255 19.825C17.7874 19.9169 17.6192 19.9665 17.414 19.9665C17.1134 19.9665 16.8892 19.8442 16.7228 19.5976C16.5517 19.3438 16.456 18.9772 16.456 18.4766C16.456 17.9084 16.5536 17.511 16.7233 17.257Z" fill="white"/>
</svg>
