<svg width="24" height="24" viewBox="0 0 24 24" fill="none" xmlns="http://www.w3.org/2000/svg">
<path d="M4 15.9551C3.17958 15.8419 2.63236 15.5387 2.23393 15.044L2.23394 15.044L2.2294 15.0384C1.56178 14.2171 1.40867 13.0627 1.84979 12.0769C2.29088 11.0913 3.22287 10.482 4.2216 10.464L5.54306 10.4401L5.76912 9.13793C6.15396 6.92115 7.79849 5.1922 9.89781 4.72472C11.9943 4.25787 14.1741 5.12597 15.4159 6.96376L16.0285 7.87045L17.0957 7.62828C18.5572 7.29663 20.0838 7.80228 21.0705 8.96878L21.0741 8.97299C22.0756 10.1487 22.3722 11.7974 21.8384 13.2836C21.4924 14.2468 20.8307 15.0218 20 15.5036V17.2726C21.5321 16.6817 22.7653 15.4363 23.3442 13.8244C24.0682 11.8087 23.6725 9.55592 22.2921 7.93545C20.9214 6.31499 18.788 5.60355 16.7416 6.06795C15.1392 3.69654 12.3012 2.55036 9.55005 3.16297C6.79894 3.77559 4.685 6.02845 4.1927 8.86426C2.55169 8.8939 1.07472 9.89184 0.389357 11.4234C-0.296006 12.9549 -0.0643385 14.7532 0.987839 16.0476C1.75523 17.0004 2.78874 17.4397 4 17.5657V15.9551Z" fill="white"/>
<path d="M17.0046 15.0039L18.8098 17.338L17.0046 19.7214L15.1993 17.338L17.0046 15.0039Z" fill="white"/>
<path d="M11.8552 18.0039L13.6604 20.338L11.8552 22.7213L10.05 20.338L11.8552 18.0039Z" fill="white"/>
<path d="M6.70526 15.0039L8.51053 17.338L6.70526 19.7214L4.89999 17.338L6.70526 15.0039Z" fill="white"/>
</svg>
