<svg width="24" height="24" viewBox="0 0 24 24" fill="none" xmlns="http://www.w3.org/2000/svg">
<path d="M12.141 15.5437L12.1516 15.5437H12.1788C13.5985 15.5638 14.7527 16.7045 14.7527 18.1204C14.7527 19.5491 13.5777 20.6972 12.1406 20.6972C11.1882 20.6972 10.3225 20.189 9.86256 19.3819C9.64726 19.0041 9.779 18.5233 10.1568 18.308C10.5346 18.0928 11.0154 18.2245 11.2307 18.6023C11.4111 18.9188 11.7552 19.1225 12.1406 19.1225C12.7209 19.1225 13.178 18.6666 13.178 18.1204C13.178 17.5766 12.7247 17.1222 12.1479 17.1184H4.01195C3.57711 17.1184 3.2246 16.7659 3.2246 16.331C3.2246 15.8962 3.57711 15.5437 4.01195 15.5437H12.1347L12.141 15.5437ZM15.7549 4C17.5074 4 18.9281 5.42072 18.9281 7.17326C18.9281 8.92581 17.5074 10.3465 15.7549 10.3465L2.35509 10.3465C1.92025 10.3465 1.56774 9.99401 1.56774 9.55917C1.56774 9.12433 1.92025 8.77182 2.35509 8.77182H15.7549C16.6377 8.7718 17.3534 8.05611 17.3534 7.17326C17.3534 6.2904 16.6377 5.5747 15.7549 5.5747C14.872 5.5747 14.1563 6.2904 14.1563 7.17326C14.1563 7.6081 13.8038 7.96061 13.369 7.96061C12.9341 7.96061 12.5816 7.6081 12.5816 7.17326C12.5816 5.42072 14.0023 4 15.7549 4ZM0 12.9451C0 12.5103 0.352509 12.1578 0.787351 12.1578L19.9303 12.1577C22.0122 12.1577 23.7 13.8455 23.7 15.9275C23.7 18.0095 22.0122 19.6972 19.9303 19.6972C18.2378 19.6972 16.7666 18.5723 16.3065 16.969C16.1865 16.5511 16.4281 16.115 16.8461 15.995C17.264 15.8751 17.7001 16.1166 17.8201 16.5346C18.0877 17.4672 18.9448 18.1225 19.9303 18.1225C21.1425 18.1225 22.1253 17.1398 22.1253 15.9275C22.1253 14.7152 21.1425 13.7325 19.9303 13.7325L0.78735 13.7325C0.352507 13.7325 0 13.38 0 12.9451Z" fill="white"/>
</svg>
