<svg width="24" height="24" viewBox="0 0 24 24" fill="none" xmlns="http://www.w3.org/2000/svg">
<path d="M8.18902 6.45911C8.02607 6.4954 7.86546 6.53756 7.7074 6.58536C8.56446 5.36418 9.84491 4.47552 11.3411 4.14234C13.744 3.60728 16.2228 4.60837 17.6224 6.6796C19.4098 6.27399 21.273 6.89537 22.4702 8.31071C23.6759 9.72605 24.0215 11.6937 23.3892 13.4542C22.9833 14.5843 22.2093 15.5081 21.2275 16.0956C21.4067 15.3663 21.445 14.6171 21.3481 13.8879C21.5721 13.6003 21.7543 13.2729 21.8834 12.9134C22.3255 11.6823 22.0791 10.3189 21.2522 9.34825L21.2487 9.34403C20.4355 8.38266 19.1789 7.96706 17.9764 8.23993L16.9093 8.4821L16.2966 7.57541C15.2577 6.0378 13.4372 5.31479 11.6889 5.70409C11.161 5.82165 10.6671 6.03499 10.2258 6.32659C9.55583 6.26623 8.86994 6.30749 8.18902 6.45911ZM16.1821 18.1494L16.2559 18.1481C17.4421 17.9464 18.4549 17.1064 18.8834 15.9134C19.3256 14.6823 19.0791 13.3189 18.2523 12.3482L18.2487 12.344C17.4355 11.3827 16.1789 10.9671 14.9765 11.2399L13.9093 11.4821L13.2967 10.5754C12.2577 9.0378 10.4372 8.31479 8.68894 8.70409C6.93786 9.09402 5.56092 10.5378 5.2384 12.3956L5.01233 13.6978L3.69087 13.7217C2.89987 13.736 2.15484 14.2189 1.80051 15.0107C1.44614 15.8025 1.56993 16.7293 2.10435 17.3868L2.1089 17.3924L2.10889 17.3924C2.50374 17.8826 3.09528 18.1512 4.16664 18.1566L4.20123 18.1558C4.2294 18.1552 4.26312 18.1547 4.299 18.1544C4.37198 18.1537 4.47219 18.1531 4.59432 18.1527C4.83948 18.1519 5.18446 18.1516 5.60169 18.1517C6.43662 18.1517 7.56802 18.1531 8.78423 18.1546C10.5007 18.1568 12.3867 18.1591 13.8542 18.1582C14.5883 18.1578 15.2152 18.1565 15.6628 18.154C15.8873 18.1528 16.0625 18.1512 16.1821 18.1494ZM0.862795 18.396C-0.0561943 17.2655 -0.258536 15.6948 0.340071 14.3571C0.938679 13.0194 2.22869 12.1478 3.66198 12.1219C4.09196 9.6451 5.93831 7.67741 8.34117 7.14234C10.744 6.60728 13.2228 7.60837 14.6224 9.6796C16.4098 9.27399 18.2731 9.89537 19.4703 11.3107C20.6759 12.726 21.0216 14.6937 20.3892 16.4542C19.7569 18.2148 18.2309 19.4748 16.4182 19.7423C16.3328 19.764 12.2142 19.7589 8.78224 19.7546C6.34907 19.7516 4.26102 19.749 4.2 19.7567C2.83644 19.7567 1.67779 19.4079 0.862795 18.396Z" fill="white"/>
</svg>
