<svg width="24" height="24" viewBox="0 0 24 24" fill="none" xmlns="http://www.w3.org/2000/svg">
<path d="M12.5 5.36C12.7228 5.36 12.9364 5.2715 13.094 5.11397C13.2515 4.95644 13.34 4.74278 13.34 4.52V2.84C13.34 2.61722 13.2515 2.40356 13.094 2.24603C12.9364 2.0885 12.7228 2 12.5 2C12.2772 2 12.0636 2.0885 11.906 2.24603C11.7485 2.40356 11.66 2.61722 11.66 2.84V4.52C11.66 4.74278 11.7485 4.95644 11.906 5.11397C12.0636 5.2715 12.2772 5.36 12.5 5.36ZM6.263 7.46C6.42173 7.61873 6.63702 7.70791 6.8615 7.70791C7.08598 7.70791 7.30127 7.61873 7.46 7.46C7.61873 7.30127 7.70791 7.08598 7.70791 6.8615C7.70791 6.63702 7.61873 6.42173 7.46 6.263L6.263 5.0744C6.18495 4.99636 6.0923 4.93445 5.99033 4.89221C5.88836 4.84997 5.77907 4.82823 5.6687 4.82823C5.44579 4.82823 5.23202 4.91678 5.0744 5.0744C4.99636 5.15244 4.93445 5.2451 4.89221 5.34707C4.84997 5.44904 4.82823 5.55833 4.82823 5.6687C4.82823 5.89161 4.91678 6.10538 5.0744 6.263L6.263 7.46ZM5.36 12.5C5.36 12.2772 5.2715 12.0636 5.11397 11.906C4.95644 11.7485 4.74278 11.66 4.52 11.66H2.84C2.61722 11.66 2.40356 11.7485 2.24603 11.906C2.0885 12.0636 2 12.2772 2 12.5C2 12.7228 2.0885 12.9364 2.24603 13.094C2.40356 13.2515 2.61722 13.34 2.84 13.34H4.52C4.74278 13.34 4.95644 13.2515 5.11397 13.094C5.2715 12.9364 5.36 12.7228 5.36 12.5ZM22.16 11.66H20.48C20.2572 11.66 20.0436 11.7485 19.886 11.906C19.7285 12.0636 19.64 12.2772 19.64 12.5C19.64 12.7228 19.7285 12.9364 19.886 13.094C20.0436 13.2515 20.2572 13.34 20.48 13.34H22.16C22.3828 13.34 22.5964 13.2515 22.754 13.094C22.9115 12.9364 23 12.7228 23 12.5C23 12.2772 22.9115 12.0636 22.754 11.906C22.5964 11.7485 22.3828 11.66 22.16 11.66ZM18.737 7.46L19.9256 6.2714C20.0832 6.11378 20.1718 5.90001 20.1718 5.6771C20.1718 5.45419 20.0832 5.24042 19.9256 5.0828C19.768 4.92518 19.5542 4.83663 19.3313 4.83663C19.1084 4.83663 18.8946 4.92518 18.737 5.0828L17.54 6.263C17.3813 6.42173 17.2921 6.63702 17.2921 6.8615C17.2921 7.08598 17.3813 7.30127 17.54 7.46C17.6987 7.61873 17.914 7.70791 18.1385 7.70791C18.363 7.70791 18.5783 7.61873 18.737 7.46ZM12.5 6.2712C11.2681 6.2712 10.0638 6.63651 9.03947 7.32095C8.01515 8.00538 7.21679 8.97818 6.74534 10.1164C6.2739 11.2545 6.15055 12.5069 6.39089 13.7152C6.48819 14.2044 6.64333 14.6774 6.85134 15.125H8.76181C8.57051 14.8526 8.40861 14.5587 8.27992 14.248C7.9342 13.4134 7.84374 12.4949 8.01999 11.6089C8.19624 10.7228 8.63128 9.90891 9.2701 9.27009C9.90892 8.63128 10.7228 8.19624 11.6089 8.01999C12.4949 7.84374 13.4134 7.9342 14.248 8.27992C15.0827 8.62565 15.7961 9.21111 16.298 9.96228C16.7999 10.7135 17.0678 11.5966 17.0678 12.5C17.0678 13.4458 16.7745 14.3613 16.2382 15.125H18.1487C18.5292 14.3061 18.7288 13.4106 18.7288 12.5C18.7288 10.848 18.0726 9.26371 16.9045 8.09558C15.7363 6.92745 14.152 6.2712 12.5 6.2712Z" fill="white"/>
<path d="M3 21.925C3 21.4832 3.35817 21.125 3.8 21.125H21.2C21.6418 21.125 22 21.4832 22 21.925C22 22.3668 21.6418 22.725 21.2 22.725H3.8C3.35817 22.725 3 22.3668 3 21.925Z" fill="white"/>
<path d="M5 18.925C5 18.4832 5.35817 18.125 5.8 18.125H19.2C19.6418 18.125 20 18.4832 20 18.925C20 19.3668 19.6418 19.725 19.2 19.725H5.8C5.35817 19.725 5 19.3668 5 18.925Z" fill="white"/>
<path d="M3 15.925C3 15.4832 3.35817 15.125 3.8 15.125H21.2C21.6418 15.125 22 15.4832 22 15.925C22 16.3668 21.6418 16.725 21.2 16.725H3.8C3.35817 16.725 3 16.3668 3 15.925Z" fill="white"/>
</svg>
