<svg width="24" height="24" viewBox="0 0 24 24" fill="none" xmlns="http://www.w3.org/2000/svg">
<path d="M12 8.84C12.2546 8.84 12.4988 8.73886 12.6788 8.55882C12.8589 8.37879 12.96 8.13461 12.96 7.88V5.96C12.96 5.70539 12.8589 5.46121 12.6788 5.28118C12.4988 5.10114 12.2546 5 12 5C11.7454 5 11.5012 5.10114 11.3212 5.28118C11.1411 5.46121 11.04 5.70539 11.04 5.96V7.88C11.04 8.13461 11.1411 8.37879 11.3212 8.55882C11.5012 8.73886 11.7454 8.84 12 8.84ZM4.872 11.24C5.05341 11.4214 5.29945 11.5233 5.556 11.5233C5.81255 11.5233 6.05859 11.4214 6.24 11.24C6.42141 11.0586 6.52332 10.8125 6.52332 10.556C6.52332 10.2994 6.42141 10.0534 6.24 9.872L4.872 8.5136C4.78281 8.42441 4.67692 8.35365 4.56038 8.30538C4.44384 8.25711 4.31894 8.23227 4.1928 8.23227C3.93805 8.23227 3.69374 8.33346 3.5136 8.5136C3.42441 8.60279 3.35365 8.70868 3.30538 8.82522C3.25711 8.94176 3.23227 9.06666 3.23227 9.1928C3.23227 9.44755 3.33346 9.69186 3.5136 9.872L4.872 11.24ZM3.84 17C3.84 16.7454 3.73886 16.5012 3.55882 16.3212C3.37879 16.1411 3.13461 16.04 2.88 16.04H0.96C0.705392 16.04 0.461212 16.1411 0.281177 16.3212C0.101143 16.5012 0 16.7454 0 17C0 17.2546 0.101143 17.4988 0.281177 17.6788C0.461212 17.8589 0.705392 17.96 0.96 17.96H2.88C3.13461 17.96 3.37879 17.8589 3.55882 17.6788C3.73886 17.4988 3.84 17.2546 3.84 17ZM23.04 16.04H21.12C20.8654 16.04 20.6212 16.1411 20.4412 16.3212C20.2611 16.5012 20.16 16.7454 20.16 17C20.16 17.2546 20.2611 17.4988 20.4412 17.6788C20.6212 17.8589 20.8654 17.96 21.12 17.96H23.04C23.2946 17.96 23.5388 17.8589 23.7188 17.6788C23.8989 17.4988 24 17.2546 24 17C24 16.7454 23.8989 16.5012 23.7188 16.3212C23.5388 16.1411 23.2946 16.04 23.04 16.04ZM19.128 11.24L20.4864 9.8816C20.6665 9.70146 20.7677 9.45715 20.7677 9.2024C20.7677 8.94765 20.6665 8.70333 20.4864 8.5232C20.3063 8.34306 20.0619 8.24187 19.8072 8.24187C19.5525 8.24187 19.3081 8.34306 19.128 8.5232L17.76 9.872C17.5786 10.0534 17.4767 10.2994 17.4767 10.556C17.4767 10.8125 17.5786 11.0586 17.76 11.24C17.9414 11.4214 18.1874 11.5233 18.444 11.5233C18.7005 11.5233 18.9466 11.4214 19.128 11.24ZM12 9.88137C10.5921 9.88137 9.21577 10.2989 8.04511 11.0811C6.87446 11.8633 5.96204 12.9751 5.42325 14.2758C4.88446 15.5766 4.74348 17.0079 5.01816 18.3888C5.12936 18.9478 5.30667 19.4885 5.54439 20H7.72778C7.50915 19.6887 7.32412 19.3528 7.17705 18.9978C6.78194 18.0439 6.67856 16.9942 6.87999 15.9816C7.08142 14.9689 7.5786 14.0388 8.30868 13.3087C9.03876 12.5786 9.96893 12.0814 10.9816 11.88C11.9942 11.6786 13.0439 11.7819 13.9978 12.1771C14.9516 12.5722 15.767 13.2413 16.3406 14.0997C16.9142 14.9582 17.2204 15.9675 17.2204 17C17.2204 18.0809 16.8851 19.1272 16.2723 20H18.4557C18.8905 19.0641 19.1187 18.0407 19.1187 17C19.1187 15.112 18.3687 13.3014 17.0337 11.9664C15.6987 10.6314 13.888 9.88137 12 9.88137Z" fill="white"/>
</svg>
