<svg width="24" height="24" viewBox="0 0 24 24" fill="none" xmlns="http://www.w3.org/2000/svg">
<path d="M1 16.8C1 16.3582 1.35817 16 1.8 16H22.2C22.6418 16 23 16.3582 23 16.8C23 17.2418 22.6418 17.6 22.2 17.6H1.8C1.35817 17.6 1 17.2418 1 16.8Z" fill="white"/>
<path d="M1 11.8C1 11.3582 1.35817 11 1.8 11H22.2C22.6418 11 23 11.3582 23 11.8C23 12.2418 22.6418 12.6 22.2 12.6H1.8C1.35817 12.6 1 12.2418 1 11.8Z" fill="white"/>
<path d="M1 6.8C1 6.35817 1.35817 6 1.8 6H22.2C22.6418 6 23 6.35817 23 6.8C23 7.24183 22.6418 7.6 22.2 7.6H1.8C1.35817 7.6 1 7.24183 1 6.8Z" fill="white"/>
</svg>
