<svg width="24" height="24" viewBox="0 0 24 24" fill="none" xmlns="http://www.w3.org/2000/svg">
<path fill-rule="evenodd" clip-rule="evenodd" d="M12.6788 3.55882C12.4988 3.73886 12.2546 3.84 12 3.84C11.7454 3.84 11.5012 3.73886 11.3212 3.55882C11.1411 3.37879 11.04 3.13461 11.04 2.88V0.96C11.04 0.705392 11.1411 0.461212 11.3212 0.281177C11.5012 0.101143 11.7454 0 12 0C12.2546 0 12.4988 0.101143 12.6788 0.281177C12.8589 0.461212 12.96 0.705392 12.96 0.96V2.88C12.96 3.13461 12.8589 3.37879 12.6788 3.55882ZM5.556 6.52332C5.29945 6.52332 5.05341 6.42141 4.872 6.24L3.5136 4.872C3.33346 4.69186 3.23227 4.44755 3.23227 4.1928C3.23227 4.06666 3.25711 3.94176 3.30538 3.82522C3.35365 3.70868 3.42441 3.60279 3.5136 3.5136C3.69374 3.33346 3.93805 3.23227 4.1928 3.23227C4.31894 3.23227 4.44384 3.25711 4.56038 3.30538C4.67692 3.35365 4.78281 3.42441 4.872 3.5136L6.24 4.872C6.42141 5.05341 6.52332 5.29945 6.52332 5.556C6.52332 5.81255 6.42141 6.05859 6.24 6.24C6.05859 6.42141 5.81255 6.52332 5.556 6.52332ZM3.55882 11.3212C3.73886 11.5012 3.84 11.7454 3.84 12C3.84 12.2546 3.73886 12.4988 3.55882 12.6788C3.37879 12.8589 3.13461 12.96 2.88 12.96H0.96C0.705392 12.96 0.461212 12.8589 0.281177 12.6788C0.101143 12.4988 0 12.2546 0 12C0 11.7454 0.101143 11.5012 0.281177 11.3212C0.461212 11.1411 0.705392 11.04 0.96 11.04H2.88C3.13461 11.04 3.37879 11.1411 3.55882 11.3212ZM3.5136 19.128L4.872 17.76C5.05341 17.5786 5.29945 17.4767 5.556 17.4767C5.81255 17.4767 6.05859 17.5786 6.24 17.76C6.42141 17.9414 6.52332 18.1874 6.52332 18.444C6.52332 18.7005 6.42141 18.9466 6.24 19.128L4.872 20.4864C4.69186 20.6665 4.44755 20.7677 4.1928 20.7677C3.93805 20.7677 3.69374 20.6665 3.5136 20.4864C3.33346 20.3063 3.23227 20.0619 3.23227 19.8072C3.23227 19.5525 3.33347 19.3081 3.5136 19.128ZM11.3212 20.4412C11.5012 20.2611 11.7454 20.16 12 20.16C12.2546 20.16 12.4988 20.2611 12.6788 20.4412C12.8589 20.6212 12.96 20.8654 12.96 21.12V23.04C12.96 23.2946 12.8589 23.5388 12.6788 23.7188C12.4988 23.8989 12.2546 24 12 24C11.7454 24 11.5012 23.8989 11.3212 23.7188C11.1411 23.5388 11.04 23.2946 11.04 23.04V21.12C11.04 20.8654 11.1411 20.6212 11.3212 20.4412ZM18.444 17.4767C18.7005 17.4767 18.9466 17.5786 19.128 17.76L20.4768 19.128C20.6569 19.3081 20.7581 19.5525 20.7581 19.8072C20.7581 20.0619 20.6569 20.3063 20.4768 20.4864C20.2967 20.6665 20.0523 20.7677 19.7976 20.7677C19.5429 20.7677 19.2985 20.6665 19.1184 20.4864L17.76 19.128C17.5786 18.9466 17.4767 18.7005 17.4767 18.444C17.4767 18.1874 17.5786 17.9414 17.76 17.76C17.9414 17.5786 18.1874 17.4767 18.444 17.4767ZM21.12 11.04H23.04C23.2946 11.04 23.5388 11.1411 23.7188 11.3212C23.8989 11.5012 24 11.7454 24 12C24 12.2546 23.8989 12.4988 23.7188 12.6788C23.5388 12.8589 23.2946 12.96 23.04 12.96H21.12C20.8654 12.96 20.6212 12.8589 20.4412 12.6788C20.2611 12.4988 20.16 12.2546 20.16 12C20.16 11.7454 20.2611 11.5012 20.4412 11.3212C20.6212 11.1411 20.8654 11.04 21.12 11.04ZM20.4864 4.8816L19.128 6.24C18.9466 6.42141 18.7005 6.52332 18.444 6.52332C18.1874 6.52332 17.9414 6.42141 17.76 6.24C17.5786 6.05859 17.4767 5.81255 17.4767 5.556C17.4767 5.29945 17.5786 5.05341 17.76 4.872L19.128 3.5232C19.3081 3.34306 19.5525 3.24187 19.8072 3.24187C20.0619 3.24187 20.3063 3.34306 20.4864 3.5232C20.6665 3.70333 20.7677 3.94765 20.7677 4.2024C20.7677 4.45715 20.6665 4.70146 20.4864 4.8816ZM8.04511 6.08108C9.21577 5.29887 10.5921 4.88137 12 4.88137C13.888 4.88137 15.6987 5.63137 17.0337 6.96637C18.3687 8.30138 19.1187 10.112 19.1187 12C19.1187 13.4079 18.7012 14.7843 17.919 15.9549C17.1367 17.1256 16.025 18.038 14.7242 18.5768C13.4234 19.1156 11.9921 19.2565 10.6112 18.9819C9.23036 18.7072 7.96194 18.0292 6.96638 17.0337C5.97082 16.0381 5.29283 14.7697 5.01816 13.3888C4.74348 12.0079 4.88446 10.5766 5.42325 9.27583C5.96204 7.97507 6.87446 6.86329 8.04511 6.08108ZM9.09975 16.3406C9.95823 16.9142 10.9675 17.2204 12 17.2204C13.3845 17.2204 14.7124 16.6704 15.6914 15.6914C16.6704 14.7123 17.2204 13.3845 17.2204 12C17.2204 10.9675 16.9142 9.95823 16.3406 9.09975C15.767 8.24127 14.9516 7.57217 13.9978 7.17705C13.0439 6.78194 11.9942 6.67856 10.9816 6.87998C9.96893 7.08141 9.03876 7.5786 8.30868 8.30868C7.5786 9.03876 7.08142 9.96893 6.87999 10.9816C6.67856 11.9942 6.78194 13.0439 7.17705 13.9978C7.57217 14.9516 8.24127 15.7669 9.09975 16.3406Z" fill="white"/>
</svg>
