<svg width="24" height="24" viewBox="0 0 24 24" fill="none" xmlns="http://www.w3.org/2000/svg">
<path d="M14.7 5.976C14.8973 5.976 15.0866 5.89761 15.2261 5.75808C15.3656 5.61856 15.444 5.42932 15.444 5.232V3.744C15.444 3.54668 15.3656 3.35744 15.2261 3.21791C15.0866 3.07839 14.8973 3 14.7 3C14.5027 3 14.3135 3.07839 14.1739 3.21791C14.0344 3.35744 13.956 3.54668 13.956 3.744V5.232C13.956 5.42932 14.0344 5.61856 14.1739 5.75808C14.3135 5.89761 14.5027 5.976 14.7 5.976ZM9.17582 7.836C9.31641 7.97659 9.5071 8.05557 9.70592 8.05557C9.90475 8.05557 10.0954 7.97659 10.236 7.836C10.3766 7.6954 10.4556 7.50472 10.4556 7.3059C10.4556 7.10707 10.3766 6.91639 10.236 6.7758L9.17582 5.72304C9.1067 5.65391 9.02463 5.59908 8.93432 5.56167C8.844 5.52426 8.7472 5.505 8.64944 5.505C8.45201 5.505 8.26267 5.58343 8.12306 5.72304C8.05394 5.79216 7.9991 5.87423 7.96169 5.96454C7.92428 6.05486 7.90503 6.15166 7.90503 6.24942C7.90503 6.44685 7.98346 6.63619 8.12306 6.7758L9.17582 7.836ZM23.256 11.556H21.768C21.5707 11.556 21.3815 11.6344 21.2419 11.7739C21.1024 11.9134 21.024 12.1027 21.024 12.3C21.024 12.4973 21.1024 12.6866 21.2419 12.8261C21.3815 12.9656 21.5707 13.044 21.768 13.044H23.256C23.4533 13.044 23.6426 12.9656 23.7821 12.8261C23.9216 12.6866 24 12.4973 24 12.3C24 12.1027 23.9216 11.9134 23.7821 11.7739C23.6426 11.6344 23.4533 11.556 23.256 11.556ZM20.2242 7.836L21.277 6.78324C21.4166 6.64363 21.495 6.45429 21.495 6.25686C21.495 6.05943 21.4166 5.87008 21.277 5.73048C21.1374 5.59087 20.948 5.51244 20.7506 5.51244C20.5532 5.51244 20.3638 5.59087 20.2242 5.73048L19.164 6.7758C19.0234 6.91639 18.9444 7.10707 18.9444 7.3059C18.9444 7.50472 19.0234 7.6954 19.164 7.836C19.3046 7.97659 19.4953 8.05557 19.6941 8.05557C19.8929 8.05557 20.0836 7.97659 20.2242 7.836Z" fill="white"/>
<path d="M11.5332 7.56072C12.4706 6.9344 13.5726 6.6001 14.7 6.6001C16.2117 6.6001 17.6615 7.20063 18.7305 8.26959C19.7995 9.33854 20.4 10.7884 20.4 12.3001C20.4 13.3531 20.1083 14.3841 19.5594 15.2793L18.5485 13.9314C18.7652 13.4202 18.88 12.8661 18.88 12.3001C18.88 11.4734 18.6348 10.6652 18.1755 9.97781C17.7162 9.29041 17.0634 8.75465 16.2996 8.43828C15.5358 8.12191 14.6954 8.03913 13.8845 8.20041C13.0737 8.3617 12.3289 8.75981 11.7443 9.34439C11.5259 9.56278 11.3335 9.80353 11.1698 10.0617L9.57919 9.79663C10.0206 8.89367 10.6941 8.12144 11.5332 7.56072Z" fill="white"/>
<path d="M16.2559 20.1481C17.4421 19.9464 18.4549 19.1064 18.8834 17.9134C19.3256 16.6823 19.0791 15.3189 18.2523 14.3482L18.2487 14.344C17.4355 13.3827 16.1789 12.9671 14.9765 13.2399L13.9093 13.4821L13.2967 12.5754C12.2577 11.0378 10.4372 10.3148 8.68894 10.7041C6.93786 11.094 5.56092 12.5378 5.2384 14.3956L5.01233 15.6978L3.69087 15.7217C2.89987 15.736 2.15484 16.2189 1.80051 17.0107C1.44614 17.8025 1.56993 18.7293 2.10435 19.3868L2.10889 19.3924C2.50374 19.8826 3.09528 20.1512 4.16664 20.1566C4.17959 20.1562 4.19155 20.156 4.20123 20.1558C4.2294 20.1552 4.26312 20.1547 4.299 20.1544C4.37198 20.1537 4.47219 20.1531 4.59432 20.1527C4.83948 20.1519 5.18446 20.1516 5.60169 20.1517C6.43619 20.1517 7.56684 20.1531 8.78232 20.1546L8.78423 20.1546C10.5007 20.1568 12.3867 20.1591 13.8542 20.1582C14.5883 20.1578 15.2152 20.1565 15.6628 20.154C15.8873 20.1528 16.0625 20.1512 16.1821 20.1494C16.2116 20.149 16.236 20.1485 16.2559 20.1481ZM4.2 21.7567C2.83644 21.7567 1.67779 21.4079 0.862795 20.396C-0.0561943 19.2655 -0.258536 17.6948 0.340071 16.3571C0.938679 15.0194 2.22869 14.1478 3.66198 14.1219C4.09196 11.6451 5.93831 9.67741 8.34117 9.14234C10.744 8.60728 13.2228 9.60837 14.6224 11.6796C16.4098 11.274 18.2731 11.8954 19.4703 13.3107C20.6759 14.7261 21.0216 16.6937 20.3892 18.4542C19.7569 20.2148 18.2309 21.4748 16.4182 21.7423C16.3328 21.764 12.2142 21.7589 8.78224 21.7546C6.34937 21.7516 4.26102 21.749 4.2 21.7567Z" fill="white"/>
</svg>
