<svg width="24" height="24" viewBox="0 0 24 24" fill="none" xmlns="http://www.w3.org/2000/svg">
<path d="M12.141 15.5436L12.1516 15.5437H12.1788C13.5985 15.5638 14.7527 16.7045 14.7527 18.1204C14.7527 19.5491 13.5777 20.6972 12.1406 20.6972C11.1882 20.6972 10.3225 20.189 9.86256 19.3819C9.64726 19.0041 9.779 18.5233 10.1568 18.308C10.5346 18.0927 11.0154 18.2245 11.2307 18.6023C11.4111 18.9188 11.7552 19.1225 12.1406 19.1225C12.7209 19.1225 13.178 18.6665 13.178 18.1204C13.178 17.5766 12.7247 17.1222 12.1479 17.1184H4.01195C3.57711 17.1184 3.2246 16.7658 3.2246 16.331C3.2246 15.8962 3.57711 15.5437 4.01195 15.5437H12.1347L12.141 15.5436ZM0 12.9451C0 12.5102 0.352509 12.1577 0.787351 12.1577L19.9303 12.1577C22.0122 12.1577 23.7 13.8455 23.7 15.9275C23.7 18.0094 22.0122 19.6972 19.9303 19.6972C18.2378 19.6972 16.7666 18.5723 16.3065 16.969C16.1865 16.551 16.4281 16.1149 16.8461 15.995C17.264 15.875 17.7001 16.1166 17.8201 16.5346C18.0877 17.4671 18.9448 18.1225 19.9303 18.1225C21.1425 18.1225 22.1253 17.1397 22.1253 15.9275C22.1253 14.7152 21.1425 13.7324 19.9303 13.7324L0.78735 13.7324C0.352507 13.7324 0 13.3799 0 12.9451Z" fill="white"/>
<path d="M9 10C9 10.5523 9.44772 11 10 11C10.5523 11 11 10.5523 11 10C11 9.44772 10.5523 9 10 9C9.44772 9 9 9.44772 9 10Z" fill="white"/>
<path d="M13 5C13 5.55228 13.4477 6 14 6C14.5523 6 15 5.55228 15 5C15 4.44772 14.5523 4 14 4C13.4477 4 13 4.44772 13 5Z" fill="white"/>
<path d="M17 10C17 10.5523 17.4477 11 18 11C18.5523 11 19 10.5523 19 10C19 9.44772 18.5523 9 18 9C17.4477 9 17 9.44772 17 10Z" fill="white"/>
<path d="M5 5C5 5.55228 5.44772 6 6 6C6.55228 6 7 5.55228 7 5C7 4.44772 6.55228 4 6 4C5.44772 4 5 4.44772 5 5Z" fill="white"/>
<path d="M1 10C1 10.5523 1.44772 11 2 11C2.55228 11 3 10.5523 3 10C3 9.44772 2.55228 9 2 9C1.44772 9 1 9.44772 1 10Z" fill="white"/>
</svg>
