<svg width="24" height="24" viewBox="0 0 24 24" fill="none" xmlns="http://www.w3.org/2000/svg">
<path d="M4 16.9551C3.17958 16.8419 2.63236 16.5387 2.23393 16.044L2.23394 16.044L2.2294 16.0384C1.56178 15.2171 1.40867 14.0627 1.84979 13.0769C2.29088 12.0913 3.22287 11.482 4.2216 11.464L5.54306 11.4401L5.76912 10.1379C6.15396 7.92115 7.79849 6.1922 9.89781 5.72472C11.9943 5.25787 14.1741 6.12597 15.4159 7.96376L16.0285 8.87045L17.0957 8.62828C18.5572 8.29663 20.0838 8.80228 21.0705 9.96878L21.0741 9.97299C22.0756 11.1487 22.3722 12.7974 21.8384 14.2836C21.4924 15.2468 20.8307 16.0218 20 16.5036V18.2726C21.5321 17.6817 22.7653 16.4363 23.3442 14.8244C24.0682 12.8087 23.6725 10.5559 22.2921 8.93545C20.9214 7.31499 18.788 6.60355 16.7416 7.06795C15.1392 4.69654 12.3012 3.55036 9.55005 4.16297C6.79894 4.77559 4.685 7.02845 4.1927 9.86426C2.55169 9.8939 1.07472 10.8918 0.389357 12.4234C-0.296006 13.9549 -0.0643385 15.7532 0.987839 17.0476C1.75523 18.0004 2.78874 18.4397 4 18.5657V16.9551Z" fill="white"/>
<path d="M7.15292 13H6V19.9147H7.15292V16.4879C7.24636 16.3095 7.37127 16.1665 7.52797 16.0558C7.68808 15.9428 7.87535 15.8844 8.09687 15.8844C8.38505 15.8844 8.55839 15.9571 8.65869 16.0651L8.65988 16.0664C8.76591 16.1784 8.83762 16.3705 8.84037 16.6799V19.9147H9.9933L9.9933 16.6834L9.99329 16.682C9.98885 16.1087 9.85868 15.6452 9.57168 15.3242C9.28103 14.9991 8.85754 14.8509 8.3357 14.8509C7.88055 14.8509 7.48423 14.9821 7.15292 15.2423V13ZM17.2264 13.8188H16.0735V14.9362H15.2333V15.91H16.0735V18.5898C16.0735 19.0077 16.1688 19.358 16.3848 19.6152C16.6074 19.8801 16.9309 20 17.3217 20C17.5356 20 17.7537 19.969 17.9754 19.9082L18.1093 19.8716V18.8679L17.8892 18.9151C17.7343 18.9483 17.6239 18.9622 17.552 18.9622C17.3928 18.9622 17.3268 18.9229 17.2995 18.8913C17.2606 18.8429 17.2264 18.7523 17.2264 18.5898V15.91H18.0879V14.9362H17.2264V13.8188ZM12.8777 14.8509C12.4405 14.8509 12.0444 14.9569 11.6948 15.1722L11.6941 15.1726C11.3474 15.3882 11.078 15.6935 10.8851 16.0822L10.8846 16.0833C10.6948 16.4722 10.6017 16.9066 10.6017 17.3828V17.4383C10.6017 18.1886 10.8054 18.8113 11.2282 19.2869C11.6549 19.7635 12.2132 20 12.8863 20C13.3316 20 13.7324 19.8928 14.0827 19.674C14.4346 19.456 14.7034 19.152 14.8883 18.7669C15.0751 18.381 15.1665 17.9497 15.1665 17.4766V17.4212C15.1665 16.6654 14.962 16.04 14.5361 15.5643C14.1119 15.0872 13.5533 14.8509 12.8777 14.8509ZM12.0793 16.2571C12.2839 15.9917 12.545 15.8631 12.8777 15.8631C13.2192 15.8631 13.4838 15.9945 13.688 16.2644L13.6891 16.2658C13.9 16.5387 14.0136 16.9056 14.0136 17.3828C14.0136 17.9257 13.9001 18.3226 13.6961 18.5957C13.4954 18.8614 13.2315 18.9921 12.8863 18.9921C12.5437 18.9921 12.2791 18.8626 12.0754 18.5986C11.8704 18.329 11.7589 17.9609 11.7589 17.4766C11.7589 16.9213 11.8743 16.5232 12.0793 16.2571Z" fill="white"/>
</svg>
