<svg width="24" height="24" viewBox="0 0 24 24" fill="none" xmlns="http://www.w3.org/2000/svg">
<path d="M3.14853 16.7322C2.77076 16.5727 2.47509 16.3434 2.23393 16.044L2.23394 16.044L2.2294 16.0384C1.56178 15.2171 1.40867 14.0627 1.84979 13.0769C2.29088 12.0913 3.22287 11.482 4.2216 11.464L5.54306 11.4401L5.76912 10.1379C6.15396 7.92115 7.79849 6.1922 9.89781 5.72472C11.9943 5.25787 14.1741 6.12597 15.4159 7.96376L16.0285 8.87045L17.0957 8.62828C18.5572 8.29663 20.0838 8.80228 21.0705 9.96878L21.0741 9.97299C22.0756 11.1487 22.3722 12.7974 21.8384 14.2836C21.6334 14.8545 21.3174 15.3592 20.921 15.776C21.0521 16.4652 21.0212 17.1859 20.819 17.8783C21.9668 17.2073 22.8726 16.1375 23.3442 14.8244C24.0682 12.8087 23.6725 10.5559 22.2921 8.93545C20.9214 7.31499 18.788 6.60355 16.7416 7.06795C15.1392 4.69654 12.3012 3.55036 9.55005 4.16297C6.79894 4.77559 4.685 7.02845 4.1927 9.86426C2.55169 9.8939 1.07472 10.8918 0.389357 12.4234C-0.296006 13.9549 -0.0643385 15.7532 0.987839 17.0476C1.5502 17.7458 2.25546 18.1683 3.06886 18.3938C2.95648 17.8483 2.98071 17.276 3.14853 16.7322Z" fill="white"/>
<path d="M17.1169 19.3915C18.0723 19.2252 18.8825 18.5529 19.2254 17.6063C19.5817 16.6228 19.3833 15.5347 18.7171 14.7593L18.7135 14.755L18.7135 14.755C18.0583 13.9871 17.0422 13.6517 16.0664 13.8713L15.0054 14.11L14.393 13.2113C13.5395 11.959 12.0407 11.3666 10.5982 11.6851C9.15441 12.0039 8.02468 13.1823 7.76035 14.692L7.53271 15.9921L6.21298 16.0158C5.60147 16.0267 5.02689 16.3968 4.75406 17.0013C4.48187 17.6044 4.57676 18.3098 4.98758 18.811L4.99216 18.8165L4.99215 18.8165C5.28002 19.1709 5.72297 19.3934 6.62069 19.3985C6.63148 19.3981 6.64128 19.3979 6.64916 19.3977C6.67474 19.3972 6.70492 19.3968 6.73636 19.3965C6.80046 19.3959 6.88811 19.3954 6.99442 19.3951C7.20795 19.3944 7.50821 19.3941 7.87105 19.3942C8.59714 19.3942 9.58095 19.3954 10.6383 19.3967H10.6387C12.1314 19.3986 13.7711 19.4006 15.047 19.3998C15.6853 19.3994 16.23 19.3984 16.6188 19.3962C16.8138 19.3951 16.9654 19.3938 17.0685 19.3923C17.087 19.392 17.1031 19.3917 17.1169 19.3915ZM6.65217 20.9985C5.46648 20.9985 4.45895 20.6978 3.75026 19.8254C2.95114 18.8506 2.77519 17.4964 3.29571 16.3431C3.81624 15.1898 4.93799 14.4383 6.18433 14.416C6.55823 12.2805 8.16375 10.584 10.2532 10.1227C12.3426 9.6614 14.4981 10.5245 15.7151 12.3103C17.2694 11.9606 18.8896 12.4963 19.9307 13.7166C20.9791 14.9369 21.2796 16.6333 20.7298 18.1512C20.1799 19.6691 18.853 20.7554 17.2767 20.9861C17.2024 21.0048 13.6211 21.0004 10.6367 20.9967H10.636C8.52053 20.9941 6.70523 20.9919 6.65217 20.9985Z" fill="white"/>
</svg>
