<svg width="24" height="24" viewBox="0 0 24 24" fill="none" xmlns="http://www.w3.org/2000/svg">
<path d="M4 15.9551C3.17958 15.8419 2.63236 15.5387 2.23393 15.044L2.23394 15.044L2.2294 15.0384C1.56178 14.2171 1.40867 13.0627 1.84979 12.0769C2.29088 11.0913 3.22287 10.482 4.2216 10.464L5.54306 10.4401L5.76912 9.13793C6.15396 6.92115 7.79849 5.1922 9.89781 4.72472C11.9943 4.25787 14.1741 5.12597 15.4159 6.96376L16.0285 7.87045L17.0957 7.62828C18.5572 7.29663 20.0838 7.80228 21.0705 8.96878L21.0741 8.97299C22.0756 10.1487 22.3722 11.7974 21.8384 13.2836C21.4924 14.2468 20.8307 15.0218 20 15.5036V17.2726C21.5321 16.6817 22.7653 15.4363 23.3442 13.8244C24.0682 11.8087 23.6725 9.55592 22.2921 7.93545C20.9214 6.31499 18.788 5.60355 16.7416 6.06795C15.1392 3.69654 12.3012 2.55036 9.55005 3.16297C6.79894 3.77559 4.685 6.02845 4.1927 8.86426C2.55169 8.8939 1.07472 9.89184 0.389357 11.4234C-0.296006 12.9549 -0.0643385 14.7532 0.987839 16.0476C1.75523 17.0004 2.78874 17.4397 4 17.5657V15.9551Z" fill="white"/>
<path d="M13.3107 13.1699C13.6895 13.3974 13.8122 13.8888 13.5848 14.2676L11.9133 17.052H13.5C13.7882 17.052 14.0541 17.2069 14.1961 17.4577C14.3381 17.7084 14.3343 18.0161 14.1862 18.2633L11.786 22.2672C11.5588 22.6461 11.0675 22.7692 10.6885 22.542C10.3096 22.3148 10.1865 21.8235 10.4137 21.4445L12.0877 18.652H10.5C10.2117 18.652 9.94578 18.4969 9.80379 18.246C9.6618 17.9952 9.66574 17.6873 9.8141 17.4402L12.213 13.4441C12.4404 13.0653 12.9319 12.9425 13.3107 13.1699Z" fill="white"/>
<path d="M8.6 18.5487V14.6C8.6 14.1582 8.24183 13.8 7.8 13.8C7.35817 13.8 7 14.1582 7 14.6V18.5487C7 18.9905 7.35817 19.3487 7.8 19.3487C8.24183 19.3487 8.6 18.9905 8.6 18.5487Z" fill="white"/>
<path d="M17 18.5487V14.6C17 14.1582 16.6419 13.8 16.2 13.8C15.7582 13.8 15.4 14.1582 15.4 14.6V18.5487C15.4 18.9905 15.7582 19.3487 16.2 19.3487C16.6419 19.3487 17 18.9905 17 18.5487Z" fill="white"/>
</svg>
