<svg width="24" height="24" viewBox="0 0 24 24" fill="none" xmlns="http://www.w3.org/2000/svg">
<path d="M4 15.9551C3.17958 15.8419 2.63236 15.5387 2.23393 15.044L2.23394 15.044L2.2294 15.0384C1.56178 14.2171 1.40867 13.0627 1.84979 12.0769C2.29088 11.0913 3.22287 10.482 4.2216 10.464L5.54306 10.4401L5.76912 9.13793C6.15396 6.92115 7.79849 5.1922 9.89781 4.72472C11.9943 4.25787 14.1741 5.12597 15.4159 6.96376L16.0285 7.87045L17.0957 7.62828C18.5572 7.29663 20.0838 7.80228 21.0705 8.96878L21.0741 8.97299C22.0756 10.1487 22.3722 11.7974 21.8384 13.2836C21.4924 14.2468 20.8307 15.0218 20 15.5036V17.2726C21.5321 16.6817 22.7653 15.4363 23.3442 13.8244C24.0682 11.8087 23.6725 9.55592 22.2921 7.93545C20.9214 6.31499 18.788 5.60355 16.7416 6.06795C15.1392 3.69654 12.3012 2.55036 9.55005 3.16297C6.79894 3.77559 4.685 6.02845 4.1927 8.86426C2.55169 8.8939 1.07472 9.89184 0.389357 11.4234C-0.296006 12.9549 -0.0643385 14.7532 0.987839 16.0476C1.75523 17.0004 2.78874 17.4397 4 17.5657V15.9551Z" fill="white"/>
<path d="M10.6107 13.1701C10.9895 13.3975 11.1122 13.8889 10.8848 14.2677L9.21333 17.0521H10.8C11.0882 17.0521 11.3541 17.207 11.4961 17.4578C11.6381 17.7085 11.6343 18.0162 11.4862 18.2634L9.08601 22.2673C8.85884 22.6462 8.36748 22.7693 7.98853 22.5421C7.60957 22.315 7.48652 21.8236 7.71369 21.4446L9.38771 18.6521H7.8C7.51175 18.6521 7.24579 18.497 7.10379 18.2462C6.9618 17.9953 6.96574 17.6875 7.1141 17.4403L9.51302 13.4442C9.74043 13.0654 10.2319 12.9427 10.6107 13.1701Z" fill="white"/>
<path d="M17.0808 17.4004C17.0446 17.2538 16.9591 17.1246 16.8397 17.034V17.0284L16.326 16.7318L16.7897 16.4641L16.793 16.4621C16.9369 16.3713 17.04 16.2284 17.0808 16.0633C17.1216 15.8982 17.0968 15.7237 17.0117 15.5765C16.9266 15.4292 16.7878 15.3207 16.6244 15.2736C16.4609 15.2265 16.2856 15.2444 16.1352 15.3238L15.6682 15.5912V15.0582C15.6682 14.8837 15.5988 14.7163 15.4755 14.593C15.3521 14.4696 15.1847 14.4003 15.0103 14.4003C14.8358 14.4003 14.6684 14.4696 14.545 14.593C14.4217 14.7163 14.3523 14.8837 14.3523 15.0582V15.5914L13.8882 15.3257C13.7373 15.2394 13.5584 15.2165 13.3907 15.2618C13.2229 15.3071 13.0799 15.417 12.9929 15.5675C12.9059 15.718 12.8821 15.8968 12.9266 16.0648C12.9711 16.2328 13.0808 16.3766 13.2308 16.4643L13.6945 16.732L13.231 16.9996C13.1559 17.0425 13.09 17.0999 13.0371 17.1684C12.9842 17.2369 12.9453 17.3152 12.9227 17.3988C12.9001 17.4824 12.8943 17.5697 12.9055 17.6556C12.9168 17.7414 12.9448 17.8242 12.9882 17.8992C13.0315 17.9742 13.0892 18.0399 13.158 18.0925C13.2268 18.1451 13.3053 18.1836 13.389 18.2057C13.4728 18.2279 13.56 18.2333 13.6458 18.2217C13.7316 18.21 13.8144 18.1814 13.8891 18.1378L14.3523 17.8704V18.4056C14.3523 18.5801 14.4217 18.7474 14.545 18.8708C14.6684 18.9942 14.8358 19.0635 15.0103 19.0635C15.1847 19.0635 15.3521 18.9942 15.4755 18.8708C15.5988 18.7474 15.6682 18.5801 15.6682 18.4056V17.8704L16.1318 18.1382L16.1352 18.1399C16.2856 18.2193 16.4609 18.2373 16.6244 18.1902C16.7878 18.1431 16.9266 18.0345 17.0117 17.8873C17.0968 17.74 17.1216 17.5656 17.0808 17.4004Z" fill="white"/>
</svg>
