<svg width="24" height="24" viewBox="0 0 24 24" fill="none" xmlns="http://www.w3.org/2000/svg">
<path d="M4 15.9551C3.17958 15.8419 2.63236 15.5387 2.23393 15.044L2.23394 15.044L2.2294 15.0384C1.56178 14.2171 1.40867 13.0627 1.84979 12.0769C2.29088 11.0913 3.22287 10.482 4.2216 10.464L5.54306 10.4401L5.76912 9.13793C6.15396 6.92115 7.79849 5.1922 9.89781 4.72472C11.9943 4.25787 14.1741 5.12597 15.4159 6.96376L16.0285 7.87045L17.0957 7.62828C18.5572 7.29663 20.0838 7.80228 21.0705 8.96878L21.0741 8.97299C22.0756 10.1487 22.3722 11.7974 21.8384 13.2836C21.4924 14.2468 20.8307 15.0218 20 15.5036V17.2726C21.5321 16.6817 22.7653 15.4363 23.3442 13.8244C24.0682 11.8087 23.6725 9.55592 22.2921 7.93545C20.9214 6.31499 18.788 5.60355 16.7416 6.06795C15.1392 3.69654 12.3012 2.55036 9.55005 3.16297C6.79894 3.77559 4.685 6.02845 4.1927 8.86426C2.55169 8.8939 1.07472 9.89184 0.389357 11.4234C-0.296006 12.9549 -0.0643385 14.7532 0.987839 16.0476C1.75523 17.0004 2.78874 17.4397 4 17.5657V15.9551Z" fill="white"/>
<path d="M8.6 18.5487V14.6C8.6 14.1582 8.24183 13.8 7.8 13.8C7.35817 13.8 7 14.1582 7 14.6V18.5487C7 18.9905 7.35817 19.3487 7.8 19.3487C8.24183 19.3487 8.6 18.9905 8.6 18.5487Z" fill="white"/>
<path d="M17 18.5487V14.6C17 14.1582 16.6419 13.8 16.2 13.8C15.7582 13.8 15.4 14.1582 15.4 14.6V18.5487C15.4 18.9905 15.7582 19.3487 16.2 19.3487C16.6419 19.3487 17 18.9905 17 18.5487Z" fill="white"/>
<path d="M13.8397 17.034C13.9592 17.1246 14.0446 17.2538 14.0808 17.4004C14.1216 17.5655 14.0968 17.74 14.0117 17.8873C13.9266 18.0345 13.7878 18.1431 13.6244 18.1902C13.461 18.2373 13.2857 18.2193 13.1353 18.1399L13.1319 18.1381L12.6682 17.8703V18.4056C12.6682 18.5801 12.5989 18.7474 12.4755 18.8708C12.3521 18.9942 12.1848 19.0635 12.0103 19.0635C11.8358 19.0635 11.6685 18.9942 11.5451 18.8708C11.4217 18.7474 11.3524 18.5801 11.3524 18.4056V17.8703L10.8891 18.1378C10.8144 18.1814 10.7316 18.21 10.6459 18.2216C10.5601 18.2333 10.4728 18.2279 10.3891 18.2057C10.3054 18.1835 10.2268 18.145 10.1581 18.0924C10.0893 18.0398 10.0315 17.9742 9.98821 17.8992C9.94488 17.8242 9.91679 17.7414 9.90555 17.6555C9.89431 17.5697 9.90016 17.4824 9.92274 17.3988C9.94532 17.3152 9.9842 17.2369 10.0371 17.1683C10.09 17.0999 10.1559 17.0425 10.231 16.9996L10.6946 16.732L10.2308 16.4642C10.0808 16.3765 9.97113 16.2327 9.92663 16.0647C9.88213 15.8967 9.90597 15.7179 9.99293 15.5675C10.0799 15.417 10.2229 15.3071 10.3907 15.2618C10.5585 15.2164 10.7374 15.2394 10.8883 15.3256L11.3524 15.5914V15.0581C11.3524 14.8837 11.4217 14.7163 11.5451 14.5929C11.6685 14.4696 11.8358 14.4002 12.0103 14.4002C12.1848 14.4002 12.3521 14.4696 12.4755 14.5929C12.5989 14.7163 12.6682 14.8837 12.6682 15.0581V15.5912L13.1352 15.3238C13.2856 15.2444 13.461 15.2264 13.6244 15.2735C13.7878 15.3207 13.9266 15.4292 14.0117 15.5765C14.0968 15.7237 14.1216 15.8982 14.0808 16.0633C14.04 16.2284 13.9369 16.3713 13.7931 16.462L13.7898 16.4641L13.326 16.7318L13.8397 17.0283V17.034Z" fill="white"/>
</svg>
