<svg width="24" height="24" viewBox="0 0 24 24" fill="none" xmlns="http://www.w3.org/2000/svg">
<path d="M12.044 10.8061H12C10.3151 10.8061 8.94535 11.0325 8.00316 11.3317C7.53093 11.4816 7.17431 11.6472 6.94029 11.8059C6.82318 11.8854 6.74349 11.9586 6.69485 12.0213C6.64586 12.0845 6.63736 12.1249 6.63736 12.144C6.63736 12.1628 6.64573 12.2029 6.69496 12.2659C6.74382 12.3285 6.82392 12.4015 6.94163 12.4807C7.17684 12.639 7.53508 12.8039 8.00898 12.9531C8.95365 13.2504 10.3251 13.4751 12.0081 13.4755C12.1347 13.4699 12.2606 13.4699 12.3834 13.4699H12.3939C14.0495 13.4332 15.5827 13.167 16.5546 12.7522C16.7641 12.6629 17.0072 12.6419 17.2333 12.6908C17.346 12.7152 17.4536 12.7567 17.5494 12.8145C17.6452 12.8724 17.729 12.9463 17.7932 13.0342C17.9252 13.2146 17.9626 13.4379 17.8847 13.6478C17.8086 13.8529 17.6364 14.0095 17.4275 14.0987C16.0897 14.6729 14.1267 14.9947 12.0413 14.995C10.9221 15.0236 10.03 15.1874 9.42329 15.3818C9.11863 15.4794 8.89315 15.5825 8.74827 15.6753C8.67547 15.7219 8.63013 15.7615 8.6052 15.7906C8.6028 15.7934 8.60071 15.7959 8.59888 15.7983C8.60157 15.8017 8.60484 15.8056 8.60882 15.8101C8.63762 15.8422 8.68908 15.8851 8.77016 15.9348C8.93143 16.0338 9.181 16.1426 9.51594 16.2435C10.1837 16.4446 11.1629 16.6058 12.3857 16.6058C13.0428 16.6071 13.6986 16.5545 14.3407 16.449C14.4558 16.4259 14.5752 16.4207 14.6925 16.4335C14.811 16.4465 14.9265 16.4778 15.032 16.5269C15.1375 16.5759 15.2326 16.6423 15.3095 16.7246C15.3866 16.807 15.4444 16.9042 15.4753 17.0114C15.5062 17.1189 15.5083 17.2311 15.4813 17.3397C15.4543 17.4479 15.3999 17.5469 15.3254 17.6315C15.2511 17.7159 15.1581 17.7847 15.054 17.8362C14.951 17.8871 14.8376 17.9208 14.7207 17.9366C13.9533 18.0634 13.1702 18.1261 12.3853 18.1236C11.009 18.1236 9.69468 17.9418 8.68629 17.6077C7.87091 17.3375 7.37909 17.0113 7.09019 16.6841C6.79787 16.353 6.72257 16.0313 6.72257 15.796C6.72257 15.5934 6.77718 15.3236 6.98321 15.0381C7.12416 14.8428 7.33214 14.6453 7.63242 14.4575C6.85938 14.2384 6.20736 13.9573 5.7217 13.6244C5.13708 13.2236 4.76076 12.7231 4.76076 12.1416C4.76076 11.6549 5.02223 11.2239 5.44673 10.8628C5.74513 10.6089 6.13211 10.3821 6.58979 10.1846C5.55844 9.91328 4.69175 9.5603 4.04962 9.14118C3.28416 8.64156 2.8 8.0208 2.8 7.30386C2.8 6.75877 3.08127 6.26709 3.55041 5.84529C4.01863 5.42432 4.68776 5.05915 5.50538 4.75876C7.14194 4.15749 9.41682 3.8 12 3.8C14.5833 3.8 16.8582 4.15912 18.4947 4.7614C19.3123 5.0623 19.9814 5.4278 20.4496 5.84865C20.9186 6.27028 21.2 6.76144 21.2 7.30546C21.2 7.84921 20.92 8.33956 20.4529 8.76027C19.9868 9.18012 19.3207 9.5443 18.507 9.8441C16.8782 10.4442 14.614 10.8021 12.044 10.8061ZM13.8084 18.4764C14.0092 18.3914 14.2405 18.369 14.4583 18.4107C14.6755 18.4524 14.8759 18.5575 15.0113 18.7178C15.149 18.8808 15.2077 19.089 15.1584 19.2966C15.1099 19.5009 14.9658 19.6675 14.7784 19.7739L14.7687 19.7794C14.2163 20.0534 13.4014 20.2 12.5355 20.2C11.741 20.2 10.9754 20.073 10.4335 19.8424L10.4317 19.8416C10.2252 19.7512 10.0558 19.5944 9.98172 19.3902C9.90592 19.1814 9.94388 18.96 10.0749 18.781C10.2032 18.6057 10.4065 18.4882 10.6301 18.4389C10.8543 18.3895 11.0955 18.409 11.3045 18.4959L11.3057 18.4964C11.5002 18.5789 11.9328 18.6798 12.5355 18.6798C13.1853 18.6798 13.6263 18.5637 13.7997 18.4803L13.8084 18.4764ZM6.44679 5.88038C5.20704 6.29086 4.46717 6.82377 4.46717 7.30386C4.46717 8.33367 7.68864 9.4843 12 9.4843C14.1106 9.4843 16.0871 9.21625 17.5543 8.72815C18.794 8.31687 19.5339 7.78396 19.5339 7.30386C19.5339 6.27486 16.3124 5.12343 12.0011 5.12343C9.89043 5.12343 7.91395 5.39228 6.44679 5.88038Z" fill="white"/>
</svg>
