<svg width="24" height="24" viewBox="0 0 24 24" fill="none" xmlns="http://www.w3.org/2000/svg">
<path d="M12.044 10.8059H12C10.315 10.8059 8.94533 11.0323 8.00314 11.3315C7.53091 11.4814 7.17429 11.647 6.94027 11.8057C6.82316 11.8852 6.74347 11.9584 6.69483 12.0211C6.64585 12.0843 6.63734 12.1247 6.63734 12.1438C6.63734 12.1626 6.64572 12.2027 6.69494 12.2657C6.74381 12.3283 6.8239 12.4013 6.94162 12.4805C7.17683 12.6388 7.53507 12.8037 8.00897 12.9529C8.95363 13.2502 10.3251 13.4749 12.0081 13.4753C12.1347 13.4697 12.2606 13.4697 12.3834 13.4697H12.3939C14.0495 13.433 15.5827 13.1668 16.5546 12.752C16.7641 12.6627 17.0072 12.6417 17.2333 12.6906C17.346 12.715 17.4535 12.7565 17.5494 12.8143C17.6452 12.8722 17.7289 12.9461 17.7932 13.034C17.9252 13.2144 17.9626 13.4377 17.8847 13.6476C17.8086 13.8527 17.6364 14.0093 17.4275 14.0985C16.0897 14.6727 14.1267 14.9945 12.0413 14.9948C10.9221 15.0234 10.03 15.1872 9.42327 15.3816C9.11861 15.4792 8.89313 15.5823 8.74826 15.6751C8.67545 15.7217 8.63012 15.7613 8.60518 15.7904C8.60279 15.7932 8.60069 15.7957 8.59887 15.7981C8.60156 15.8015 8.60483 15.8054 8.6088 15.8099C8.63761 15.842 8.68907 15.8849 8.77015 15.9346C8.93142 16.0336 9.18098 16.1424 9.51593 16.2433C10.1836 16.4444 11.1629 16.6056 12.3856 16.6056C13.0428 16.6069 13.6986 16.5543 14.3407 16.4488C14.4558 16.4257 14.5752 16.4205 14.6924 16.4333C14.811 16.4463 14.9265 16.4776 15.032 16.5267C15.1375 16.5757 15.2326 16.6421 15.3095 16.7244C15.3866 16.8068 15.4444 16.904 15.4752 17.0112C15.5062 17.1187 15.5083 17.2309 15.4813 17.3395C15.4543 17.4478 15.3999 17.5467 15.3254 17.6313C15.2511 17.7157 15.158 17.7845 15.054 17.836C14.951 17.8869 14.8376 17.9206 14.7207 17.9364C13.9533 18.0632 13.1702 18.1259 12.3853 18.1234C11.009 18.1234 9.69467 17.9416 8.68628 17.6075C7.8709 17.3373 7.37907 17.0111 7.09017 16.6839C6.79785 16.3528 6.72255 16.0311 6.72255 15.7958C6.72255 15.5932 6.77717 15.3234 6.9832 15.0379C7.12414 14.8426 7.33213 14.6451 7.63241 14.4573C6.85936 14.2382 6.20735 13.9571 5.72168 13.6242C5.13706 13.2235 4.76075 12.7229 4.76075 12.1414C4.76075 11.6547 5.02221 11.2237 5.44671 10.8626C5.74512 10.6087 6.1321 10.3819 6.58977 10.1844C5.55842 9.91308 4.69174 9.5601 4.0496 9.14098C3.28414 8.64137 2.79999 8.0206 2.79999 7.30367C2.79999 6.75857 3.08126 6.2669 3.5504 5.84509C4.01861 5.42412 4.68775 5.05895 5.50536 4.75856C7.14193 4.15729 9.4168 3.7998 12 3.7998C14.5833 3.7998 16.8582 4.15892 18.4947 4.7612C19.3123 5.0621 19.9814 5.42761 20.4496 5.84845C20.9186 6.27008 21.2 6.76125 21.2 7.30527C21.2 7.84901 20.92 8.33936 20.4529 8.76007C19.9868 9.17992 19.3207 9.5441 18.507 9.8439C16.8782 10.444 14.614 10.8019 12.044 10.8059ZM13.8084 18.4762C14.0091 18.3912 14.2405 18.3688 14.4583 18.4105C14.6755 18.4522 14.8759 18.5573 15.0113 18.7177C15.1489 18.8806 15.2077 19.0888 15.1584 19.2964C15.1099 19.5007 14.9658 19.6673 14.7784 19.7737L14.7687 19.7792C14.2163 20.0532 13.4013 20.1998 12.5355 20.1998C11.741 20.1998 10.9754 20.0729 10.4335 19.8422L10.4317 19.8414C10.2252 19.751 10.0558 19.5942 9.9817 19.39C9.9059 19.1812 9.94386 18.9598 10.0749 18.7808C10.2032 18.6055 10.4065 18.488 10.6301 18.4387C10.8543 18.3893 11.0955 18.4088 11.3045 18.4957L11.3057 18.4962C11.5002 18.5787 11.9328 18.6796 12.5355 18.6796C13.1853 18.6796 13.6263 18.5635 13.7996 18.4801L13.8084 18.4762ZM6.44677 5.88018C5.20702 6.29066 4.46715 6.82357 4.46715 7.30367C4.46715 8.33347 7.68862 9.4841 12 9.4841C14.1106 9.4841 16.0871 9.21605 17.5542 8.72795C18.794 8.31667 19.5339 7.78376 19.5339 7.30367C19.5339 6.27466 16.3124 5.12323 12.001 5.12323C9.89042 5.12323 7.91394 5.39208 6.44677 5.88018Z" fill="white"/>
</svg>
